<?xml version="1.0" encoding="UTF-8"?>
<svg id="Layer_2" data-name="Layer 2" xmlns="http://www.w3.org/2000/svg" viewBox="0 0 201.89 91.19">
  <defs>
    <style>
      .cls-1 {
        fill: #a6ce94;
        stroke: #eef9d5;
        stroke-linecap: round;
        stroke-linejoin: round;
        stroke-width: 2px;
      }
    </style>
  </defs>
  <g id="Layer_3" data-name="Layer 3">
    <g>
      <path class="cls-1" d="M1,85.12s1.13-32.73,34.42-22.57c0,0-14.11-24.26,7.9-33.86,22.01-9.59,27.65,15.23,27.65,15.23,0,0,15.8-44.58,44.58-42.88,28.78,1.69,20.88,33.86,20.88,33.86,0,0,13.54-5.64,19.18,2.82,5.64,8.46,0,17.49,0,17.49,0,0,21.44-4.51,14.67,11.29,0,0,29.75-11.62,30.6,14.5.16,5.03-3.91,9.2-8.95,9.18-34.87-.08-169.36-.65-190.93-5.07Z"/>
      <path class="cls-1" d="M85.29,61.47s-1.28-16.23,17.43-15.87c0,0,7.96-17.95,27.86-6.41"/>
      <path class="cls-1" d="M32.27,74.21s13.13,10.35,33.83,5.17c0,0,16.76,5.83,34.85-1.86,0,0,13.31,11.81,21.67-3.31,0,0,6.37,18.05,21.89,3.85,0,0,6.37,6.1,23.08,2.52"/>
    </g>
  </g>
</svg>