<?xml version="1.0" encoding="UTF-8"?>
<svg id="Layer_2" data-name="Layer 2" xmlns="http://www.w3.org/2000/svg" viewBox="0 0 357.62 186.55">
  <defs>
    <style>
      .cls-1 {
        fill: #43413d;
        stroke: #eef9d5;
        stroke-linecap: round;
        stroke-linejoin: round;
        stroke-width: 2px;
      }
    </style>
  </defs>
  <g id="Layer_3" data-name="Layer 3">
    <g>
      <path class="cls-1" d="M1,185.55s0-21.9,20.44-14.6c0,0,8.76-39.42,51.1-13.14,0,0,8.76-51.1,62.78-18.98,0,0-20.44-36.5,27.74-42.34,0,0-24.82-16.06-14.6-39.42,10.22-23.36,33.58-21.9,33.58-21.9,0,0,4.38-39.42,35.04-33.58,30.66,5.84,23.36,42.34,23.36,42.34,0,0,39.42-16.06,49.64,5.84,10.22,21.9-20.44,52.56-20.44,52.56,0,0,29.2-4.38,35.04,14.6,5.84,18.98-16.06,35.04-16.06,35.04,0,0,37.96-23.36,36.5,18.98,0,0,8.91-11.25,16.75-10.01,7.85,1.24,13.63,8.26,14.45,12.8s0,9.91-3.3,9.91S1,185.55,1,185.55Z"/>
      <path class="cls-1" d="M178.81,93.27s28.59-26.92,46.27,3.2c0,0,13.75-7.86,16.37,8.51"/>
      <path class="cls-1" d="M37.83,169.8s14.4,15.71,40.59,0c0,0,22.92,15.06,52.38,0"/>
      <path class="cls-1" d="M178.81,165.22s19.43,20.08,54.13,8.07c0,0,32.74,8.73,50.41,0"/>
    </g>
  </g>
</svg>