<?xml version='1.0' encoding='utf-8'?>
<svg xmlns="http://www.w3.org/2000/svg" version="1.1" id="Layer_1" x="0px" y="0px" viewBox="0 0 5000 2196.4" style="enable-background:new 0 0 5000 2196.4;">
  <g>
    <path d="M4512.5,2020.8c-40.4-2.3-47.2-16-76.9-14.1c-31.1,2-38-19.3-89.1-20c-12-0.2-13.2,0.3-20.1,7.8c-4,4.4-6.8,8.7-6.3,9.7 c1.5,2.4,16.2,5.9,16.2,8.7c0,2.8,6.3,0.9,7.8,5.1c0.6,1.7,5.6,5.4,11,8.2c9.6,5,9.8,5.3,8.4,13.9 c-12.9,82.3,23.5,155.3,19.6,155.3c0.7,2,3.2,1.6,9.8-1.3c7.7-3.5,10.2-6.5,18.9-23.4c12.3-23.9,11.3-17.9,21.1-37.7 c15.3-30.9,1.3-26.4,14.2-55.1c9.3-20.8,10.8-30.4,15.4-33.9c6.4-4.9,24.9-3.2,42.4,3.7c19.6,7.8,20,7.9,29.1,1.6 c8.4-5.7,9.3-12.2,2.9-21.2C4533,2022.3,4531.5,2021.9,4512.5,2020.8z"/>
    <path d="M3670.5,1970.2c-40.1-5.3-52.4-19.6-63.6-22c-3.6-0.8-12.4-4-19.6-7.1c-14.8-6.5-15.3-5.7-86.8-6.5l-15.7,14.4 c28.1,6.8,45.5,24.9,43.3,31.9c-2.7,8.7-6.6,1.3-11.4,33.9c-1.5,10.1,2,50.3,5.8,67.6c3.6,16.3,13.6,42.3,17.3,45.3 c-0.3,0.3,7.6,6.5,23.7-2c9.4-5,9.1-4.4,12.9-27.9c1.2-7.4,2.5-10.8,11.6-33.4c3.5-8.7,1.6-21.2,4.6-21.2c3.1,0,1.4-6.5,4.1-6.5 c2.8,0,4-19.6,6.9-19.6c2.8,0,0.5-4.8,6.4-16.4c7.6-15-1.2-14.9,24.5-13c42.9,3.2-0.8,5.4,59.4,5.4 C3694.1,1983.3,3696.5,1973.6,3670.5,1970.2z"/>
    <path d="M4994.6,1712.6c-12.1-6.3-11.7,1.5-56.1-15c-13.5-5-37-6.2-57.1-12.5c-16.2-5.1-63.9-7.5-75.6-3.8 c-9.3,3-13.6,17.3-5.3,17.3c6,0,7.8,5.2,15,7.5c7.3,2.3,10.3,9.4,6,14.2c-19.2,21.2-12.1,133.8-6.5,131.7c1.6-0.6,4.6-0.1,6.8,1.2 c4.9,2.9,4.6,2.8,9.2,0.4c8.9-4.8,38.1-51.3,47.4-61.3c10.3-11.2-1.6-12.6,16.8-32.1c10.1-10.6,15.8-26.6,23.4-30.4 c22.2-11.3,49.7,13.8,72.3,3.1c5.9-2.8,8-5.3,8.8-10.4C5000.5,1716.9,4999.7,1715.3,4994.6,1712.6z"/>
    <path d="M3517.8,1748.6c35.4-13.5,89.7-0.9,94.4-8.4c3.6-5.8-1.5-10.7-12.5-12.2c-47.8-6.5-47.6-10.1-57.6-19.6 c0.6-11.7,2.3-59.2,6-68.2c4.2-10.3,23.3-27.7,24.7-31.5c1.1-3,10.7-16.8,12.8-20c-7.5-10.1-13.7-20.1-30.3-13.5 c-13.2,5.3-17.6,11.2-32.8,18.7c-16.3,8-23.2,17.5-26.6,17.5c-3.1,0-30,26.9-33.3,33.2c-6.3,12.2,0.9,40.7-7.4,45.9 c-9,5.6,1.9,8.2-15.8,8.2c-17.7,0-26.9,3.4-32,11.8c-2.5,4-4.5,7.8-4.5,8.4s3.6,1.8,8.1,2.6c11.6,2.2,55.4,24.4,71.5,28 C3482.5,1749.2,3506.6,1752.8,3517.8,1748.6z"/>
    <path d="M2728.5,1540.9c-11.7-4.4-12.7-5.3-13.9-12.8c-2.5-15.6-29-36.8-32.6-48.2c-1.8-5.6-12.5-19.6-21.6-28 c-6.7-6.2-19.1-8.5-21.9-3.9c-0.5,0.9-21.7,59.1-5.2,64.3c4.9,1.6,4.1,7.4,4.1,12.5l-29.7-2.8c-16.3,16.7-20.7,19.3-3.6,20.3 c10.3,0.6,17.9,16.3,22.9,18.5c3.1,1.4,1.6,12.5-2.8,21.1c-5,9.8-6.7,24.9-7.2,65.8c-0.3,24,0.2,29,2.9,29.7 c0-0.2,0.8,0.8,14.2,1.1c9.4,0.2,12-0.7,18.9-6.8c8-7.1,15.6-19.5,15.9-25.7c0.1-3.3,9.8-16.8,26.5-37.1c10.6-12.9,13.3-18,15.1-29 c1.9-11.5,7.5-13.7,26.7-10.8c35.1,5.4,48.6,16.7,48.6-1.5C2785.8,1542.4,2761.3,1553.2,2728.5,1540.9z"/>
    <path d="M3554.3,1396.9c1.5-0.6,7-0.2,12.3,0.8c14,2.7,36.9,2.5,36.9-0.3c0-9.5-16.5-10.4-95.5-27.4c-15.3-3.3-39.7-2.7-39.7,1 c0,5.5,5.5,12.2,2.2,24.3c-2.6,9.7-10.6,13.1-30.6,13.1c-12.7,0-14.5,0.6-21.1,7c-8.7,8.4-9.2,12.7-1.4,12.7 c9.2,0,45.4,18.3,56.8,28.8c43.6,39.7,109.6,58.4,110.8,59.3c45.6,17.3-38.2-51.8-38.2-59c0-3.4,29.6-5.6,40.3-3 c12.3,3,29.8,2.6,34.3-0.8c2.2-1.7,3.8-5.8,3.8-9.7c0-23.1-69.8-6-74.3-28.1C3549.3,1407,3550.8,1398.3,3554.3,1396.9z"/>
    <path d="M3993.9,1485.9c-25.6-3.6-35.1-11.3-44.7-12.3c-7.9-0.8-9.7-7.4-4.4-15.5c2.9-4.4,3.3-10.2,2.3-35.6 c-2.5-64.7-7.7-34.9-7.7-56.2c0-13.3-5.1-17.5-19.9-16c-7.1,0.7-12,2.3-13.2,4.5c-3.3,5.8-5,4.8-12.5,18.9 c-8.9,16.7-22,28.5-22,31.8c0,4.6-12.4,4.7-13.6,33.7l-0.6,14.2c-32.6,1.8-36.7,1.7-40.3,10.8c-5.5,13.9-17.9,9.1-3.6,15.1 c12.1,5.1,14.5,2.2,14.5,8.2c0,4.4,4.4,9.4,17.8,20.7c17.5,14.6,7.4,1.1,96.7-3.4c22.4-1.1,43.2-1.1,52.6,0.2 c17.9,2.4,27,0.1,27-6.7C4022.3,1491.9,4015.1,1488.8,3993.9,1485.9z"/>
    <path d="M1856.1,1342c-14.4-1.4-16.3-2.2-24.3-10.4c-10.8-10.9-28.2-21.4-37-22.3c-24-2.5-48-23.9-61.8-16.5 c-11.7,6.2,16.3,22.1-19.3,17.1c-19.4-2.7-24.8-1.4-29.8,7c-3.8,6.5-3.8,6.6,0.3,6.6c29.7,0,73.7,67.6,130.7,96v0 c9.8,4.9,8.2,4.5,12.4,2.9c1.9-0.7,3.4-2.7,3.4-4.5c0-10.8-28.3-53.9-28.3-56c0-2.1,45.8-1.5,55.7,0.7c11.9,2.7,17.5,1.4,20.8-4.7 c1.9-3.6,1.5-5.4-2.4-9.5C1872.7,1344.6,1868.3,1343.2,1856.1,1342z"/>
    <path d="M3421.8,1395.5h7.3c-0.2-31.9-3.4-73-4.9-89.3c-0.8-8.6,9.6-8.1,23.7,1.2c6.3,4.2,14.3,7.8,17.7,8.1 c5.5,0.4,6.2-0.3,6.4-6.8c0.6-21.3,21.6-1.8,37-8.8c24.3-11.1-33.6-13.6-60.8-33.3c-9.8-7.1-47-21.9-65.1-25.9 c-11.5-2.6-12.8-2.4-18,1.7c-12,9.4-42.4,2.5-54.1,16.7c-4.4,5.4-5,10-1.2,10c1.5,0,8.7,3,16,6.6c19.2,9.6,10.5,7.9,25.1,35.9 c9,17.4,13.8,27.9,18.2,31.5c4.8,4,0.9,5.7,9.9,14.3c9.8,9.4,0.7,6.2,21,24.9C3399.8,1382.2,3412.8,1395.5,3421.8,1395.5z"/>
    <path d="M1539.4,1249.3c-6.4-5.3,4.3-7.6-12.6-9.7c-28.4-3.6-61-20.3-92.8-31c-15.4-5.2-17.2-5.3-41.2-3.2 c-20.2,1.8-25.9,3.1-29.4,6.5c-14.6,14.6,23.5,2.1,29.4,26.7c13.9,57.7,41.6,121.3,55,126.3h0c16.9,6.3,4.5-15.1,10.5-18.9 c7.1-4.5,2-71.5,9.1-88.4l3.5-8.2h15.2c23.8,0,44.8,10.8,52.9,10.9C1543.8,1260.3,1544,1253.1,1539.4,1249.3z"/>
    <path d="M1217.3,1203.4c-24.6-6.2-44.8-15.9-47.4-22.8c-2.7-7.1-1.4-2.4-18.3-15.1c-10.4-7.8-14.1-9.4-19.1-8.4 c-12.5,2.5-6.6-14.6-18.2-14.6c-3,0-5.4-1-5.4-2.1c0-5.2-7.2,1.5-12.2,11.2l-5.4,10.7c9.9,8,15.3,12.8-9.1,12.8 c-13,0-16.4,0.8-20.6,4.7c-12.1,11.4,0.5,3.7,20.7,18.7l10.8,8c2.5,46.8,2.9,45.9,20.8,44.1c9.1-0.9,14.8-2.8,18.1-5.9 c11.8-11.1,12.7,10.8,31.4-18.1l8.9-13.7c16.6-1.3,31.1-3.1,46.7,0.6C1246.8,1220.1,1263.8,1215.2,1217.3,1203.4z"/>
    <path d="M3867,1203.7c-1.4-7.1-14.1,1.5-73.9-28.7c6.6-52.6,0.9-91.2,3.1-134c0.7-13.5-1.3-16.4-11.4-16.3 c-7.5,0.1-9.4,1.8-36.1,33.8c-38.2,45.7-26.4,38-45.6,36.1c-2.2-0.2,0.5-34.6,3.1-39.6c2.5-4.8,31.8-14.1,38.1-18.7 c4-2.9,3.9-3.2-1.8-9c-6-6-6.1-6-35.2-5.5c-33.6,0.5-53.1,3.3-65.5,9.6c-24.3,12.3-12,8.6-12,32.5c0,33.7-38,9.1-51.4,24.7 c-6.3,7.3-6.9,12.4-1.4,11c3.5-0.9,64.7,28.7,72.5,35.1c4.9,4.1,34.9,21.3,34.9,23.4c0,0.8-2.2,2.2-4.9,3 c-6.7,2-16.9,11.9-16.9,16.4c0,6,9.5,1.6,28.4,13.2c31.4,19.3,73.9,16.4,112.4,16.3C3858.5,1206.9,3867.5,1206.5,3867,1203.7z M3698.5,1136c-4.2-4.7-3.2-11,1.9-11C3716.8,1125,3711.4,1150.2,3698.5,1136z"/>
    <path d="M2439.3,999.6c-42.1-6.4-29.5-9.9-71.4-22.7c-43.2-13.2-39.3-14.8-55.3-11.5c-38.8,8-34.8-6.5-50.2,15.1 c5.3,1.1,9.7,1.3,26.6,10.4c16.4,8.8,18.6,12.7,15,26.4c-3.9,14.3,2,69.1,10,97.9c10.5,37.8,12,25.6,18.2,29.6l0,0 c12.9,8.2,11.4-25,15.4-27.5c2.9-1.8,2.1-12.3-1.4-18.4c-4.2-7.3-4-10.4,0.5-11.9c6.7-2.3,17.3-19.1,18.7-29.5 c2.2-16.7,8.2-18.4,12.9-47.6c16.3-0.8,26.6-2.1,44.2,2.7c19.4,5.3,27.2,5.5,30.2,0.9C2456.2,1008.2,2449.3,1001.2,2439.3,999.6z"/>
    <path d="M2595.5,1047c7.2-1,9.1,8.3,11.6,8.3c3.5,0,6.5-6.1,6.5-13.3c0-8.1,26.2-89.6,30-98.3c4.9-11.3,6.3-12.8,13.3-14.1 c21.2-4,49.7,15.3,59.5,10.9l4.8-2.2c-21.1-19.8-46.5-18.1-78.6-39.6c-5.4-3.6-65.9-33.9-85.2-20.4c-3.2,2.3-9.3,4.8-13.5,5.5 c-8.3,1.5-18.8,12.1-12,12.1c7,0,20.6,8.9,28.6,18.7c17.1,20.9,2.7,39.7,25.2,115.5C2590.1,1045.7,2591.2,1047.6,2595.5,1047z"/>
    <path d="M3093.7,974.6c-11.3-0.1-60.6-11.4-68.8-15.7c-3.5-1.9-3.8-3.7-2.3-14.5c2.7-19.7,2.3-21.9,2.9-26.6 c0.3-2.2,29.5-25.4,36.7-29.1c13.9-7.2,9-8.7-24-7.1c-67.2,3.2-77.6,11-89.1,16.8c4,41,6.7,44.2-26.7,44.4 c-16,0.1-17.4,0.5-22.4,6.2c-6.9,8.1-6.6,10.2,1.3,10.2c9.2,0,23.7,9.5,37.1,14.2c10.2,3.6,86.1,54,87.1,54 c10.3,7.3,12,2.9,3.2-8.6c-3.1-4-8.1-12.7-11.1-19.4c-8.5-18.5-7.2-19.2,31.9-17.6c42.4,1.7,52.4,4.7,52.4,1.7 C3102,981.2,3096,974.6,3093.7,974.6z"/>
    <path d="M735,994.4c-5.3-4.4-1.2-6.2-8.1-12.4c-7.8-7.1-39.4-4.5-50.3-9.6c-15.3-7.2-3.5-66-20.7-124.1 c-3.2-10.8-3.2-12.2,0.1-17.8c4.8-8.2,4.5-9.7-2.4-12.8c-5.7-2.6-6.4-2.2-16.3,8.9c-5.7,6.4-10.4,12.4-10.4,13.4 c-0.1,3.6-5.6,6.8-23.9,41.2c-13.5,25.3-11.6,15.5-9.8,42.5c2,28.8,0.6,30.5-26.3,33.6c-21.3,2.5-20.4,3.1-32.6,15.1 c19.2,0,11,0.6,59.9,16.8c28.8,9.6,15.3,7.9,61.1,6.2c34.8-1.2,39.1-1,49.1,3c-0.6,0,21.1,8.4,30.3,1.7 C738.1,997.5,738.2,997,735,994.4z"/>
    <path d="M3337.5,928c0-8.7-18.7,0.5-75.6-20.7c11.6-67,9.3-66.5,19.7-76c12.6-11.5,18.9-37.4,11.6-47.4c-2.8-3.8-3.4-3.8-15.5,0.7 c-38.1,14.3-61.8,32.6-86.4,55.6c4.8,50.8,7.4,51.5-21.6,51.5c-17.5,0-19.3,0.4-23.7,5.5c-6.2,7.1-6,9.8,0.6,9.8 c7.8,0,50.6,23.9,63.3,26.2c0.2,0,9.6,1.8,9.8,1.8c4.5,0.9,66-4.4,70.5-6.1C3302.7,924.2,3337.5,939.9,3337.5,928z"/>
    <path d="M131.4,715.9c-7.1-3.6-11.5-10.9-8.8-14.6c9.3-12.3,7.7-81.4,7.5-88c-0.4-10.6-0.8-11.3-6.4-12c-8.9-1-9.2-9.8-0.6-18 c6.3-6,9.1-16.4,4.5-16.4c-3.4,0-0.6-10.9-5.3-10.9c-1.7,0-3.5-1.2-4.1-2.7C115,544.3,87.3,581.1,67,621 c-10.3,20.3-10.4,20.5-10.6,43.2c-0.2,19.2-0.9,23.7-4.6,28.7c-5.1,6.8-13.3,8.4-25.1,4.9c-18.2-5.4-32.6,13-24.4,13 c2,0,6.7,1.9,10.4,4.2c10,6.2,33.9,13.6,44.4,19.8c22.6,13.3,85.1-1.1,115.1,5.4c13.8,1.7,21.4,7.2,20.3-2.7 C190.5,720.1,162.7,731.8,131.4,715.9z"/>
    <path d="M3846.4,613.2c21.5,9.9,4,3.8,16.7,29.3c13.3,26.5,79.7,80.7,88.6,81.2c4.6,0.3,5.1-9.3,0.9-16.1 c-5.6-9.2-14.9-35.3-19.2-42c-4.4-6.8-6.2-30-2.6-32.3c4.8-3,28.9-7.4,40.5-7.5c16.1-0.1,31.8,4.8,39.1,3c4.9-1.2,9.3-8.5,6.6-11.2 c-0.7-0.7-8.9-2-18.2-2.8c-31.8-2.9-27.2-15-71.5-28.3c-53.4-16.1-52.2-15.9-50.2-6.8c1.8,8.3-1.1,9.5-27.8,11.1 c-24,1.5-21.2,1.2-31.7,14.3C3824.8,606,3831.9,606.5,3846.4,613.2z"/>
    <path d="M889.5,695.4c16.8,0,4.4-6.5-15.7-6.5c-7.1,0-40.7-11.1-44-19.6c-6.4-16.4,2.7-139.3-3.8-146.5c-2-2.2-4.8-4-6.2-4 c-3.9,0-47.8,46-61.3,72.4c-6,11.8-5.1,11.6-2.4,64.5c-7.9,5.2-9,7.3-26.9,6.8c-17.9-0.5-15.9-0.4-26.7,12.1 c29.3,6.1,30.8,16.4,62.8,25.3c15.5,4.3,18.9,4.5,31.6,2.3c15.8-2.8,55-1.7,66,1.8c9.3,3,25.5,8.5,30.5,8.8 c6.3,0.3,4.3-5.4-3.1-8.7C880.3,699.5,879.9,695.4,889.5,695.4z"/>
    <path d="M1314.2,653.4c-12.9-1.5-41.3-11-45.3-15.1c-1.5-1.5-2.2-5.3-1.6-8.4c0.9-4.4,3.1-6.1,10.8-8.2c5.3-1.4,11.6-2.6,14-2.6 c8.2,0,5.1-11.4-13.9-7.8c-7.5,1.4-12.2-1.7-15.2-10.1c-2.3-6.6,7.7-29.2,17.5-39.6c26.8-28.4-18.4-15.1-56.1-3.2 c-25.4,8-36,16.5-33.8,26.9c3.5,16,3.6,30.8,0.3,33.5c-1.8,1.5-12.2,3.3-23.2,4c-18.4,1.2-20.2,1.7-24.1,7.2 c-4.5,6.3-3.8,8.7,2.3,8.7c8.3,0,15.5,9,39.3,19c12.4,5.2,17.9,6,47.8,7.2c31.7,0,43.1,4.8,48.2-1.4c5.2-6.3,47.4-0.1,55.4,1.7 C1330.1,659.1,1326.9,654.9,1314.2,653.4z"/>
    <path d="M1405.2,637c18.1,6.2,18.9,6.3,62.6,5.7c24.3-0.3,44.9,0.2,45.8,1c0,1.6,8.1,2.8,6.9-1.2c-1.5-4.6-36.6-13.9-52.8-26.6 c-4-3.1-4-3.8-0.8-10.4c2.8-6,5.9-8,19.1-12.5c8.7-3,16.3-6.3,16.9-7.3c2.3-3.7-5.1-5.7-21.7-5.7c-14.8,0-17.1-0.6-19.2-4.6 c-7.2-13.4,7.9-11,22.6-7.4c4.7,1.2,7.3,0.4,11.1-3.2c15.5-14.5-18.9-28.9-13.4-40.8c4.5-9.8-0.1-10.6-25.8-4.2 c-32.6,8.2-32.8,8.1-32.7-15.6c0.2-28.8-17-80.5-21.2-83.6c-0.9-0.7-4.3-6.2-7.6-12.2c-19.5-35.7-23.5-35.5-35,1.4 c-21.5,68.8-9.9,58.8-5.7,90.8c1.3,9.8,0.8,11.8-3.3,16c-4.3,4.3-6.2,4.7-19.3,3.4c-14.2-1.4-14.7-1.3-20.9,5.3 c-5.6,5.9-5.9,6.7-2.2,6.7c11.4,0.1,23.7,16.6,33.8,18.5c2.7,0.5,9,5,13.8,9.9c9.4,9.5,8.3,9.3,28.6,5.4 c10.1-1.9,12.8,1.3,13.7,16.8c1,16.1-0.9,18.8-15.3,21.4c-22.3,4.1-14-17.9-37.2,9.7C1372.6,615.9,1371.7,625.6,1405.2,637z"/>
    <path d="M2592.8,481.4c31.1,4.6,42.6,2.3,42.6-8.8c0-3.4-0.7-6.3-1.6-6.5c-4.4-0.9-72.9,0.9-80.6-11.3c-0.9-1.4-2.3-9-3.2-16.8 c-4.3-39.1-11.7-24.7,28.9-67.2c-11.5-8.1-11.8-10.1-41.1,1.6c-30.9,12.3-42.3,18.6-54.9,29.8c-21.4,19.3-4.9,16.9-1.6,43 c1.2,9.3,0.7,11.1-4.2,15.6c-4.9,4.6-24.5,9.9-36.3,9.9c-5.5,0-24.8,15.3-8.1,15.3c12.4,0,2.4,3.9,43.5,7.7c6.8,0,41,5.7,61.5-3 C2569.6,477.2,2583,480,2592.8,481.4z"/>
    <path d="M2196.7,111.3c-7.5-4.7-49.8-7.4-65.5-21.4c-5.1-4.6-3.5-13.5-13.3-26.3c-9.5-12.4-13.6-19.9-20.4-22.5 c-9.1-3.4,1.8-4.8-18.7-21.9c-21.7-18-19.9-21.8-23.9-17.9c-7.3,7.2-13.3-7.3-12,32.5c0.6,18.4,2.6,23.6,13.7,35.6 c5.5,6,6.6,12.2,2.3,13.7c-1.5,0.5-8.7,0.5-16-0.1c-12.4-1-13.7-0.6-19.1,5.2c-12.3,13.3-2.8,2.8,18.7,17 c22.4,14.9,20.8,13,19.7,24.8c-1,10.7,3.4,30.4,9.4,42.1c2.8,5.4,3.5,5.6,14,4c13.3-2.1,28.9-10.3,29.6-15.7c1.1-7.5,6.6-4.1,25-43 c38.9,0,59.7,10.7,62.3,8.1C2205.3,123.1,2201.5,114.3,2196.7,111.3z"/>
  </g>
</svg>