<?xml version="1.0" encoding="UTF-8"?>
<svg id="Layer_2" data-name="Layer 2" xmlns="http://www.w3.org/2000/svg" xmlns:xlink="http://www.w3.org/1999/xlink" viewBox="0 0 599.24 413.94">
  <defs>
    <style>
      .cls-1 {
        fill: url(#linear-gradient-2);
      }

      .cls-1, .cls-2, .cls-3, .cls-4, .cls-5, .cls-6 {
        stroke-width: 2px;
      }

      .cls-1, .cls-3, .cls-4, .cls-5, .cls-6 {
        stroke-miterlimit: 10;
      }

      .cls-1, .cls-3, .cls-7, .cls-6 {
        stroke: #a6ce94;
      }

      .cls-8 {
        fill: #eef9d5;
      }

      .cls-9 {
        stroke: url(#linear-gradient-8);
      }

      .cls-9, .cls-10, .cls-11, .cls-12, .cls-13, .cls-14, .cls-15, .cls-16, .cls-17, .cls-2, .cls-7 {
        stroke-linecap: round;
        stroke-linejoin: round;
      }

      .cls-9, .cls-10, .cls-11, .cls-12, .cls-13, .cls-14, .cls-15, .cls-16, .cls-17, .cls-7 {
        fill: none;
      }

      .cls-10 {
        stroke: url(#linear-gradient-6);
      }

      .cls-11 {
        stroke: url(#linear-gradient-5);
      }

      .cls-12 {
        stroke: url(#linear-gradient-7);
      }

      .cls-13 {
        stroke: url(#linear-gradient-3);
      }

      .cls-14 {
        stroke: url(#linear-gradient-4);
      }

      .cls-15 {
        stroke: url(#linear-gradient-9);
      }

      .cls-16 {
        stroke: url(#linear-gradient-10);
      }

      .cls-17 {
        stroke: url(#linear-gradient-11);
      }

      .cls-2, .cls-18, .cls-5 {
        fill: #a6ce94;
      }

      .cls-2, .cls-4, .cls-5 {
        stroke: #467958;
      }

      .cls-3 {
        fill: url(#linear-gradient);
      }

      .cls-4, .cls-19 {
        fill: #43413d;
      }

      .cls-20 {
        opacity: .58;
      }

      .cls-21 {
        fill: #fbe63e;
      }

      .cls-22, .cls-6 {
        fill: #467958;
      }
    </style>
    <linearGradient id="linear-gradient" x1="71.76" y1="196.32" x2="277.77" y2="196.32" gradientUnits="userSpaceOnUse">
      <stop offset="0" stop-color="#43413d"/>
      <stop offset=".02" stop-color="#43443e"/>
      <stop offset=".23" stop-color="#445b49"/>
      <stop offset=".45" stop-color="#456c51"/>
      <stop offset=".69" stop-color="#457556"/>
      <stop offset="1" stop-color="#467958"/>
    </linearGradient>
    <linearGradient id="linear-gradient-2" x1="265.08" y1="94.2" x2="483.54" y2="115.07" gradientUnits="userSpaceOnUse">
      <stop offset="0" stop-color="#43413d"/>
      <stop offset=".27" stop-color="#43443e"/>
      <stop offset=".54" stop-color="#435144"/>
      <stop offset=".8" stop-color="#44644e"/>
      <stop offset="1" stop-color="#467958"/>
    </linearGradient>
    <linearGradient id="linear-gradient-3" x1="144.94" y1="338.08" x2="195.1" y2="338.08" gradientUnits="userSpaceOnUse">
      <stop offset="0" stop-color="#467958"/>
      <stop offset=".81" stop-color="#eef9d5"/>
    </linearGradient>
    <linearGradient id="linear-gradient-4" x1="120.5" y1="345.98" x2="186.81" y2="345.98" xlink:href="#linear-gradient-3"/>
    <linearGradient id="linear-gradient-5" x1="94.45" y1="346.1" x2="178.52" y2="346.1" xlink:href="#linear-gradient-3"/>
    <linearGradient id="linear-gradient-6" x1="73.9" y1="342.55" x2="172.26" y2="342.55" xlink:href="#linear-gradient-3"/>
    <linearGradient id="linear-gradient-7" x1="57.48" y1="339.19" x2="160.23" y2="339.19" xlink:href="#linear-gradient-3"/>
    <linearGradient id="linear-gradient-8" x1="45.5" y1="332.59" x2="149.19" y2="332.59" xlink:href="#linear-gradient-3"/>
    <linearGradient id="linear-gradient-9" x1="34.85" y1="322.79" x2="150.6" y2="322.79" xlink:href="#linear-gradient-3"/>
    <linearGradient id="linear-gradient-10" x1="25.53" y1="310.79" x2="152.87" y2="310.79" xlink:href="#linear-gradient-3"/>
    <linearGradient id="linear-gradient-11" x1="25.53" y1="303.08" x2="143.76" y2="303.08" xlink:href="#linear-gradient-3"/>
  </defs>
  <g id="Layer_3" data-name="Layer 3">
    <g>
      <path class="cls-2" d="M496.5,194.36s-17.16-11.22-35.38-13.48c0,0-21.27,5.83-22.25,11.19s19.86,4.68,19.86,4.68l-4.21,3.61s38.63-4.56,41.98-5.99Z"/>
      <path class="cls-3" d="M86.03,96.04s1.03,3.7-1.84,4.65c-2.87.96-9.48-3.92-11.48-.9s-.63,8.74,2.11,11.85c2.74,3.11,7.46,4.57,7.18,6.21s-5.76,1.23-5.68,5.53,2.11,5.89,2.67,6.32,4.82,2.62,4.93,5.08c0,0-4.72-.51-4.19,5.07.53,5.58,10.09,8.5,10.18,10.17.09,1.67-4.16,1.44-4.54,4.98-.38,3.54,4.03,7.86,5.11,8.71s5.69,2.34,5.93,3.79c.24,1.45-3.37,2.8-3.49,4.53-.12,1.74,5.18,8.11,8.82,9.42s3.39.91,3.78,2.06c.39,1.15-2.98,2.89-2.6,5.25s5.25,5.15,6.71,5.8,4.41,1.02,5.26,2.4c0,0-2.43,2.32-.75,5.85,1.69,3.53,11.7,5.03,13.25,6.79,0,0,.93.14.94.9s-1.43,2.92-.67,4.77c.76,1.85,3.21,3.41,5.05,4.09s8.38,2.38,9.34,3.25-.31,1.33-.47,2.23-.13,2.4.83,3.42c.96,1.02,3.12,3.05,5.53,4.1s9.43,3.35,12.9,3.3c0,0-.69,3.06-.32,4.05s3.07,4.58,6.63,5.6,9.41,2.15,15.68,1.82c0,0-1.95,6.97,7.36,6.44s13.03-.42,12.35,1.39c-.68,1.8-46.61,27.17-55.79,28.97-9.17,1.8,17.58,12.65,17.58,12.65l89.43-35.87,20.48-45.1,3.5-17.12-44.97-34.9-39.22-53.8-52.18-6.51-55.37-7.25Z"/>
      <path class="cls-6" d="M322.92,284.41s3.35,20.86,6.77,24.45,30.24,20.43,36.31,22.75,6.05.4,9.33,1.05,10.21,10.75,10.26,15.49c0,0-10.28-12.68-12.51-10.69s5.78,8.45,8.1,11.83,2.1,13.37,1.75,14.49-3.33-12.87-5.5-12.51,1.71,11.5.18,16.75-1.3,3.73-2.19,4.49-1.33-14.57-5.03-20.07c-3.7-5.5-6.7-14.61-11.15-12.81,0,0,6.12,14.01,1.33,20.4,0,0-5.06-18.06-7.14-21.53s-2.65-5.23-6.15-3.81-5.29,5.84-4.08,9.86c0,0-3.89-3.68-3.64-8.49s3.39-3.49,1.64-7.58-.4-5.78-8.97-8.23-9.2-8.27-14.25-6.17-8.15,4.12-12.78-2.98c-4.63-7.1-15.9-10.8-15.9-10.8l33.6-15.89Z"/>
      <path class="cls-5" d="M323.36,174.75c6.15-5.4,14.7-9.61,19.89-15.92,1.83-2.23,1.97-5.85,5.28-6.82,1.34-.39,2.96-.32,3.89-1.36,1.3-1.46.28-4.06,1.57-5.53.82-.93,2.22-1,3.42-1.35,3.31-.97,1.11-6.2,5.57-5.84,1.06.09,2.34.18,2.99-.66.79-1.03,0-2.68.71-3.77.71-1.09,2.38-.9,3.49-1.58,2.59-1.56.68-4.44-.6-6-.59-.71-.97-1.83-.35-2.52.26-.28.64-.43,1.02-.49,1.24-.2,2.46.35,3.6.86s2.41,1,3.62.68,2.16-1.82,1.45-2.86c-.45-.66-1.37-.89-1.77-1.58-.55-.94.28-2.22,1.34-2.48,2.17-.54,4.67,1.74,6.68,2.3.29.08.6.15.89.07,2.69-.7-.53-5.66-1.58-6.43-.65-.48-3.97-3.59-.84-3.44.62.03,1.16.4,1.68.75,1.51,1.01,12.78,8.22,12.27,3.91-.09-.74-.45-1.42-.8-2.08-.91-1.7-1.83-3.41-2.74-5.11-.81-1.52-1.63-3.06-1.97-4.75-1.16-5.91,3.22-8.61,6.44-12.42.84-.99,1.43-2.18,2.29-3.16,1.78-2.04,4.21-2.08,5.32-4.82.54-1.32,1.08-2.82,2.37-3.43,2.77-1.32,4.39.49,6.94-1.65,3.02-2.53,6.43-6.15,8.54-9.48,2.28-3.6,2.35-8.07,4.61-11.72.23-.37.5-.75.91-.89,1.03-.36,1.82.93,2.09,1.99,1.07,4.32.93,8.94-.41,13.19-.78,2.47-2.59,5.88-1.26,8.36.32.6,4.55-5.66,4.74-6.08,1.29-2.89,1.79-6.09,2.5-9.15,1.04-4.45,2.9-9.23,6.99-11.27,1.63-.81,3.48-1.11,5.14-1.86,3.12-1.42,4.53-4.15,6.93-6.36,2.23-2.05,5.56-3.19,8.23-4.54-.99,3.81-3.07,7.21-5.03,10.58-4.77,8.22-9.64,16.4-13.73,24.99-3.19,6.69-5.25,13.92-7.49,20.96-2.3,7.23-7.57,13.71-11.6,20.13-1.23,1.96-2.47,3.93-4,5.67-1.62,1.85-3.54,3.41-5.45,4.96-5.2,4.24-10.41,8.47-15.61,12.71-5.44,4.42-11.01,8.7-15.4,14.22s-6.94,11.05-13.23,14.73c-4.98,2.91-10.7,4.27-16.37,5.34-8.76,1.66-17.63,2.73-26.53,3.22-2.46.13-5.44-.05-6.64-2.22Z"/>
      <path class="cls-1" d="M448.86,67.32s17.58-26.87,18.77-30.68-29.24,6.83-33.98,29.71c0,0-3.16,2.24-.61-7.09,1.63-5.97,6.81-17.76,10.71-26,1.81-3.83-1.7-8.03-5.78-6.89-5.84,1.63-12.7,4.52-16.31,9.51-7.06,9.77-6.81,19.17-10.01,20.03s3.32-26.14,3.01-28.03-24.39,4.94-24.74,17.48c-.35,12.54,1.52,22.37,0,23.48-1.31.96-3.67-17.7-4.84-29.39-.32-3.22-3.63-5.32-6.65-4.13-3.66,1.44-8.26,4.84-11.8,12.74-1.48,3.31-5.92,4-8.26,1.23-1.28-1.52-2.74-2.46-4.28-1.99-4.95,1.52-7.76,5.87-9.73,8.79s-.5,6.32-2.2,7.19-4.89-7-11.93-3.49-6.53,11.89-8.82,13.01-4.27-5.76-9.88-2.8c-5.6,2.95-6.1,10.07-8.1,11.28s-4.07-2.36-9.58,1.41-3.35,8.8-5.18,10.04-4.42-1.67-8.38.43-5.21,9.21-6.03,9.89-4.05-1.16-8.5,2.55-2.5,8.5-4.11,10.07-5.18.12-9.13,4.12-.72,4.94-2.61,6.51c-.02.02-.04.03-.06.05-2.3,1.88-2.5,5.33-.35,7.37l25.18,23.88c.32.31.68.57,1.08.78l48.37,25.76c1.8.96,4,.71,5.54-.61l39.3-33.72c.07-.06.15-.12.23-.18l53.93-41.02c.49-.37.9-.83,1.22-1.35l24.49-39.94Z"/>
      <path class="cls-4" d="M461.26,180.84s-15.15-21.22-58.49-18.95-34.92,9.1-52.65,10.38c-17.73,1.27-33.44,1.21-33.44,1.21l-45.42-28.57-28.02-17.75s-27.6-17.75-43.9-33.96c-16.3-16.2-39.63-43.18-59.96-76.08,0,0-4.63,1.6-5.05,13.03-.41,11.43,11.03,24.21,11.03,24.21,0,0,17.37,15.39,16.59,16.72s-22.25-16.72-34.08-29.57c-11.83-12.85-22.97-28.27-23.47-28.19s-7.72,15.79,4.95,30.6c12.67,14.82,33.59,27.19,36.15,30.14s1.51,3.06,1.07,3.73-29.13-20.86-35.19-25.69c-6.05-4.83-20.56-23.88-25.48-23.22,0,0-1.5,24.48,20.37,37.8,21.86,13.32,22.65,12.64,22.6,14.4s-40.72-22.22-56.7-30.73c0,0,1.06,14.64,23.02,27.8,21.95,13.16,31.6,15.82,30.69,17.62s-40.35-17.18-42.38-18.21c-2.03-1.03-15.02-7.92-17.13-7.61s1.35,20.27,14.84,28.53,98.99,29.28,99.63,34.54c.63,5.26-32.7-1.09-32.97,1.75s33.37,2.4,33.95,6.61c.57,4.21-31.63,3.37-31.71,5.87s29.68-1.44,31.44,1.19-18.56,8.06-18.82,9.55,22.44-4.44,23.61-2.75c1.17,1.68-19.76,11.24-18.98,13.98s22.62-10.35,25.5-6.93-29.34,25.55-28.5,26.91,32.55-20.34,35.62-17.53-24.72,29.45-23.13,32.02c1.59,2.56,22.88-21.19,26.08-19.53s-9.59,26.69-8.1,27.02,13.45-15.07,15.48-14.07-3.15,23.66-1.49,24.56,6.13-9.44,10.22-8.55,4.81,16.95,7.11,17.63,36.97-24.71,38.62-21.55c1.64,3.16-47.29,41.43-70.69,55.44-23.4,14-134.42,42.68-187.96,46.09,0,0-.29,7.75,10.74,10.46,0,0-16.72,8.63-15.83,11,.89,2.37,11.03,7.28,15.93,6.4,0,0-5.31,6.89-3.43,10.89s11.83.19,13.59,3.17-6.51,8.94-4.69,11.87c1.82,2.93,15.4-.46,16.52,1.85,1.12,2.31-6.1,10.61-3.5,14.63s14.16-2.29,16.49,0c2.32,2.29-2.47,12.02.5,14.48s14.78-4.54,17.26-2.48.62,14.21,3.84,15.57,15.02-10.89,19.09-9.62c4.07,1.27,3.29,13.31,6.55,13.97s14.01-12.41,18.16-11.98c4.16.43.05,8.11,3.54,8.36s19.97-22.17,23.7-22.72,7.63,5.77,15.07-7.4c7.44-13.17,34.93-77.03,46.67-79.55,11.74-2.52,63.36,7.7,86.44,2.46,23.08-5.24,51.82-20.02,64.95-27.02,13.13-6.99,40.07-44.93,49.01-47.61,8.93-2.67,40.02-22.12,46.84-26.44,6.82-4.32,5.32-4.32,5.32-4.32,0,0-19.25-.39-19.86-4.68s22.25-11.19,22.25-11.19Z"/>
      <path class="cls-5" d="M492.75,47.09c-.02-.57.06-1.14.03-1.71-.05-.77-.31-1.35-.43-2.12-.1-.63.06-1.56-.2-2.15-.17-.38-.85-.64-1.12-1-.23-.31-.19-.7-.5-.99-.57-.54-2.31-.99-3.06-1.29-.93-.37-1.68-.78-2.62-.92-2.07-.3-5.39-.37-7.41.13-1.18.29-1.91.9-3.17.95-1.02.04-1.79-.12-2.63.51-.74.55-1.35,1.43-1.6,2.37-.3,1.14-.54,2.2-.51,3.47.03,1.29-.65,1.81-.57,3.12.06.91.51,1.66.6,2.56.07.71-.15,1.47-.06,2.19.07.54.34.96.44,1.48.17.94-.01,1.87.23,2.8.31,1.13.44,2.25.68,3.4.23,1.11.61,2.39-.11,3.46-.56.83-1.57,1.24-2.24,2.08-.47.58-1.12,1.04-1.63,1.6-.69.76-1.36.95-2.08,1.65-1.38,1.35-2.72,2.81-4.12,4.15-3.02,2.89-6.42,5.35-9.39,8.28-1.55,1.52-2.99,3.17-4.15,5.01-.77,1.24-1.59,4.6-3.36,4.77-1.6.15-3.99-3.4-5.12-4.35-2.9-2.43-5.84-4.88-8.94-7.07-4.03-2.85-8.32-5.33-12.8-7.4s-8.79-3.23-12.79-5.9c-.07-.04-.1-.1-.12-.17-.15-.39-.03-.98-.02-1.38.01-.64.39-1.23.67-1.8.22-.46.6-.91.95-1.28.25-.26.52-.56.8-.78.32-.25.6-.53.89-.81.16-.15.36-.26.5-.43.09-.12.11-.24.17-.37.12-.24.23-.42.24-.7,0-.24-.01-.46.09-.68.19-.42.31-.89.59-1.25.37-.47.98-.77,1.38-1.19.52-.55.79-1.3,1.19-1.92.68-1.03,1.46-1.96,2.11-3.02.87-1.42,1.9-2.72,2.87-4.06,1.55-2.15,4.11-3.35,5.86-5.38,1.15-1.35,2.91-2.46,3.36-4.27.38-1.53.58-2.88.58-4.49,0-3.75-.71-8.03-3.13-11.08-1.47-1.85-3.32-3.33-4.8-5.16-1.18-1.48-3.18-2.92-5.01-3.58-1.21-.44-1.96-.38-2.91-1.41-1.31-1.44-2.02-3.54-3.41-4.93-1.07-1.06-2.11-2.1-3.17-3.16-.39-.4-1.02-1-1.45-1.32-.85-.63-1.45-.54-2.52-.51-2.59.07-3.28,2.86-5.38,3.75-1.21.51-2.23.49-3.46.04-.9-.33-2.05-2.05-2.89-2.05-2.06,0-3.88-1.18-5.98-1.25-2.53-.09-5.08.68-7.31,1.83-3.15,1.62-5.82,4.03-8.45,6.41-7.87,7.12-16.29,13.95-23.88,21.3-4.52,4.38-8.27,9.57-10.97,15.25-2.46,5.19-4.71,9.09-8.67,13.23-.21.22-.35.41-.59.59-.19.15-.34.34-.53.49-.5.39-1,.9-1.37,1.41-.33.46-.67.89-.88,1.42s-.41,1.06-.58,1.6c-.15.47-.29.86-.28,1.38,0,.25-.14.4-.26.62-.13.24-.25.5-.35.76-.28.73-.27,1.57-.41,2.32-.18.94-.19,1.9-.19,2.85,0,.38,0,.76,0,1.13,0,.15.03.21.07.34.05.16.02.35.02.52s-.03.37,0,.54.09.3.09.47c0,.1-.03.23,0,.32.02.09.07.12.09.2.06.25,0,.62,0,.88v1.74c0,.31.05.65-.02.95-.09.42-.29.87-.44,1.28s-.25.82-.41,1.21c-.26.63-.64,1.24-.97,1.83-.17.3-.39.57-.59.86-.22.32-.37.69-.6,1-.26.35-.51.67-.8.99-.28.3-.55.6-.8.93-.44.59-.76,1.23-1.19,1.81-.37.51-.87.89-1.32,1.34-.24.24-.48.47-.73.7-.14.13-.27.27-.41.4-.15.14-.35.23-.5.37-.19.18-.3.46-.44.68-.26.4-.57.76-.88,1.12-.64.73-1.08,1.65-1.6,2.51-.27.44-.57,1.01-.79,1.47-.17.37-.22.83-.37,1.19-.41.94-.41,1.58-.66,2.62-.22.89-.81,1.73-.97,2.64-.23,1.34-.02,2.34-.5,3.68-1.55,4.29.09,9.31-.51,13.76-.14,1.01-.57,1.52-.54,2.63.02,1.11-.41,1.61-.54,2.63-.01.06-.01.12-.01.18-2.05,3.7-4.13,7.38-6.15,11.1-1.98,3.65-3.13,7.41-2.4,11.71,1.15,6.75,5.85,11.31,10.19,15.69.35.6.69,1.21,1.02,1.83.47.89.91,1.8,1.34,2.72.47,5.72,1.36,11.4,2.96,16.93,2.29,7.96,5.74,15.55,9.54,22.88,1,1.94,2.04,3.86,3.09,5.77-.02.33-.04.66-.03.96,0,.3,0,.54,0,.73-1.56.44-3.05,1.09-4.47,1.88-3.65,1.55-6.87,4.2-9.41,7.32-.32.32-.63.64-.92.97-1.26,1.21-2.43,2.51-3.52,3.88-5.4,6.87-8.39,14.95-11.79,22.9-1.75,4.09-3.64,8.15-6.08,11.88-1.02,1.58-2.16,3.46-3.73,4.56-1.69,1.2-4.03,1.06-5.96,1.65-3.87,1.19-7.05,4.11-8.9,7.67-2.08,4-2.48,8.45-1.68,12.85.47,2.57,1.42,5.06,2.58,7.4,1.12,2.26,2.76,4.27,3.76,6.58.39.89.66,1.87.38,2.82-.35,1.19-1.16,2.2-1.49,3.4-.7,2.56.47,5.28,3.03,6.14.8.26,1.88-.02,2.44-.65,2.5-2.84,3.09-7.1,1.08-10.37-.12-1.26-.5-2.5-1.03-3.67-.86-1.91-2.12-3.59-3.14-5.42-.45-.82-.86-1.65-1.23-2.51,1.31,2.2,3.13,4.12,4.9,5.94,2.5,2.59,5.46,5.69,4.9,9.58-.31,2.17-.26,4.45,2.01,5.53,1.99.96,4.04-.22,4.96-2.06,1.79-3.57-.51-8.16-2.58-11.13-2.32-3.3-5.75-6.25-8.41-9.59.17.07.33.13.5.19,1.55.55,3.21.74,4.74,1.34,1.35.53,2.56,1.39,3.57,2.41,2.42,2.41,3.65,5.68,3.4,9.07-.09,1.29,1.22,2.58,2.5,2.5,3.72-.23,5.44-3.98,4.3-7.29-.89-2.61-2.66-5.18-4.24-7.43-1.65-2.33-3.54-4.46-5.94-6.03-1.14-.75-2.39-1.21-3.63-1.76-1-.46-1.82-.89-1.95-2.06-.02-.17-.02-.34-.01-.51,5.11-5.15,9.15-11.3,13.67-16.95,5.53-6.92,15.63-17.09,17.9-19.62s10.84-7.37,18.01-13.49c1.93-1.08,3.79-2.29,5.58-3.6,1.36-.99,2.69-2.03,4-3.09,1.41-1.14,2.79-2.34,3.29-4.16,2.04-7.38-.46-16.9-1.26-24.36-.58-5.4-4.69-25.58,1.37-28.64.79-.4,3.66-.06,4.61-.14,2.78-.25,5.55-.69,8.32-1.03,2.58-.32,5.18-.64,7.61-1.55,2.28-.85,4.4-2.2,6.81-2.6,2.46-.42,3.44-.04,3.51-2.4.06-2.03-3.36-6.33-4.35-8.18-.2-.38-.4-.76-.45-1.19-.07-.59.16-1.16.39-1.71,1.77-4.28,4.73-7.45,6.6-11.57.52-1.14.99-2.41,1.53-3.49.33-.66.89-1.21,1.18-1.92.34-.81.47-1.65.83-2.46,1.83-4.13,2.62-8.74,3.2-13.25.47-3.73.85-7.98,2.09-11.53.76-2.15.91-4.55,1.04-6.81.1-1.66.81-3.25,1.1-4.86.18-.96.04-1.94.24-2.9.2-.99.34-1.92.66-2.9.75-2.32,1.58-3.94,3.2-5.83.9-1.07,2.62-2.57,3.91-3.04.28-.1.59-.16.89-.12.32.04.57.25.87.31.18.04.39,0,.58,0,.43,0,.85-.02,1.28.04,2.38.33,4.43,1.62,6.4,2.92,2.2,1.45,4.24,2.48,6.68,3.54,7.33,3.17,14.68,6.36,21.63,10.32,3.54,2.02,7,4.22,10.23,6.7,3.12,2.4,8.78,11,12.95,5.42.77-1.03,1.23-2.25,1.74-3.43,3.79-8.71,10.79-15.25,15.76-23.21,1.05-1.68,2.65-3.02,3.67-4.71.34-.55.56-1.2.85-1.77.81-1.6,1.94-2.71,2.96-4.13,2.15-3.01,3.89-6.17,5.66-9.4,1.21-2.2,2.72-4.23,3.55-6.58.52-1.44,1.52-2.56,2.02-3.99.35-1.01.68-2.1.86-3.16.18-1.01.5-2.12.48-3.04-.01-.2-.42-1.17-.44-1.58Z"/>
      <path class="cls-22" d="M326.63,146.44c.99-9.75-.53-19.74-4.32-28.78-1.07-2.55-2.31-5.03-3.73-7.41-.66-1.11-2.39-.1-1.73,1.01,4.88,8.2,7.66,17.61,8.03,27.15.1,2.68.01,5.36-.26,8.03-.05.54.5,1,1,1,.59,0,.95-.46,1-1h0Z"/>
      <path class="cls-22" d="M317.02,67.54c-.48,3.04.14,6.01.3,9.04.08,1.43.04,2.86-.35,4.24-.37,1.29-1.08,2.46-1.87,3.53-1.69,2.28-3.72,4.29-5.44,6.55s-3.26,4.66-4.51,7.21c-2.53,5.16-3.71,10.83-2.66,16.53.55,2.98,1.65,5.83,2.91,8.57s2.94,5.57,4.22,8.44c1.37,3.09,2.34,6.33,3.37,9.54,1.09,3.39,2.31,6.73,3.97,9.89.6,1.14,2.33.13,1.73-1.01-2.85-5.41-4.14-11.38-6.34-17.04s-5.77-10.73-7.41-16.65c-1.52-5.48-.87-11.06,1.45-16.23,1.15-2.55,2.61-4.96,4.25-7.23s3.52-4.25,5.28-6.39c.96-1.17,1.86-2.4,2.47-3.79.68-1.54.97-3.18.98-4.86.03-3.27-.93-6.55-.41-9.82.08-.53-.14-1.08-.7-1.23-.48-.13-1.14.16-1.23.7h0Z"/>
      <path class="cls-22" d="M313.45,113.26c.08-.2-.11.21,0,.02.02-.04.04-.09.06-.13.05-.1.1-.19.16-.28.03-.04.05-.08.08-.12.07-.09.11-.06-.03.04.07-.05.13-.16.19-.22.07-.08.15-.15.23-.23.04-.03.08-.06.11-.1.16-.14-.19.13-.02.01s.34-.23.53-.32c.04-.02.09-.04.13-.06.16-.08-.16.06-.05.02.1-.04.2-.08.31-.11.09-.03.19-.05.29-.07.06-.01.12-.02.17-.03.18-.03-.19.02-.06,0,.21-.02.41-.03.62-.02.05,0,.1,0,.15.01.13,0-.24-.04-.06,0,.12.02.23.05.35.08.5.14,1.11-.17,1.23-.7s-.16-1.08-.7-1.23c-1.14-.31-2.33-.14-3.38.39s-1.82,1.44-2.24,2.52c-.19.49.21,1.12.7,1.23.57.13,1.03-.17,1.23-.7h0Z"/>
      <path class="cls-22" d="M312.91,112.25c10.96-6.34,20.17-15.63,26.48-26.61,1.8-3.14,3.35-6.41,4.66-9.78.2-.5-.22-1.1-.7-1.23-.57-.16-1.03.19-1.23.7-4.47,11.49-12.08,21.69-21.69,29.38-2.69,2.15-5.55,4.09-8.53,5.81-1.11.64-.11,2.37,1.01,1.73h0Z"/>
      <path class="cls-22" d="M397.54,13.61c6.21-.54,12.76.35,18.09,3.77,4.77,3.07,8.04,8.4,8.1,14.13.03,2.88-.85,5.58-2.54,7.89-1.85,2.52-4.38,4.46-6.55,6.68s-3.7,4.61-5.21,7.17c-1.39,2.37-2.71,4.83-4.46,6.96-2.16,2.62-4.82,4.31-8.17,4.99-1.9.38-3.84.47-5.77.55-2.2.09-4.4.16-6.6.25-1.28.05-1.29,2.05,0,2,3.86-.14,7.79-.1,11.63-.65,3.33-.48,6.36-1.75,8.81-4.08,4.34-4.14,6.19-10.11,10.09-14.58,2.2-2.53,4.91-4.55,7.06-7.12,2.01-2.41,3.29-5.16,3.63-8.3.64-6.01-2.25-12.28-6.88-16.06-5.89-4.81-13.8-6.24-21.22-5.59-1.27.11-1.28,2.11,0,2h0Z"/>
      <path class="cls-22" d="M423.31,33.04c-4.86-.74-9.76-1.49-14.69-1.34s-9.76,1.18-14.58,1.96-9.67,1.39-14.28,2.96-8.36,4.17-13.11,4.78c-2.45.31-4.98.22-7.4-.29-2.17-.46-5.32-1.16-6.62-3.15-.79-1.21-2.74-.08-1.94,1.14,1.1,1.68,2.83,2.53,4.66,3.22,2.11.79,4.33,1.26,6.58,1.44,4.68.37,9.09-.75,13.3-2.74,2.33-1.1,4.63-2.14,7.12-2.84s4.85-1.12,7.3-1.53c5.16-.86,10.35-1.87,15.56-2.45,5.87-.65,11.68.13,17.49,1.01,1.42.22,2.03-1.95.6-2.17h0Z"/>
      <g>
        <path class="cls-8" d="M388.74,13.12c.1,1.59-3.66,6.07-8.13,6.47-5.9.53-8.13-2.61-8.13-6.47,0-5.39,3.64-7.39,8.13-7.39s7.65-.04,8.13,7.39Z"/>
        <path class="cls-22" d="M389.4,10.95c-.34-3.23-2.82-5.83-6.09-6.05-1.17-.08-2.35.09-3.51.24-.99.13-1.97.29-2.92.6-1.53.5-2.97,1.39-3.85,2.74-.14.06-.26.17-.32.36-.61,1.85-.78,3.8-.48,5.72.25,1.6.83,3.28,2.17,4.29,1.4,1.05,3.45,1.28,5.15,1.27,1.83,0,3.69-.4,5.31-1.28,2.79-1.51,4.89-4.64,4.55-7.89ZM385.04,17.36c-2.47,1.7-5.97,2.05-8.79,1.13-3.36-1.1-3.37-5.78-2.58-8.74,0,0,0,0,0,0,1.36-2.93,5.01-3.37,7.87-3.62,1.54-.14,3.1-.07,4.4.87,1.06.76,1.81,1.94,2.14,3.2.73,2.75-.78,5.62-3.04,7.17Z"/>
        <path class="cls-22" d="M387.15,10.8c-1.24-2.06-3.91-1.93-5.86-1.97-1.77-.04-3.76.15-5.31,1.08-1.38.83-2.37,2.39-2.06,4.04.28,1.47,1.58,2.45,2.9,2.95,2.99,1.13,6.64.06,8.88-2.11.99-.96,2.22-2.58,1.44-3.97ZM385.04,12.63c-.15.51-.71.8-1.15,1.03.11-1.12-.3-2.21-.75-3.23.19.02.38.04.57.06.23.34.51.64.79.94.3.32.69.72.55,1.2Z"/>
      </g>
      <g>
        <g>
          <path class="cls-18" d="M485.8,20.92c.47.56.71,1.25.91,1.93,1.45,4.89-2.09,8.68.53,15.1,1.02-.29,2.13-.3,3.15-.04.48-1.85.67-3.75.55-5.63-.06-.92-.19-1.83-.31-2.73-.11-.79-.22-1.58-.33-2.37-.11-.75-.21-1.5-.36-2.24-.12-.6-.26-1.19-.41-1.79-.23-.96-.47-1.93-.7-2.89-.04-.16-.08-.33-.22-.43-.13-.09-.3-.11-.47-.12-.48-.02-.97.01-1.45.09-.3.05-.6.12-.84.29s-.4.45-.33.71"/>
          <path class="cls-22" d="M485.44,21.27c.88,1.12,1.13,2.82,1.13,4.21,0,1.29-.24,2.55-.45,3.82-.5,3.02-.52,5.9.63,8.79.1.25.33.42.62.35.96-.25,1.92-.27,2.88-.04.26.06.55-.08.62-.35,1.07-4.2.37-8.48-.35-12.68-.18-1.03-.44-2.05-.68-3.07-.14-.56-.27-1.12-.41-1.68-.09-.38-.15-.86-.47-1.13-.61-.52-1.87-.28-2.59-.12s-1.44.63-1.35,1.44c.07.63,1.07.64,1,0s2.05-.82,2.33-.41c.18.27.21.88.29,1.2.1.4.19.8.29,1.2.39,1.61.7,3.22.93,4.87s.53,3.3.6,4.97-.12,3.46-.55,5.15l.62-.35c-1.14-.27-2.28-.25-3.42.04l.62.35c-.64-1.6-.99-3.27-.97-5,.02-1.41.27-2.8.5-4.19.44-2.65.69-5.81-1.09-8.06-.4-.51-1.1.21-.71.71h0Z"/>
        </g>
        <g>
          <path class="cls-18" d="M477.96,21.78c.47.56.71,1.25.91,1.93,1.45,4.89.41,7.74.53,15.1,1.02-.29,2.13-.3,3.15-.04.48-1.85.67-3.75.55-5.63-.06-.92-.19-1.83-.31-2.73-.11-.79-.22-1.58-.33-2.37-.11-.75-.21-1.5-.36-2.24-.12-.6-.26-1.19-.41-1.79-.23-.96-.47-1.93-.7-2.89-.04-.16-.08-.33-.22-.43-.13-.09-.3-.11-.47-.12-.48-.02-.97.01-1.45.09-.3.05-.6.12-.84.29s-.4.45-.33.71"/>
          <path class="cls-22" d="M477.6,22.14c.86,1.09,1.12,2.8,1.33,4.14.18,1.15.22,2.32.21,3.48-.04,3.02-.29,6.04-.25,9.06,0,.33.32.56.63.48.96-.25,1.92-.27,2.88-.04.26.06.55-.08.62-.35,1.07-4.2.37-8.48-.35-12.68-.18-1.03-.44-2.05-.68-3.07-.14-.56-.27-1.12-.41-1.68-.09-.38-.15-.86-.47-1.13-.61-.52-1.87-.28-2.59-.12s-1.44.63-1.35,1.44c.07.63,1.07.64,1,0s2.05-.82,2.33-.41c.18.27.21.88.29,1.2.1.4.19.8.29,1.2.39,1.61.7,3.22.93,4.87s.53,3.3.6,4.97-.12,3.46-.55,5.15l.62-.35c-1.14-.27-2.28-.25-3.42.04l.63.48c-.04-3.17.25-6.33.26-9.49,0-1.23-.09-2.46-.31-3.68-.26-1.45-.6-3.04-1.53-4.22-.4-.51-1.1.21-.71.71h0Z"/>
        </g>
        <g>
          <path class="cls-18" d="M469.43,19.01c.49.58.73,1.3.94,2.01,1.51,5.08,1.7,10.48.55,15.68,1.06-.3,2.21-.31,3.27-.05.5-1.92.69-3.89.57-5.85-.06-.95-.19-1.89-.32-2.84-.12-.82-.23-1.64-.35-2.46-.11-.78-.22-1.55-.37-2.33-.12-.62-.13-1.9-.28-2.52-.24-1-.21-.89-.45-1.89-.04-.16-.51-.78-.65-.89-.13-.1-.32-.11-.49-.12-.5-.02-1.01.01-1.5.09-.31.05-.62.13-.87.3s-.42.46-.34.73"/>
          <path class="cls-22" d="M469.07,19.36c.83,1.06,1.09,2.65,1.37,3.93.32,1.47.54,2.97.64,4.47.2,2.95-.02,5.91-.65,8.79-.08.37.23.72.62.62,1-.26,2-.28,3-.05.26.06.55-.08.62-.35.48-1.87.7-3.81.6-5.75s-.46-3.94-.73-5.9c-.12-.87-.32-1.74-.4-2.61-.06-.7-.08-1.41-.24-2.11-.23-1.01-.35-2.27-1.26-2.93-.64-.46-1.81-.24-2.52-.1s-1.58.62-1.48,1.5c.07.63,1.07.64,1,0-.08-.68,2.09-.82,2.47-.54.47.34.52,1.03.64,1.55.33,1.39.4,2.81.63,4.22.68,4.12,1.37,8.27.33,12.39l.62-.35c-1.18-.28-2.37-.26-3.53.05l.62.62c.68-3.12.92-6.34.65-9.52-.13-1.55-.37-3.1-.72-4.61-.32-1.39-.65-2.89-1.55-4.03-.4-.51-1.1.21-.71.71h0Z"/>
        </g>
        <g>
          <path class="cls-8" d="M476.4,30.05c.43-.31.25-.98-.09-1.43,0,0,0,0,0,0-1.11-.33-2.06-1-3.28-.71-.68.16-.73.22-.89.97-.16.76-.18.77.46,1.03.6.25,1.35.34,1.99.37.51.02,1.4.08,1.83-.23Z"/>
          <path class="cls-8" d="M474.69,35.6c.2,0,.37-.01.45-.02.49-.04.98-.14,1.46-.26.13-.04.26-.08.39-.11.46-.07.51-.14.16-.19-.36-.36-1.35-.48-2.09-.56,0,.18.02.35.02.53,0,.32-.18.52-.4.62Z"/>
          <path class="cls-8" d="M474.12,35.6c-.2-.09-.37-.27-.4-.56-.02-.22-.04-.44-.06-.67-.72.11-1.47.29-1.35.76.09.35,1.02.45,1.8.47Z"/>
          <path class="cls-8" d="M464.69,35.48c.32.11.66.18.99.24-.03-.06-.06-.12-.07-.2-.05-.38-.1-.75-.14-1.13-.45.08-1.06.18-1.29.49-.35.47-.03.43.51.61Z"/>
          <path class="cls-8" d="M472.58,41.37c2.05.11,4.1.23,6.15.36,0,0-.02-.02-.02-.03-.36-.5-.36-1.15-.41-1.74-.04-.56-.08-1.12-.09-1.68-.07-.55-.12-1.1-.11-1.64-.04-.18-.08-.36-.12-.55-.96.62-2.83.7-3.6.68-.56-.01-1.59-.13-2.35-.48.11.8.18,1.61.22,2.42.17.88.29,1.76.33,2.66Z"/>
          <path class="cls-8" d="M469.39,34.72c-.14-.25-1.18-.29-1.49-.33-.32-.04-.64-.03-.94-.07.03.38.07.76.09,1.14,0,.13-.01.23-.05.33.43-.02.85-.07,1.27-.18.25-.06,1.45-.3,1.12-.89Z"/>
          <path class="cls-8" d="M465.87,29.72c.44-.05.9-.11,1.33-.21.26-.05.52-.14.76-.26.1-.84-.21-1.29-.94-1.33-.14-.03-.28-.04-.42-.06-.06.05-.12.09-.19.1-.92.09-2.59-.29-3.16.75-.78,1.42,2.05,1.08,2.62,1.01Z"/>
          <path class="cls-8" d="M487.98,38.85c10.19,1.32,20.36,1.12,30.57,1.96,4.68.38,9.34.94,14.01,1.42,2.32.24,4.65.49,6.96.77.62.08,1.33.03,1.9.23,1.8-.05,3.6-.07,5.4-.08.25,0,.51-.02.76-.02,1.22-.04,2.44-.08,3.66-.12-3.59-3.54-10.63-3.4-15.2-3.73-5.61-.4-11.24-.61-16.86-.91-5.7-.3-11.41-.59-17.11-.89-4.87-.26-9.9-.21-14.74-.92.27.7.44,1.45.61,2.18,0,.04.01.08.02.12Z"/>
          <path class="cls-21" d="M588.16,40.19c0,.07,0,.13,0,.2,0,0,.02,0,.02,0,0-.07,0-.13-.01-.2Z"/>
          <path class="cls-8" d="M481.01,41.88c1.93.13,3.86.26,5.78.38-.05-.28-.07-.56-.11-.83-.07-.48-.05-.9-.02-1.33-.08-.56-.17-1.12-.25-1.68,0-.03,0-.07-.01-.11-.09-.46-.17-.91-.24-1.37-.79.67-2.18.79-3.1.77-.68-.01-1.75-.08-2.57-.45.17,1.04.21,2.15.3,3.16.09.48.16.96.22,1.44Z"/>
          <path class="cls-8" d="M462.69,35.99c-3.7-.56-7.41-.55-11.13-.86-4.14-.35-8.23-1.12-12.34-1.72-3.57-.52-7.47-.2-10.96-.99-.25-.06-2.35-1.07-2.19-1.15-.39.21-.2,3.11-.09,4.57,5.46-1.84,11.93-.37,17.51.12,6.38.56,13.04.64,19.34,1.92-.01-.17-.03-.33-.04-.5-.03-.44-.08-.89-.09-1.33,0-.02,0-.03,0-.05Z"/>
          <path class="cls-8" d="M481.45,36.43c.53.32,1.61.24,2.21.21.33-.01.8,0,1.1-.13.12-.03.24-.07.36-.1.08-.43.16-.86.24-1.29-.11-.27-.96-.55-1.55-.74.01.44.02.89.01,1.33,0,.88-1.35.95-1.38.06,0-.33-.04-.66-.05-.98-.28.04-.56.09-.82.19-.64.07-.8.35-.48.86-.07.39.05.59.35.6Z"/>
          <path class="cls-21" d="M513.53,41.55c-8.5-.11-16.88-.42-25.31-1.5.14.77.25,1.54.32,2.32,7.64.51,15.29.98,22.95,1.12,7.95.15,15.91.13,23.86-.02.12,0,.24,0,.36,0-.05,0-.11,0-.16,0-2.33-.22-4.65-.46-6.98-.7-5-.5-10.01-1.14-15.04-1.2Z"/>
          <path class="cls-8" d="M485.6,29.56c.65-.8-.32-1.37-1.38-1.73-1.04-.22-2.39-.41-3.26.05-.73.39-.94,1.09-.26,1.71.46.41,1.13.48,1.72.53.82.06,2.59.18,3.18-.55Z"/>
          <path class="cls-8" d="M561.05,61.68c-.07-.03-.12-.07-.16-.11-1.64-.5-3.3-.94-4.99-1.34,1.51,4.67-3.56,7.57-7.67,7.84-3.4.23-6.9-.17-10.28-.54-.78-.09-1.57-.17-2.38-.25,1.45.86,2.56,2.04,3.09,3.65,1.39-.23,2.86.04,4.26.1,2.37.1,4.74.11,7.11,0,3.05-.14,6.04-.11,8.38-2.43,1.83-1.81,3.39-4.22,2.79-6.86-.05-.02-.1-.04-.16-.07Z"/>
          <path class="cls-8" d="M585.18,34.76c.26-.91.53-1.87.81-2.84-1.21,1.32-2.55,2.53-4.02,3.62-1.38,1.02-2.81,1.89-4.28,2.66-2.85,2.11-6.44,3.23-10.04,3.98-3,1.05-6.3,1.51-9.44,1.71-1.35.19-2.78.16-4.08.25-3.85.4-7.71.64-11.57.57-.67.02-1.33.05-2,.07-8.81.27-17.63.32-26.44.19-15.63-.23-31.76-.4-47.32-2.62-.3-.02-.6-.04-.89-.05-2.23,0-4.44-.16-6.65-.42-5.32-.37-10.63-.83-15.94-1.37-4.62-.47-9.9-1.65-14.46-.27-6.47,1.96-7.13,8.09-4.32,13.51,4.26,8.22,12.36,10.75,20.7,13.06,4.41,1.22,8.91,2.28,13.5,2.51,2.31.11,4.57-.01,6.86-.33.15-.02.3-.05.46-.08.6-.18,1.2-.41,1.82-.46-.13-1.01-.25-2.02-.38-3.03-1.45-.05-2.92-.12-4.39-.2-7.75.39-16.2-.35-23.3-2.69-3.98-1.31-9.7-5.2-11.62-9.82-.54-.93-.94-1.92-1.1-3-.43-1.09-.6-2.24-.21-3.35,1.08-3.02,4.54-2.66,7.11-2.44,10.86.91,21.72,1.9,32.57,2.93,22.42,2.14,44.82,4.53,67.09,7.92,15.83,2.41,38.37,3.58,48.17,18.39-.1-1.16-.17-2.3-.21-3.37-.07-1.86-.1-3.74-.09-5.61-.07-1.05-.04-2.1.07-3.11.05-2,.15-4,.29-6-1.09,1.17-2.86,1.35-4.63,1.26-1.05.04-2.13-.03-3.19-.04-3.55-.05-7.1-.23-10.64-.49-6.94-.52-13.86-1.36-20.77-2.24-14.71-1.87-29.4-3.89-44.21-4.69-.11,0-.12-.17,0-.18,13.46-.34,26.81,1.35,40.14,3.02,6.65.83,13.3,1.69,19.97,2.33,2.09.2,4.19.38,6.28.54,1.46.05,2.92.09,4.38.16,1.21.06,2.96.33,4.79.51,1.35.1,2.71.15,4.04.1,1.64-.13,3.08-.56,3.93-1.57.2-2.51.45-5.01.81-7.49.56-3.9,1.33-7.76,2.42-11.54Z"/>
          <path class="cls-8" d="M450.17,59.64s0-.02,0-.03c2.6-.22,5.29.61,7.85,1.09,2.03.38,4.06.77,6.06,1.26,1.01.17,2.03.33,3.04.48-.17-1.41-.35-2.83-.51-4.24-.73-.08-1.46-.18-2.19-.29-2.55-.04-5.12-.6-7.63-.9-1.49-.18-3.27-.59-4.9-.58-.75.05-1.45.18-1.98.51-1.05,1.41-.81,3.26.47,4.51,1.96,1.41,4.31,1.75,7.08,2.04.67.07,1.34.11,2.01.17,2.39.04,4.79.03,7.21-.02-1.18-.32-2.37-.61-3.57-.89-1.58-.18-3.15-.41-4.73-.66-2.77-.44-5.81-.54-8.38-1.71-.4-.18-.2-.7.17-.74Z"/>
          <path class="cls-8" d="M591.54,70.98c1.08-5.24,1.83-10.57,2.22-15.91.36-4.91.43-9.88-.04-14.78-.5-5.21-2.15-9.99-3.29-15-.04.08-.07.16-.11.25-.53,1.1-1.13,2.15-1.8,3.15-.15.48-.29.93-.42,1.31-.1.28-.17.56-.27.84,1.72,2,2.32,4.55,2.68,7.14.55,3.99,1.03,8.08,1.43,12.09.19,1.86.12,3.79-.09,5.71-.12,2.14-.5,4.26-1.16,6.28-.13.52-.27,1.04-.41,1.55-1.02,3.69-3.38,6.1-5.88,8.87-.2.22-.46.29-.7.24-.07.05-.14.09-.21.13.11,1.49.29,3.04.59,4.56.51,1.24.9,2.53,1.16,3.85,0,.02,0,.05.01.07.2.47.42.93.67,1.37,3.38-3.05,4.71-7.34,5.61-11.71Z"/>
          <path class="cls-8" d="M595.65,28.79c-.17-.86-.27-1.95-.52-2.9-1.57-1.34-2.81-1.98-3.71-1.9-.35.1-.51.27-.67.6,2.3,4.33,3.12,9.68,3.77,14.45.86,6.33.98,12.7.48,19.06-.65,8.25-1.07,19.76-7.78,25.77,2.36-.21,3.9-1.72,4.98-3.74,1.26-3.58,2.2-7.34,3.01-10.97,2.23-10.1,2.84-20.55,1.85-30.85-.31-3.19-.78-6.37-1.41-9.52Z"/>
          <path class="cls-8" d="M473.65,63.06c-.44-4.65-.89-9.31-1.09-13.98-1.86-.19-3.72-.38-5.59-.55.57,4.54,1.08,9.09,1.63,13.64.22,1.76,1.13,16.33,3.79,15.74,3.48-.78,2.24-4.56,2-7.06-.26-2.59-.5-5.19-.74-7.78Z"/>
          <path class="cls-8" d="M482.68,65.68c-.64-5.2-1.41-10.4-1.72-15.62,0-.06.04-.09.05-.14-1.88-.2-3.77-.37-5.65-.56.55,4.79.97,9.59,1.45,14.39.23,2.32.46,4.64.69,6.96.24,2.42-.26,9.27,4,8.68,3.49-.48,2.36-4.19,2.07-6.55-.3-2.39-.59-4.77-.89-7.16Z"/>
          <path class="cls-21" d="M473.47,49.25s0-.06,0-.08c0,0-.01,0-.02,0,0,.03,0,.06.01.09Z"/>
          <path class="cls-8" d="M470.37,35.86c-.58.52-1.57.85-2.19.97-.99.2-2.69.26-3.98-.17.07.45.1.96.1,1.46.07.84.07,1.69.05,2.47,2.2.15,4.42.3,6.58.62-.24-1.77-.55-3.57-.57-5.35Z"/>
          <path class="cls-8" d="M524.35,66.19c-4.16-.36-8.32-.77-12.48-1.22-4.45-.48-9.45-.64-14.14-1.52-2.21-.25-4.38-.68-6.32-1.39.12,1.24.24,2.47.37,3.71,2.18.38,4.35.79,6.52,1.2,4.24.48,8.48.96,12.73,1.44.42.03.84.06,1.27.09,3.31.23,6.62.42,9.92.66,2.7.2,6.05.04,8.64.85.19.06.36.14.51.23,1.12.21,2.19.95,1.95,2.22-.5,2.65-6.66,1.08-8.1.86-6.25-.97-12.5-2.11-18.74-3.31-.17-.02-.35-.05-.53-.07-4.67-.52-9.57-.91-14.01-2.58.15,1.4.3,2.79.48,4.18.01.1.03.2.04.3,7.33,1.68,14.77,2.85,22.22,3.82,3.93.51,7.87.96,11.81,1.41,2.23.25,4.55.71,6.79.33,3.84-.65,5.51-4.58,2.89-7.62-2.86-3.32-7.82-3.24-11.84-3.59Z"/>
          <path class="cls-8" d="M489.33,51.54c-.02-.24-.04-.48-.05-.71-1.83-.2-3.66-.42-5.48-.61.68,4.93.85,9.97,1.35,14.92.26,2.57.56,5.14.85,7.71.33,2.88-.26,6.85,3.54,6.68.39-.04.78-.07,1.17-.11.5-.09.87-.25,1.11-.46-.71-4.89-1.17-9.82-1.55-14.77-.45-4.2-.86-8.41-.93-12.63Z"/>
          <path class="cls-22" d="M597.11,27.74c-.36-1.7-.54-4.01-1.41-5.53-1.34-2.34-4.07-1.8-5.54.15-.6.78-1.02,1.7-1.44,2.62-.4.7-.76,1.45-1.09,2.23-.06.1-.1.2-.16.3-1.38,2.22-3.18,4.16-5.18,5.84-5.08,4.29-11.3,6.6-17.78,7.96-1.09.14-2.17.3-3.25.46-.07,0-.13,0-.2.03-.7.1-1.41.21-2.11.3-.81.11-1.71.31-2.61.47-.66.07-1.32.14-1.98.21-.18,0-.38.03-.56.02-.49-.03-.95-.18-1.39-.37-2.57-2.74-6.34-3.34-9.99-3.8-5.75-.72-11.57-.86-17.35-1.16-6.36-.32-12.72-.65-19.08-.97-6.25-.32-12.74-1.12-19-.77-.07-.14-.16-.28-.27-.39-.29-1.09-1.91-1.57-2.95-1.77-.04-.75-.13-1.5-.26-2.24,1.45-.07,3.08-.48,3.29-1.88.16-1.11-.49-1.77-1.38-2.14-.02-.15-.1-.29-.28-.35-1.57-.59-5-1.08-5.91.86-.87,1.86,1.08,3.29,2.71,3.47.06,0,.13,0,.19.01.08.81.15,1.61.21,2.42-1.09.16-2.72.7-2.91,1.88-.06.05-.11.13-.13.23-.02.13-.02.27-.03.4-.02.04-.04.09-.05.14-.08-.29-.18-.57-.29-.84-.09-.3-.16-.6-.26-.89-.08-.24-.27-.34-.46-.34-.71-.64-2.22-.81-3.17-.8-.04-.66-.12-1.33-.23-1.98.74.03,1.48-.05,2.15-.35.88-.39,1.02-.93.84-1.84-.26-1.29-1.1-1.92-2.13-2.19-1.4-.73-3.49-.56-4.48.56-1.56,1.78.42,3.26,2.07,3.63.08.02.17.03.25.04.01.08.02.15.03.23,0,.54,0,1.09.04,1.64-.98.06-1.98.56-2.35,1.43-.15-.03-.31.01-.44.1-.06-.21-.18-.44-.41-.69-.58-.61-2.38-1.07-3.5-.78-.08-.81-.2-1.61-.35-2.4,1.45-.22,3.2-.79,2.6-2.5-.44-1.27-2.28-1.74-3.69-1.48-1.44-.28-3.11.39-3.61,1.85-.69,2.03,1.77,2.35,3.31,2.28,0,.01,0,.02,0,.03.03.74.11,1.49.19,2.23-.88.12-2.43.68-2.7,1.55-5.62-1.19-11.6-.81-17.29-1.67-2.93-.44-5.86-.95-8.81-1.3-2.49-.29-8.49.37-9.96-1.99-.1-.17-.32-.31-.53-.28-.2.03-.4.06-.6.09-.34.05-.55.27-.57.62-.13,2.13-.15,4.22,0,6.35.02.33.39.68.74.53,5.56-2.44,13.22-.57,19.09-.07,6.05.51,12.14.85,18.17,1.55.04.52.07,1.05.12,1.57,0,.04.02.06.03.1,0,.06-.01.12-.02.18-.69-.05-1.38-.1-2.06-.17-4.13-.39-8.25-.79-12.38-1.18-6.05-.58-12.97-1.94-19.08-.54-2.85.39-6.15,2.07-6.91,4.79-1.09,1.81-1.5,4.11-.84,6.9,1.94,8.17,8.97,13.47,16.59,15.89,5.17,1.64,10.5,3.21,15.88,3.98,2.14.31,4.32.5,6.48.48.62,0,1.24-.04,1.86-.08,1.79.1,3.74-.17,5.45-.35-.34,2.07.1,4.78.73,6.73.22.67.6,1.15,1.09,1.52.54.56,1.3.9,2.32.94,1.19.24,2.16-.06,2.92-.68.41-.28.72-.64.93-1.05.29-.45.52-.95.69-1.48,0,.06.02.12.03.18.09.92.19,1.83.42,2.73.46,1.85,1.22,1.9,3.02,1.91,1.75,0,4.21-.7,5.31-2.19.59,1.3,1.63,2.16,3.55,2.02,1.39-.1,3.64.23,4.32-1.32.29-.66-.05-1.64-.13-2.3-.17-1.31-.35-2.62-.53-3.93,9.83,2.23,19.78,3.62,29.8,4.76,4.7.54,16.29,3.32,16.54-4.65.02-.52-.02-1.01-.09-1.47,1.42.25,4.78.28,5.35.31,3.56.18,7.53.42,11.04-.33,3.71-.79,7.99-5.44,7.4-9.53,4.6,1.95,9.32,3.96,13.18,6.83.99.86,1.92,1.79,2.79,2.79,1.75,2.04,3.15,4.32,4.07,6.84.1.39.21.77.33,1.15.44,1.75.54,3.56,1.11,5.27.76,2.27,2.97,4.42,5.48,3.16,2.85-1.43,3.79-6.66,4.68-9.4,3.02-9.24,4.66-18.93,4.87-28.65.11-5.21-.18-10.42-.89-15.58-.32-2.36-.73-4.72-1.22-7.05ZM462.82,37.86c-6.3-1.27-12.96-1.36-19.34-1.92-5.58-.49-12.04-1.96-17.51-.12-.1-1.45-.3-4.35.09-4.57-.16.08,1.94,1.1,2.19,1.15,3.49.79,7.39.46,10.96.99,4.11.6,8.2,1.37,12.34,1.72,3.73.31,7.43.3,11.13.86,0,.02,0,.03,0,.05.01.44.06.89.09,1.33.01.17.03.33.04.5ZM588.16,40.19c0,.07,0,.13.01.2,0,0-.02,0-.02,0,0-.07,0-.13,0-.2ZM502.09,37.48c5.7.3,11.41.59,17.11.89,5.62.29,11.25.51,16.86.91,4.57.32,11.61.19,15.2,3.73-1.22.04-2.44.08-3.66.12-.25,0-.51.02-.76.02-1.8,0-3.6.03-5.4.08-.57-.2-1.28-.15-1.9-.23-2.32-.28-4.64-.53-6.96-.77-4.67-.48-9.33-1.04-14.01-1.42-10.21-.84-20.38-.64-30.57-1.96,0-.04-.01-.08-.02-.12-.17-.72-.34-1.48-.61-2.18,4.84.72,9.88.67,14.74.92ZM480.7,29.59c-.68-.61-.47-1.32.26-1.71.87-.46,2.22-.27,3.26-.05,1.06.36,2.03.93,1.38,1.73-.59.73-2.36.61-3.18.55-.58-.04-1.26-.11-1.72-.53ZM481.57,34.98c.27-.1.54-.15.82-.19.02.33.05.65.05.98.03.89,1.37.83,1.38-.06,0-.44,0-.88-.01-1.33.59.19,1.44.47,1.55.74-.08.43-.16.86-.24,1.29-.12.03-.24.07-.36.1-.29.13-.77.11-1.1.13-.6.03-1.68.11-2.21-.21-.3,0-.42-.21-.35-.6-.32-.5-.16-.79.48-.86ZM483.06,37.72c.93.02,2.31-.1,3.1-.77.07.46.15.91.24,1.37,0,.03,0,.07.01.11.08.56.17,1.12.25,1.68-.03.43-.05.85.02,1.33.04.27.06.55.11.83-1.93-.13-3.86-.26-5.78-.38-.05-.48-.13-.96-.22-1.44-.09-1.02-.13-2.12-.3-3.16.81.36,1.89.43,2.57.45ZM475.09,34.98c0-.18-.02-.35-.02-.53.74.08,1.73.2,2.09.56.35.05.29.12-.16.19-.13.04-.26.08-.39.11-.48.13-.96.22-1.46.26-.08,0-.25.01-.45.02.22-.1.39-.3.4-.62ZM472.58,29.91c-.63-.26-.62-.26-.46-1.03.16-.75.21-.81.89-.97,1.22-.29,2.17.38,3.28.71,0,0,0,0,0,0,.34.44.51,1.11.09,1.43-.42.31-1.32.25-1.83.23-.64-.03-1.38-.12-1.99-.37ZM473.67,34.37c.02.22.03.44.06.67.03.3.19.48.4.56-.78-.02-1.72-.12-1.8-.47-.12-.46.63-.65,1.35-.76ZM474.38,36.78c.77.02,2.64-.06,3.6-.68.04.18.08.36.12.55,0,.54.04,1.09.11,1.64.01.56.05,1.12.09,1.68.04.59.05,1.24.41,1.74,0,.01.02.02.02.03-2.05-.13-4.1-.25-6.15-.36-.05-.9-.17-1.78-.33-2.66-.04-.81-.11-1.62-.22-2.42.76.35,1.79.47,2.35.48ZM467.06,35.46c-.02-.38-.06-.76-.09-1.14.3.04.62.04.94.07.31.04,1.35.08,1.49.33.33.59-.87.82-1.12.89-.42.11-.85.16-1.27.18.04-.09.06-.2.05-.33ZM463.25,28.71c.58-1.05,2.24-.66,3.16-.75.07,0,.14-.05.19-.1.14.02.28.03.42.06.73.05,1.04.49.94,1.33-.24.12-.5.2-.76.26-.43.1-.89.16-1.33.21-.57.07-3.4.41-2.62-1.01ZM464.17,34.87c.23-.31.84-.41,1.29-.49.05.38.1.76.14,1.13,0,.08.04.14.07.2-.33-.05-.67-.13-.99-.24-.55-.18-.87-.14-.51-.61ZM464.3,38.12c0-.5-.03-1.01-.1-1.46,1.29.43,2.99.38,3.98.17.62-.13,1.61-.46,2.19-.97.02,1.78.33,3.58.57,5.35-2.17-.32-4.39-.47-6.58-.62.02-.78.02-1.63-.05-2.47ZM472.39,77.9c-2.66.59-3.57-13.97-3.79-15.74-.56-4.55-1.06-9.1-1.63-13.64,1.86.18,3.72.37,5.59.55.19,4.67.65,9.33,1.09,13.98.24,2.6.48,5.19.74,7.78.25,2.5,1.48,6.28-2,7.06ZM473.47,49.25s0-.06-.01-.09c0,0,0,0,.02,0,0,.03,0,.06,0,.08ZM481.5,79.39c-4.26.59-3.76-6.26-4-8.68-.23-2.32-.46-4.64-.69-6.96-.48-4.8-.9-9.6-1.45-14.39,1.88.19,3.77.36,5.65.56-.02.05-.06.08-.05.14.31,5.23,1.07,10.43,1.72,15.62.3,2.39.59,4.77.89,7.16.29,2.36,1.42,6.07-2.07,6.55ZM490.7,79.41c-.39.04-.78.07-1.17.11-3.79.17-3.21-3.79-3.54-6.68-.29-2.57-.59-5.14-.85-7.71-.5-4.95-.67-9.99-1.35-14.92,1.83.2,3.66.41,5.48.61.02.24.04.48.05.71.07,4.22.47,8.44.93,12.63.38,4.95.84,9.88,1.55,14.77-.24.21-.61.37-1.11.46ZM490.31,51.94c-.03-.33-.06-.67-.09-1,3.41.38,6.81.74,10.21,1.14,11.39,1.34,22.77,2.84,34.11,4.59,6.52,1.01,13.35,1.81,19.97,3.24,0,.04,0,.08.02.13,3.93,10.59-20.91,5.51-26.84,5.03-2.63-.3-5.18-.37-7-.54-9.71-.89-20.05-1.25-29.44-4.05-.28-2.85-.58-5.7-.94-8.54ZM533.29,77.4c-2.24.38-4.55-.08-6.79-.33-3.94-.44-7.88-.9-11.81-1.41-7.45-.97-14.89-2.14-22.22-3.82-.01-.1-.03-.2-.04-.3-.18-1.39-.33-2.79-.48-4.18,4.43,1.67,9.34,2.06,14.01,2.58.17.02.35.05.53.07,6.24,1.2,12.49,2.34,18.74,3.31,1.44.22,7.59,1.79,8.1-.86.24-1.27-.83-2.01-1.95-2.22-.16-.09-.33-.18-.51-.23-2.58-.81-5.94-.65-8.64-.85-3.31-.24-6.62-.43-9.92-.66-.42-.03-.84-.06-1.27-.09-4.24-.48-8.48-.96-12.73-1.44-2.17-.41-4.35-.82-6.52-1.2-.13-1.24-.25-2.47-.37-3.71,1.94.71,4.12,1.13,6.32,1.39,4.69.88,9.69,1.04,14.14,1.52,4.16.45,8.32.85,12.48,1.22,4.02.35,8.98.27,11.84,3.59,2.61,3.03.95,6.97-2.89,7.62ZM558.42,68.61c-2.34,2.31-5.33,2.29-8.38,2.43-2.37.11-4.74.09-7.11,0-1.4-.06-2.87-.33-4.26-.1-.53-1.61-1.64-2.78-3.09-3.65.8.08,1.6.16,2.38.25,3.38.38,6.88.77,10.28.54,4.11-.27,9.18-3.17,7.67-7.84,1.68.39,3.35.84,4.99,1.34.04.04.09.08.16.11.05.02.1.04.16.07.6,2.65-.96,5.05-2.79,6.86ZM581.96,53.79c-.86,1.01-2.29,1.43-3.93,1.57-1.34.05-2.69,0-4.04-.1-1.84-.18-3.58-.46-4.79-.51-1.46-.07-2.92-.11-4.38-.16-2.1-.16-4.19-.34-6.28-.54-6.67-.64-13.32-1.5-19.97-2.33-13.32-1.67-26.68-3.36-40.14-3.02-.12,0-.1.17,0,.18,14.81.8,29.5,2.82,44.21,4.69,6.91.88,13.82,1.72,20.77,2.24,3.54.26,7.09.44,10.64.49,1.06.01,2.14.08,3.19.04,1.77.09,3.54-.09,4.63-1.26-.14,2-.24,4-.29,6-.12,1.01-.14,2.06-.07,3.11,0,1.87.02,3.75.09,5.61.04,1.07.1,2.21.21,3.37-9.81-14.8-32.34-15.98-48.17-18.39-22.27-3.39-44.67-5.78-67.09-7.92-10.85-1.03-21.71-2.02-32.57-2.93-2.56-.22-6.03-.58-7.11,2.44-.4,1.11-.22,2.26.21,3.35.16,1.09.55,2.08,1.1,3,1.93,4.62,7.64,8.51,11.62,9.82,7.1,2.34,15.55,3.08,23.3,2.69,1.47.08,2.94.15,4.39.2.13,1.01.25,2.02.38,3.03-.62.05-1.22.28-1.82.46-.16.03-.31.06-.46.08-2.29.32-4.55.44-6.86.33-4.59-.22-9.09-1.28-13.5-2.51-8.34-2.31-16.44-4.84-20.7-13.06-2.81-5.42-2.15-11.55,4.32-13.51,4.56-1.38,9.84-.2,14.46.27,5.3.54,10.62,1,15.94,1.37,2.21.26,4.43.43,6.65.42.3.02.6.04.89.05,15.56,2.22,31.7,2.39,47.32,2.62,8.81.13,17.63.08,26.44-.19.67-.02,1.33-.05,2-.07,3.86.08,7.73-.16,11.57-.57,1.3-.09,2.73-.06,4.08-.25,3.14-.2,6.44-.65,9.44-1.71,3.61-.74,7.19-1.87,10.04-3.98,1.47-.77,2.9-1.64,4.28-2.66,1.47-1.09,2.81-2.3,4.02-3.62-.29.97-.55,1.93-.81,2.84-1.08,3.78-1.86,7.65-2.42,11.54-.35,2.48-.6,4.98-.81,7.49ZM450,60.38c2.57,1.17,5.6,1.27,8.38,1.71,1.58.25,3.15.48,4.73.66,1.2.27,2.39.57,3.57.89-2.41.05-4.81.07-7.21.02-.67-.06-1.34-.1-2.01-.17-2.77-.29-5.12-.62-7.08-2.04-1.28-1.25-1.52-3.1-.47-4.51.53-.33,1.22-.47,1.98-.51,1.63-.01,3.4.4,4.9.58,2.51.3,5.08.85,7.63.9.73.11,1.45.21,2.19.29.17,1.42.34,2.83.51,4.24-1.01-.15-2.03-.32-3.04-.48-2-.49-4.03-.89-6.06-1.26-2.55-.47-5.25-1.31-7.85-1.09,0,.01,0,.02,0,.03-.37.04-.57.56-.17.74ZM448.44,62.86c-1.39-.19-2.79-.4-4.19-.68-5.1-1.01-9.23-3.17-12.16-6.61-.96-1.46-1.85-3.03-2.4-4.57-.59-1.66-1.19-3.5.52-4.82.42-.33.98-.53,1.57-.68.72-.06,1.44-.04,2.06.01,3.24.27,6.47.57,9.71.86,6.26.55,12.51,1.11,18.77,1.69,1.07.1,2.14.22,3.22.32.27,2.72.57,5.44.88,8.16-.94.34-2.44-.02-3.26-.11-.29-.03-.58-.08-.88-.12-2.36-.45-4.81-.61-7.11-.85-2.45-.25-5.54-.92-7.69.64-2.92,2.12-1.4,5.02.96,6.78ZM585.26,81.32s0-.05-.01-.07c-.26-1.32-.66-2.6-1.16-3.85-.3-1.51-.48-3.06-.59-4.56.07-.04.14-.09.21-.13.24.05.5-.02.7-.24,2.51-2.77,4.86-5.19,5.88-8.87.14-.51.28-1.03.41-1.55.66-2.02,1.04-4.14,1.16-6.28.21-1.93.27-3.85.09-5.71-.4-4-.87-8.1-1.43-12.09-.36-2.59-.96-5.14-2.68-7.14.09-.28.17-.56.27-.84.13-.38.27-.83.42-1.31.66-1,1.27-2.05,1.8-3.15.05-.09.08-.17.11-.25,1.14,5.01,2.79,9.79,3.29,15,.47,4.9.4,9.87.04,14.78-.39,5.34-1.14,10.67-2.22,15.91-.9,4.37-2.23,8.66-5.61,11.71-.24-.44-.47-.89-.67-1.37ZM595.21,69.15c-.8,3.63-1.75,7.39-3.01,10.97-1.08,2.02-2.62,3.53-4.98,3.74,6.71-6,7.13-17.51,7.78-25.77.5-6.36.38-12.74-.48-19.06-.65-4.77-1.47-10.12-3.77-14.45.16-.33.32-.5.67-.6.9-.08,2.14.56,3.71,1.9.24.95.34,2.04.52,2.9.63,3.15,1.1,6.32,1.41,9.52.99,10.29.38,20.75-1.85,30.85Z"/>
        </g>
        <g>
          <path class="cls-18" d="M470.66,20.2c-.21.91-1.11,1-1.16,1.93-.05.94-.02,1.88-.19,2.8s-.58,1.84-1.34,2.4-1.9.64-2.6,0c-.56-.51-.7-1.41-.33-2.07s1.22-1,1.94-.78c-.26-1.56-.52-3.13-.34-4.7s.84-3.15,2.11-4.08c.21-.15.44-.29.7-.32.27-.03.53.06.78.16,2.18.94,3.56,3.36,3.84,10.92"/>
          <path class="cls-22" d="M470.18,20.06c-.12.43-.45.64-.73.96s-.41.68-.45,1.1c-.11,1.27.06,2.62-.53,3.8-.45.91-1.65,1.84-2.66,1.11-1.07-.78-.17-2.36,1.04-2.07.4.1.68-.24.62-.62-.32-1.96-.66-4.02-.01-5.95.27-.8.72-1.56,1.36-2.12.42-.36.77-.48,1.29-.25.15.07.3.15.44.24,1.53.93,2.09,2.84,2.43,4.48.39,1.87.51,3.8.59,5.71.03.64,1.03.64,1,0-.08-1.97-.21-3.96-.61-5.9-.24-1.2-.6-2.43-1.25-3.48-.46-.74-1.09-1.38-1.87-1.79-.71-.38-1.45-.57-2.18-.12-.78.48-1.41,1.28-1.8,2.1-1.13,2.32-.76,4.91-.35,7.37l.62-.62c-1.41-.34-2.86.68-2.77,2.19s1.61,2.37,3.02,1.97c1.61-.45,2.33-2.14,2.52-3.67.05-.43.07-.86.09-1.29s-.08-.99.12-1.37c.14-.25.41-.44.6-.66.22-.25.36-.53.45-.85.18-.62-.79-.88-.96-.27h0Z"/>
        </g>
        <g>
          <path class="cls-18" d="M478.21,21.24c-.23.98-1.2,1.07-1.25,2.08-.05,1.01-.02,2.03-.2,3.02s-.63,1.98-1.44,2.58-2.05.68-2.8,0c-.6-.54-.76-1.52-.36-2.22s1.31-1.07,2.09-.84c-.28-1.67-.56-3.38-.37-5.06s.9-3.39,2.27-4.4c.22-.17.47-.31.75-.35.29-.03.57.06.84.17,2.33,1,2.31,2.53,3.44,5.61"/>
          <path class="cls-22" d="M477.73,21.11c-.13.46-.49.7-.79,1.05s-.43.71-.47,1.15c-.12,1.38.06,2.83-.58,4.12-.49,1-1.82,2-2.92,1.2-1.19-.86-.19-2.62,1.15-2.29.4.1.68-.24.62-.62-.3-1.81-.63-3.72-.25-5.55.14-.7.38-1.38.75-2s1.04-1.57,1.79-1.61c1.02-.06,2.03,1.04,2.44,1.88.55,1.11.82,2.36,1.24,3.52.22.6,1.18.34.96-.27-.5-1.37-.79-2.94-1.58-4.19-.63-1-2.15-2.23-3.41-1.92-1.64.4-2.68,2.47-3.06,3.95-.55,2.12-.19,4.33.17,6.45l.62-.62c-1.5-.36-3.03.72-2.94,2.32s1.78,2.54,3.29,2.06c1.64-.52,2.39-2.23,2.59-3.82.06-.48.09-.97.1-1.46.01-.45-.08-1.08.14-1.49.15-.28.45-.48.65-.71.23-.27.38-.56.48-.9.18-.62-.79-.88-.96-.27h0Z"/>
        </g>
        <g>
          <path class="cls-18" d="M486.05,20.38c-.23.98-1.2,1.07-1.25,2.08-.05,1.01-.02,2.03-.2,3.02s-.63,1.98-1.44,2.58-2.05.68-2.8,0c-.6-.54-.76-1.52-.36-2.22s1.31-1.07,2.09-.84c-.28-1.67-.56-3.38-.37-5.06s.9-3.39,2.27-4.4c.22-.17.47-.31.75-.35.29-.03.57.06.84.17,2.33,1,2.31,2.53,3.44,5.61"/>
          <path class="cls-22" d="M485.56,20.25c-.13.46-.49.7-.79,1.05s-.43.71-.47,1.15c-.12,1.38.06,2.83-.58,4.12-.49,1-1.82,2-2.92,1.2-1.19-.86-.19-2.62,1.15-2.29.4.1.68-.24.62-.62-.3-1.81-.63-3.72-.25-5.55.14-.7.38-1.38.75-2s1.04-1.57,1.79-1.61c1.02-.06,2.03,1.04,2.44,1.88.55,1.11.82,2.36,1.24,3.52.22.6,1.18.34.96-.27-.5-1.37-.79-2.94-1.58-4.19-.63-1-2.15-2.23-3.41-1.92-1.64.4-2.68,2.47-3.06,3.95-.55,2.12-.19,4.33.17,6.45l.62-.62c-1.5-.36-3.03.72-2.94,2.32s1.78,2.54,3.29,2.06c1.64-.52,2.39-2.23,2.59-3.82.06-.48.09-.97.1-1.46.01-.45-.08-1.08.14-1.49.15-.28.45-.48.65-.71.23-.27.38-.56.48-.9.18-.62-.79-.88-.96-.27h0Z"/>
        </g>
        <g>
          <path class="cls-22" d="M458.25,49.17s.01-.02.02-.03c.07-.11.24-.12.36-.07.36.14.46.61.46,1,0,1.07-.3,2.11-.24,3.18.05.85.3,1.71.84,2.37,1.18,1.46,4.43,1.44,5.23-.47.51-1.2.28-2.4.24-2.98-.06-.89-.16-1.75.04-2.64.04-.17.09-.35.21-.48s.32-.2.47-.11c.19.11.19.37.18.59-.05.92-.06,1.83-.01,2.75.06,1.07.17,2.19-.24,3.19-.88,2.09-3.78,2.73-5.73,1.89-1.21-.53-1.64-1.54-2.03-2.7-.17-.5-.17-1.7,0-2.75.14-.84.11-1.72.15-2.57,0-.06,0-.13.03-.18Z"/>
          <path class="cls-22" d="M461.89,57.97c-.67,0-1.33-.13-1.9-.38-1.3-.56-1.75-1.62-2.17-2.85-.19-.55-.19-1.78,0-2.87.1-.56.11-1.16.12-1.74,0-.27.01-.54.03-.8,0-.07,0-.17.05-.27h0s.02-.05.04-.07c.13-.19.4-.26.65-.16.39.15.61.59.62,1.23,0,.51-.06,1-.12,1.49-.08.58-.15,1.12-.11,1.68.04.63.2,1.52.78,2.23.56.69,1.74,1.07,2.86.91.95-.13,1.66-.61,1.96-1.32.41-.96.31-1.92.25-2.55-.01-.12-.02-.22-.03-.31l-.02-.35c-.05-.76-.11-1.55.07-2.36.05-.2.11-.42.26-.59.18-.2.51-.31.78-.15.34.2.31.65.3.82-.05.9-.06,1.82-.01,2.72l.02.33c.06.99.12,2.02-.28,2.96-.38.9-1.15,1.62-2.17,2.03-.62.25-1.31.37-1.98.37ZM458.47,49.29s0,.06,0,.08c-.01.26-.02.52-.03.79-.01.6-.03,1.21-.13,1.81-.17.98-.18,2.16-.02,2.63.39,1.15.78,2.07,1.9,2.55,1.04.45,2.38.45,3.51,0,.64-.26,1.48-.77,1.9-1.76.35-.84.3-1.81.24-2.75l-.02-.33c-.05-.92-.04-1.86.01-2.78.02-.26-.02-.34-.06-.36-.03-.02-.11,0-.17.06-.07.08-.11.2-.15.36-.17.74-.12,1.46-.06,2.22l.02.35c0,.09.02.18.03.3.06.64.17,1.72-.29,2.79-.37.86-1.22,1.45-2.34,1.61-1.3.18-2.63-.25-3.31-1.08-.66-.81-.85-1.82-.89-2.51-.04-.61.04-1.2.12-1.78.06-.49.12-.95.12-1.42,0-.2-.03-.66-.3-.77-.03-.01-.05-.01-.07,0Z"/>
        </g>
        <g>
          <path class="cls-18" d="M465,54.81c-.87.46-1.73.96-2.43,1.65s-1.22,1.61-1.25,2.59c-.02.69.19,1.41-.06,2.06-.22.56-.81.96-1.42.95-.48,0-.93-.25-1.31-.54-.8-.61-1.41-1.54-1.45-2.55s.61-2.06,1.58-2.31c.2-.05.4-.07.58-.16.23-.12.4-.33.55-.55,1-1.39,1.95-2.93,3.47-3.71.39-.2.82-.36,1.15-.65.17-.15.31-.35.52-.45"/>
          <path class="cls-22" d="M464.75,54.38c-1.41.75-2.87,1.66-3.56,3.17-.34.74-.39,1.46-.33,2.26.03.43.09.93-.17,1.31-.24.34-.67.5-1.07.41-1.52-.34-2.64-2.5-1.64-3.82.47-.62,1.2-.5,1.76-.94s.96-1.24,1.4-1.83c.52-.7,1.09-1.41,1.81-1.92.37-.26.78-.44,1.18-.64s.69-.56,1.07-.81c.54-.34.04-1.21-.5-.86-.38.24-.66.59-1.07.81s-.81.38-1.18.64c-.73.51-1.32,1.16-1.86,1.86-.28.37-.55.74-.82,1.12s-.49.84-.94.97c-.82.25-1.46.57-1.88,1.36-.85,1.59-.06,3.41,1.28,4.44.69.53,1.55.84,2.39.49s1.22-1.08,1.26-1.92c.03-.57-.12-1.13-.03-1.7s.33-1.05.66-1.49c.7-.93,1.74-1.51,2.75-2.04.57-.3.06-1.17-.5-.86h0Z"/>
        </g>
        <g>
          <path class="cls-22" d="M466.07,49.54c-.05.92-.06,1.83-.01,2.75.06,1.08.17,2.2-.24,3.18-.57,1.37-1.99,2.1-3.47,2.22h0c.03-.05.05-.09.08-.13.03-.04.05-.09.08-.13.11-.21.21-.41.24-.56h0s.4-.33.4-.33c.79-.18,1.48-.64,1.79-1.38.51-1.19.28-2.4.24-2.97-.05-.9-.15-1.76.04-2.65.05-.17.09-.34.21-.47.12-.14.32-.2.47-.11.18.11.19.37.18.59Z"/>
          <path class="cls-22" d="M466.31,49.56c-.05.9-.06,1.81-.01,2.71l.02.33c.05,1,.11,2.03-.28,2.97-.38.89-1.15,1.61-2.17,2.03-.53.2-1.1.3-1.68.34.04-.08.1-.17.14-.26h0s.05-.09.07-.13c.03-.04.05-.09.08-.13.41-.05.82-.13,1.19-.28.64-.26,1.48-.77,1.9-1.76.35-.84.29-1.81.24-2.75v-.32c-.06-.93-.06-1.86,0-2.78.01-.26-.02-.34-.06-.36-.03-.03-.11,0-.16.06-.07.07-.11.2-.15.36-.16.73-.11,1.45-.06,2.21l.02.35c0,.09.01.19.03.29.06.64.16,1.73-.29,2.8-.36.86-1.21,1.45-2.34,1.61h-.07s0,0,0,0l.4-.32.28-.23.28-.23c.46-.24.82-.59,1.01-1.02.4-.96.31-1.92.24-2.55l-.05-.66c-.05-.76-.11-1.55.07-2.36.05-.2.12-.41.27-.59.17-.2.5-.31.78-.15.34.2.31.65.3.82Z"/>
        </g>
      </g>
      <path class="cls-2" d="M317.83,150.58c.9,1.04,1.11,2.61,1.47,3.9.48,1.72,1.12,3.38,1.49,5.13.51,2.33.77,4.71,1,7.08.46,4.81.74,9.73,2.49,14.28,1.26,3.29,3.3,6.44,3.29,9.96,0,.33-.02.68.13.99.3.62,1.22.75,1.79.35s.79-1.15.74-1.84-.17-3.6-.44-4.24c-3.14-7.43-4.16-11.17-4.61-19.22,1.25.67.94.06,1.53,1.36,3.01,6.64,4.91,13.57,6.65,20.63.16.64.32,1.3.75,1.8s1.19.78,1.75.44c1.94-1.17.06-5.81-.39-7.21-.94-2.94-1.48-4.51-2.31-7.47-1.09-3.88-3.41-8.01-5.26-11.57-.12-.24-.25-.49-.22-.75.06-.56.77-.81,1.34-.73,1.52.2,2.5,1.65,3.29,2.97,1.32,2.2,2.63,4.41,3.67,6.76s1.48,4.86,2.25,7.3c.3.94.7,1.83,1.04,2.76.33.91.93,1.98,1.44,2.8.47.75,1.55,1.3,2.2.71.23-.21.35-.53.41-.84.29-1.55-1.04-3.3-1.54-4.76-.62-1.81-1.06-3.67-1.54-5.51-.75-2.88-1.55-5.83-3.17-8.37-1.71-2.68-2.24-3.03-4.48-5.19-.2-.19-2.59-1.56-2.58-1.84.02-.61.77-.88,1.38-.96,5.8-.79,11.69,2.81,16.19,6.55.58.48,3.78.73,3.7-1.34-.04-1.03-1.83-1.86-2.6-2.27-2.58-1.38-4.74-3.59-7.48-4.67-3-1.19-6.39-.95-9.49-1.78-.58-.16-1.16-.36-1.64-.74-.42-.33-.73-.78-1.01-1.24-1.23-1.95-2.7-4.7-3.1-7-.12-.69.15-1.29-.28-1.88v-.15"/>
      <path class="cls-22" d="M346.93,71.01c0-.2.02-.39.04-.59l-.04.27c.04-.27.09-.54.17-.81.03-.11.07-.23.11-.34.03-.07.06-.15.08-.22.07-.18-.09.21,0,.02.11-.23.22-.46.36-.68.07-.12.15-.23.23-.34.12-.17-.15.18-.01.02.05-.06.1-.12.15-.18.18-.2.29-.43.29-.71,0-.25-.11-.54-.29-.71-.38-.34-1.05-.42-1.41,0-1.03,1.19-1.63,2.68-1.67,4.26-.01.52.47,1.02,1,1s.99-.44,1-1h0Z"/>
      <path class="cls-22" d="M442.99,91.18c1.52-.37,2.72,1.36,3.37,2.47.88,1.5,1.67,3.06,2.49,4.59l.79-.61c-2.16-2.29-4.41-4.49-6.74-6.6l-.49.84c1.57.33,2.94,1.17,3.96,2.41.36.43,1.12-.15.79-.61-.65-.87-1.29-1.74-1.94-2.61-.16-.22-.43-.32-.68-.18-.22.12-.34.47-.18.68.65.87,1.29,1.74,1.94,2.61l.79-.61c-1.12-1.35-2.69-2.3-4.4-2.66-.46-.1-.88.48-.49.84,2.33,2.11,4.58,4.31,6.74,6.6.4.42,1.05-.12.79-.61-.49-.92-.99-1.83-1.48-2.75-.42-.79-.83-1.59-1.31-2.34-.89-1.38-2.39-2.88-4.2-2.44-.63.15-.36,1.12.27.96h0Z"/>
      <path class="cls-22" d="M447.46,93.94c-.79-1.47-1.94-2.73-3.33-3.66-.22-.15-.55-.04-.68.18-.14.25-.05.53.18.68,1.24.83,2.26,1.97,2.97,3.3.13.24.46.31.68.18.24-.14.31-.44.18-.68h0Z"/>
      <path class="cls-22" d="M444.92,92.84l3.59,3.6c.39.39,1.11-.12.79-.61-1.56-2.31-3.35-5.01-2.57-7.93l-.98-.13c.04,1.01.08,2.03.11,3.04s.05,1.99.34,2.94c.52,1.68,1.7,3.03,2.84,4.32.32.36,1.02-.02.84-.49-.45-1.13-.9-2.27-1.35-3.4-.24-.59-1.2-.33-.96.27.45,1.13.9,2.27,1.35,3.4l.84-.49c-1.06-1.2-2.19-2.46-2.63-4.04-.24-.88-.24-1.8-.27-2.71-.04-.95-.07-1.9-.11-2.85-.02-.55-.83-.69-.98-.13-.85,3.21.95,6.14,2.67,8.7l.79-.61-3.59-3.6c-.46-.46-1.16.25-.71.71h0Z"/>
      <path class="cls-22" d="M393.29,83.51c2.69-1.42,4.77-3.81,5.85-6.65.1-.25-.11-.55-.35-.62-.28-.08-.52.1-.62.35-.99,2.59-2.94,4.75-5.39,6.05-.57.3-.06,1.16.5.86h0Z"/>
      <path class="cls-22" d="M390.61,5.7c.08.01.16.04.23.05.13.02-.09-.06.03,0,.13.07.26.14.38.21.26.15.53.29.8.42.56.27,1.14.5,1.69.8.24.13.48.27.7.43.02.01.16.12.07.05-.1-.08.08.07.1.08.1.08.19.17.28.26.04.04.08.08.11.12.06.07.11.14.03.03.07.1.14.2.21.31.03.05.05.1.08.15.04.09.05.16.01.03.04.13.08.26.11.4.1.51.74.86,1.23.7.54-.18.81-.68.7-1.23-.27-1.31-1.31-2.32-2.43-2.96-.59-.33-1.21-.59-1.82-.87s-1.27-.79-1.97-.91c-.51-.09-1.1.14-1.23.7-.11.49.15,1.13.7,1.23h0Z"/>
      <path class="cls-22" d="M368.88,13.43c-.11,3.87,2.17,7.66,5.66,9.36.58.28,1.08-.58.5-.86-3.19-1.55-5.26-4.95-5.16-8.5.02-.64-.98-.64-1,0h0Z"/>
      <path class="cls-22" d="M404.54,21.89c-.59-1.09-1.82-1.8-3.06-1.76-.39.01-.61.41-.43.75.58,1.13,1.9,1.72,3.12,1.5.26-.05.43-.37.35-.62-.09-.28-.34-.4-.62-.35-.02,0-.12.02-.04,0s-.04,0-.04,0c-.06,0-.11,0-.17,0-.06,0-.12,0-.19,0-.02,0-.08-.02-.09,0,.02,0,.1.02.02,0-.12-.02-.24-.05-.36-.09-.05-.02-.11-.04-.16-.06-.06-.02.08.04,0,0-.03-.01-.06-.03-.08-.04-.11-.05-.21-.11-.3-.18,0,0-.06-.03-.06-.04.05.04.06.04.03.02,0,0-.02-.02-.03-.02-.05-.04-.09-.08-.14-.12-.04-.04-.08-.08-.12-.12-.02-.02-.04-.05-.06-.07-.04-.05-.05-.04,0,0-.08-.07-.15-.22-.19-.32l-.43.75c.13,0,.26,0,.39.01.08,0,0-.01-.02,0,0,0,.08.01.1.02.06.01.13.03.19.04.12.03.24.07.35.11s-.06-.03,0,0c.03.01.06.03.09.04.06.03.12.06.17.09.05.03.1.06.15.09.03.02.05.04.08.05.01,0,.1.07.04.03s.04.03.04.03c.03.02.05.04.07.06.04.04.09.08.13.12.05.05.09.09.13.14.02.02.04.05.06.07.05.05-.07-.1,0,0s.14.21.21.33c.12.23.46.32.68.18.23-.15.31-.44.18-.68h0Z"/>
      <path class="cls-22" d="M416.6,19.46c.09-.34-.07-.67-.36-.86-.12-.08-.27-.12-.41-.12-.07,0-.15.01-.22.03-.19.06-.32.18-.39.37-.16.45-.23.93-.25,1.41,0,.11.04.22.11.3s.16.16.26.18c.22.05.44-.04.56-.23.25-.38.43-.81.52-1.26.03-.13.02-.27-.05-.39-.06-.1-.18-.2-.3-.23-.13-.03-.27-.02-.39.05-.11.07-.2.17-.23.3-.04.21-.11.41-.19.6l.05-.12c-.08.19-.17.37-.29.54l.93.25c0-.14.02-.27.04-.41l-.02.13c.04-.29.11-.58.2-.87l-.23.3s.03-.01.04-.02l-.12.05s.04-.01.06-.01l-.13.02s.04,0,.06,0l-.13-.02s.05.01.07.02l-.12-.05s.05.03.08.05l-.1-.08s.04.04.06.06l-.08-.1s.03.04.04.06l-.05-.12s.01.04.01.06l-.02-.13s0,.04,0,.06l.02-.13s0,.02,0,.03c-.03.13-.02.27.05.39.06.1.18.2.3.23.26.06.55-.08.62-.35h0Z"/>
      <path class="cls-22" d="M376.57,44.13l5-1.91c1.51-.58,3.13-1.43,4.78-1.36.97.04.96-1.46,0-1.5-1.75-.07-3.4.73-5,1.34l-5.19,1.98c-.89.34-.51,1.79.4,1.45h0Z"/>
      <path class="cls-22" d="M390.02,40c1.7-.8,3.57-1.17,5.44-1.14.97.02.97-1.48,0-1.5-2.15-.04-4.26.43-6.2,1.34-.37.17-.46.7-.27,1.03.22.38.66.44,1.03.27h0Z"/>
      <path class="cls-22" d="M348.95,37.75c.29-.04.51.04.65.25.04.11.06.14.04.08-.01-.06,0-.03.01.09,0-.03,0-.06,0-.09.03.03-.04.2.01.01.02-.06.03-.12.05-.18.07-.26.15-.51.24-.76.02-.06.04-.12.06-.17s.07-.17.02-.05c.06-.13.12-.26.18-.38.06-.11.12-.21.19-.31.03-.05.07-.1.1-.15-.11.14.03-.03.06-.06.05-.06.18-.23.26-.25l-.07.05s.06-.04.09-.06c.04-.03.09-.06.14-.08s.09-.05.14-.08c.03-.02.06-.03.1-.04-.09.04-.11.05-.06.03.11-.03.22-.07.33-.09.03,0,.05-.01.08-.01.06,0,.03,0-.07,0,0-.02.13,0,.15,0,.06,0,.12,0,.18,0,.19.01-.12-.04.02,0,.05.01.1.02.14.04.02,0,.05.02.07.02.05.02.03.01-.06-.03,0,0,.11.06.13.07.03.02.06.04.08.06-.08-.07-.09-.07-.03-.02.29.26.78.31,1.06,0,.26-.28.31-.78,0-1.06-.89-.79-2.23-.75-3.18-.09s-1.45,1.84-1.78,2.97c-.1.35-.18.69-.09,1.04.14.53.62.8,1.15.7.39-.07.64-.56.52-.92-.13-.41-.51-.6-.92-.52h0Z"/>
      <path class="cls-22" d="M350.14,41.5c-.04.14-.09.27-.14.41-.01.03-.03.07-.04.1.01-.03.06-.15.02-.05-.03.06-.06.12-.09.18-.12.26-.27.51-.43.74-.04.06-.08.11-.12.17-.02.02-.04.05-.05.07.12-.17.05-.06.02-.03-.09.11-.18.22-.28.32-.2.21-.41.4-.63.58-.14.11-.22.36-.22.53,0,.18.08.4.22.53s.33.23.53.22c.21,0,.37-.09.53-.22,1.01-.8,1.75-1.93,2.13-3.16.12-.38-.14-.83-.52-.92-.41-.09-.8.12-.92.52h0Z"/>
      <path class="cls-22" d="M402.58,38.16c.97,0,.97-1.5,0-1.5s-.97,1.5,0,1.5h0Z"/>
      <path class="cls-22" d="M402.59,38.23c3.39-.27,6.77-.57,10.16-.8,1.72-.12,3.34-.02,5.03.32,1.49.3,2.97.62,4.5.62.97,0,.97-1.5,0-1.5-1.64,0-3.21-.41-4.82-.7s-3.12-.35-4.72-.23c-3.39.24-6.78.54-10.16.8-.96.08-.96,1.58,0,1.5h0Z"/>
      <path class="cls-22" d="M323.77,73.41c.19-2.24,1.39-4.41,3.22-5.71,2.01-1.43,4.6-1.8,6.94-1.09.93.28,1.32-1.16.4-1.45-2.76-.84-5.9-.38-8.23,1.34s-3.6,4.17-3.83,6.91c-.08.96,1.42.96,1.5,0h0Z"/>
      <path class="cls-22" d="M338.94,63.09c-3-2-5-5.26-5.51-8.82-.06-.4-.57-.62-.92-.52-.43.12-.58.52-.52.92.57,3.94,2.89,7.51,6.2,9.71.81.54,1.56-.76.76-1.3h0Z"/>
      <path class="cls-22" d="M354.53,69.82c2.15-.68,4.38-.67,6.52.04.51.17,1.09-.2,1.23-.7.15-.54-.18-1.06-.7-1.23-2.44-.8-5.13-.81-7.58-.04-.51.16-.85.7-.7,1.23.14.51.71.86,1.23.7h0Z"/>
      <path class="cls-22" d="M355.01,171c-.15-.56-.7-.79-1.23-.7-1.09.19-2.19.29-3.3.28-1.55,0-3.16-.05-4.69-.33-2.68-.5-4.49-2.75-7.09-3.46-1.27-.35-1.69,1.46-.53,1.93.05.02.1.05.15.07.08.35.35.63.7.76.71.27.98,1.22,1.15,1.99-.09.21-.18.42-.26.64-.09.21-.19.41-.27.63-.06.18-.04.36.02.54-.03.06-.06.12-.08.19-.36.91,1.07,1.75,1.67.97.45-.57.69-1.19.93-1.85.2-.37.42-.73.65-1.07.06-.02.13-.02.2.03.22.14.49.16.73.1.62.24,1.26.43,1.94.53,2.85.42,5.76.47,8.6-.02.53-.09.83-.75.7-1.23Z"/>
      <path class="cls-22" d="M342.98,169.95c-.13-.31-.35-.45-.65-.58-.3-.13-.62-.21-.94-.32-.08-.03-.16-.06-.24-.09,0,0-.02,0-.03-.01-.07-.03-.38-.17-.41-.19-.02-.01-.05-.03-.07-.04-.02-.08-.04-.15-.07-.23-.21-.47-.76-.61-1.23-.48-.03-.02-.06-.03-.08-.05,0,0-.02-.01-.03-.02-.02-.02-.04-.05-.07-.07-.16-.15-.46-.26-.66-.25-.23.01-.43.08-.61.21-.39.3-.51.85-.26,1.29.04.08.1.14.16.2,0,0,0,0,0,0,.01.02.03.03.04.05,0,0,0,0,.01.01.04.05.08.1.12.14.12.12.26.19.41.23.11.06.21.12.31.17.08.05.17.09.26.14.05.1.11.19.16.29.02.04.04.09.07.13.02.06.03.11.04.17,0,.05,0,.1,0,.15,0-.03,0-.06.01-.09,0,0,0,0,0,0-.02.23,0,.43.11.65.12.21.36.41.6.46.38.09.76-.04,1-.31.19,0,.38.03.57.03.2,0,.42-.03.61-.1.35-.13.58-.33.8-.63.19-.25.16-.62.05-.89Z"/>
      <path class="cls-22" d="M368.25,151.37c-.67.91-.84,2.07-1.47,3.02-.55.83-1.33,1.49-2.21,1.95-.96.49-2.07.63-3.12.81-1.17.2-2.32.47-3.33,1.11-1.09.68-.09,2.41,1.01,1.73.99-.62,2.15-.79,3.28-.98,1.2-.21,2.38-.48,3.45-1.09,1.01-.58,1.85-1.38,2.52-2.32.34-.47.59-.99.81-1.52.24-.59.41-1.17.79-1.69.32-.44.07-1.12-.36-1.37-.51-.3-1.05-.08-1.37.36h0Z"/>
      <path class="cls-22" d="M341.83,77.47c-.24,2.95.78,5.89,2.71,8.12.35.41,1.05.36,1.41,0,.4-.4.35-1,0-1.41-1.6-1.84-2.33-4.28-2.13-6.7.04-.54-.49-1-1-1-.58,0-.96.46-1,1h0Z"/>
      <path class="cls-22" d="M339.99,81.45c-.15,2.65.44,5.29,1.65,7.64.25.48.92.62,1.37.36.49-.29.61-.89.36-1.37-1.05-2.06-1.5-4.33-1.37-6.63.03-.54-.48-1-1-1-.57,0-.97.46-1,1h0Z"/>
      <path class="cls-22" d="M337.93,85.01c-.71,2.83-.4,5.79.84,8.43.23.49.93.61,1.37.36.5-.29.59-.88.36-1.37-1-2.14-1.21-4.61-.64-6.88.31-1.25-1.61-1.78-1.93-.53h0Z"/>
      <path class="cls-22" d="M336.75,87.64c-.51-.05-.98.28-1.22.7s-.26.91-.32,1.38c-.12.97-.23,1.94-.21,2.91.03,1.86.51,3.64,1.68,5.11.34.42,1.06.35,1.41,0,.42-.42.34-.99,0-1.41-.71-.89-1.01-2.09-1.08-3.21-.04-.7-.01-1.41.05-2.1.03-.38.08-.75.12-1.13.02-.15.06-.33.06-.48.01.04.02,0,.03-.1-.07.2-.25.31-.52.34.54.06,1-.5,1-1,0-.59-.46-.94-1-1h0Z"/>
      <path class="cls-22" d="M333.8,90.72c-1.13,1.23-1.14,2.88-1.06,4.45.09,1.67.26,3.38,1.13,4.85.66,1.11,2.39.1,1.73-1.01s-.78-2.43-.85-3.7c-.06-1.07-.22-2.42.47-3.17.87-.95-.54-2.37-1.41-1.41h0Z"/>
      <path class="cls-22" d="M330.8,94.45c-.97.97-.95,2.37-.71,3.62.27,1.41.73,2.77,1.29,4.1.21.5.94.61,1.37.36.51-.3.57-.87.36-1.37-.42-.99-.78-2.17-1.02-3.28-.03-.13-.05-.26-.08-.39,0-.04-.06-.41-.04-.2-.02-.22-.04-.44-.03-.66,0-.05.06-.41.01-.19.02-.09.05-.17.06-.26.04-.11.04-.11,0,0,.02-.05.05-.11.08-.16.06-.09.06-.1,0-.01.04-.05.08-.09.13-.13.38-.38.38-1.03,0-1.41s-1.03-.38-1.41,0h0Z"/>
      <path class="cls-22" d="M327.93,98.44c-.6,2.56-.11,5.34,1.4,7.5.31.44.88.65,1.37.36.44-.26.67-.92.36-1.37-.66-.95-1.03-1.81-1.26-2.93-.18-.92-.16-2.1.06-3.03.12-.53-.16-1.08-.7-1.23-.51-.14-1.11.17-1.23.7h0Z"/>
      <path class="cls-22" d="M325.68,100.06c-1.01,2.26-.85,5,.65,7.02.31.42.88.67,1.37.36.41-.27.69-.92.36-1.37-.15-.2-.29-.41-.41-.62-.06-.11-.12-.22-.17-.33-.03-.06-.05-.11-.08-.17.04.1.04.09,0-.02-.08-.23-.16-.47-.22-.71-.03-.12-.06-.24-.08-.36-.01-.06-.02-.12-.03-.18.01.11.01.11,0-.01-.02-.25-.04-.5-.04-.75,0-.12,0-.25.02-.37,0-.04.05-.42.02-.2.04-.25.09-.49.16-.73.03-.12.07-.24.11-.35.02-.06.04-.12.07-.17-.04.1-.04.09,0-.02.21-.48.15-1.1-.36-1.37-.44-.23-1.14-.15-1.37.36h0Z"/>
      <path class="cls-22" d="M323.26,103.35c-.73,2.01-.41,4.4.83,6.14.3.43.89.67,1.37.36.42-.27.68-.91.36-1.37-.13-.19-.25-.38-.36-.58-.05-.1-.11-.2-.15-.3-.02-.05-.05-.1-.07-.16.05.11.05.11,0,0-.07-.22-.15-.43-.21-.65-.03-.11-.05-.22-.07-.33,0-.03-.06-.34-.04-.2s-.02-.18-.02-.21c0-.11-.01-.23-.02-.34,0-.23.01-.45.03-.68.01-.12.01-.11,0,.01,0-.06.02-.11.03-.17.02-.11.04-.22.07-.33.05-.22.12-.44.2-.65.18-.49-.2-1.12-.7-1.23-.56-.13-1.04.17-1.23.7h0Z"/>
      <path class="cls-22" d="M320.29,106.06c-.09,2.1.73,4.2,2.2,5.7.37.37,1.05.39,1.41,0s.39-1.01,0-1.41c-.15-.15-.29-.32-.43-.48-.07-.08-.04-.06,0,.01-.03-.04-.06-.09-.1-.13-.06-.09-.12-.18-.18-.27-.12-.18-.22-.37-.32-.56-.05-.1-.09-.19-.14-.29s-.03-.06,0,.02c-.02-.06-.05-.13-.07-.19-.15-.4-.26-.82-.34-1.25,0-.02-.03-.2-.01-.07s0-.04,0-.07c-.01-.11-.02-.21-.03-.32-.01-.23-.01-.46,0-.69.02-.52-.48-1.02-1-1-.56.03-.97.44-1,1h0Z"/>
      <path class="cls-22" d="M317.73,107.74c-.1,1.8.63,3.62,1.92,4.88.37.37,1.05.4,1.41,0s.4-1.02,0-1.41c-.13-.12-.25-.25-.37-.39-.03-.03-.05-.08-.08-.1.16.13.07.09.01.02s-.1-.15-.15-.22c-.1-.15-.19-.3-.27-.46-.04-.08-.08-.16-.12-.24-.01-.03-.07-.17-.02-.03.06.15-.02-.05-.03-.07-.13-.33-.22-.68-.28-1.03,0-.04,0-.09-.02-.13.01.05.02.2.01.07,0-.1-.02-.2-.02-.3,0-.19,0-.38,0-.57.03-.52-.48-1.02-1-1-.57.03-.97.44-1,1h0Z"/>
      <path class="cls-22" d="M316.74,110.16l.34.43c.09.1.2.17.32.21.12.06.25.09.39.09.14,0,.27-.02.39-.09.12-.04.23-.11.32-.21l.16-.2c.09-.16.14-.32.14-.5l-.04-.27c-.05-.17-.13-.32-.26-.44l-.34-.43c-.09-.1-.2-.17-.32-.21-.12-.06-.25-.09-.39-.09-.14,0-.27.02-.39.09-.12.04-.23.11-.32.21l-.16.2c-.09.16-.14.32-.14.5l.04.27c.05.17.13.32.26.44h0Z"/>
      <path class="cls-22" d="M303.79,122.14c.22.16.26.27.22.55h-1.93c1.01,3.18,3.57,5.74,6.77,6.72.5.15,1.11-.18,1.23-.7.12-.54-.16-1.07-.7-1.23-.17-.05-.34-.11-.51-.17-.08-.03-.17-.06-.25-.1.19.08-.05-.02-.09-.04-.32-.15-.64-.31-.94-.5-.15-.09-.3-.19-.45-.29-.07-.05-.15-.1-.22-.15-.01-.01-.24-.19-.08-.06-.28-.22-.55-.46-.8-.71s-.49-.52-.71-.79c-.13-.16.07.11-.06-.08-.05-.07-.1-.14-.16-.22-.1-.15-.2-.29-.29-.45-.18-.29-.34-.59-.49-.9-.01-.03-.12-.27-.08-.16s-.06-.14-.07-.17c-.07-.18-.13-.36-.19-.55-.13-.41-.52-.75-.96-.73-.4.02-.9.29-.96.73-.11.73.11,1.28.7,1.71.42.31,1.13.09,1.37-.36.28-.52.09-1.04-.36-1.37h0Z"/>
      <path class="cls-22" d="M301.34,127.2c.79,1.73,2.57,2.97,4.04,4.07,1.55,1.16,3.21,2.17,4.95,3.02.48.24,1.08.13,1.37-.36.26-.44.13-1.13-.36-1.37-1.64-.81-3.22-1.75-4.7-2.84-.7-.51-1.37-1.06-2.02-1.63s-1.2-1.13-1.55-1.91c-.22-.49-.94-.61-1.37-.36-.51.3-.58.87-.36,1.37h0Z"/>
      <path class="cls-22" d="M299.93,130.58c1.14,2.29,2.93,4.24,5.1,5.6.44.28,1.12.11,1.37-.36.26-.49.11-1.07-.36-1.37-.25-.16-.49-.32-.73-.49-.06-.04-.11-.08-.17-.12-.15-.11.06.05-.03-.02-.12-.1-.24-.19-.36-.29-.44-.37-.85-.77-1.24-1.2-.19-.21-.37-.42-.54-.64-.05-.07-.11-.14-.02-.03-.05-.07-.1-.13-.15-.2-.08-.11-.16-.23-.24-.34-.33-.49-.63-1-.89-1.53-.23-.47-.94-.64-1.37-.36-.48.31-.61.87-.36,1.37h0Z"/>
      <path class="cls-22" d="M298.49,133.68c.82,2.49,2.35,4.75,4.41,6.37.41.32,1.02.43,1.41,0,.33-.36.44-1.07,0-1.41-.46-.36-.9-.76-1.31-1.18-.21-.22-.41-.44-.6-.68-.05-.06-.1-.12-.15-.19-.1-.13.08.11-.02-.02s-.19-.26-.28-.39c-.34-.48-.64-.99-.91-1.51-.06-.13-.13-.26-.19-.39-.03-.07-.07-.14-.1-.22-.03-.06-.05-.12-.01-.02-.12-.29-.23-.59-.33-.9-.16-.5-.7-.87-1.23-.7-.49.16-.87.7-.7,1.23h0Z"/>
      <path class="cls-22" d="M296.15,136.17c.04,2.52,1.4,4.91,3.55,6.24.45.28,1.12.11,1.37-.36s.12-1.07-.36-1.37c-.12-.07-.23-.15-.34-.22-.04-.03-.09-.06-.13-.1.11.08.05.04-.02-.02-.19-.16-.37-.32-.54-.5-.09-.1-.19-.2-.27-.3-.04-.04-.07-.08-.1-.13-.08-.09.09.13-.02-.02-.15-.21-.29-.43-.42-.65-.06-.11-.12-.21-.17-.32-.02-.05-.05-.1-.07-.15,0,0-.1-.23-.05-.1s-.03-.08-.04-.11c-.02-.05-.04-.1-.06-.15-.04-.13-.09-.26-.12-.39-.07-.24-.12-.48-.16-.72-.04-.26,0,.13,0-.02,0-.07-.01-.14-.02-.2-.01-.14-.02-.27-.02-.41,0-.52-.45-1.02-1-1s-1.01.44-1,1h0Z"/>
      <path class="cls-22" d="M294.91,139.32c-.79,1.48.27,3.07,1.01,4.36s1.58,2.4,2.73,3.29c.42.32,1.14.08,1.37-.36.28-.53.09-1.03-.36-1.37.08.06,0,0-.04-.03-.05-.04-.1-.09-.15-.13-.11-.1-.22-.2-.33-.31-.19-.19-.36-.39-.53-.6-.11-.13.07.1-.03-.04-.05-.07-.1-.14-.15-.2-.08-.11-.16-.22-.23-.33-.16-.24-.31-.49-.46-.74-.28-.49-.55-.98-.81-1.48-.15-.29-.19-.35-.27-.64,0-.02-.06-.28-.05-.17.01.09,0-.1,0-.12,0-.16-.03.13,0-.03.02-.14-.1.15.03-.08.25-.46.13-1.11-.36-1.37-.46-.25-1.11-.13-1.37.36h0Z"/>
      <path class="cls-22" d="M401.67,78.54c-.47-.25-1.1-.13-1.37.36-.17.31-.36.61-.56.9-.05.08-.11.15-.16.23-.05.06-.25.31-.05.07-.11.14-.22.28-.34.41-.23.27-.48.53-.74.77-.13.12-.26.24-.4.36-.07.06-.14.12-.22.18-.06.05-.31.25-.06.05-.22.17-.38.32-.46.6-.07.24-.04.56.1.77.14.21.34.4.6.46.24.06.56.06.77-.1,1.32-1.01,2.43-2.24,3.24-3.69.26-.46.13-1.11-.36-1.37Z"/>
      <path class="cls-22" d="M405.13,81.6c-.06-.23-.24-.48-.46-.6-.23-.12-.51-.18-.77-.1-.08.03-.16.07-.24.1-.15.09-.26.21-.35.35.02-.03.04-.05.06-.08-.53.69-1.15,1.3-1.84,1.84,0,0,0,0,0,0-.22.16-.39.33-.46.6-.07.24-.04.56.1.77.14.21.34.4.6.46.25.06.56.06.77-.1.47-.35.93-.72,1.35-1.14.42-.42.79-.87,1.15-1.34.15-.19.16-.55.1-.77Z"/>
      <path class="cls-22" d="M407.25,84.5c-.06-.23-.24-.48-.46-.6-.23-.12-.51-.18-.77-.1-.08.03-.16.07-.24.1-.14.08-.25.2-.34.34,0,0,0-.01.01-.02,0,.01-.02.02-.03.03,0,0,0,0,0,0,0,0,0,0,0,0-.22.28-.47.53-.75.75-.2.15-.41.29-.64.41-.22.11-.4.37-.46.6-.07.24-.04.56.1.77.14.21.34.4.6.46.27.06.52.03.77-.1.42-.22.81-.5,1.16-.82.36-.31.66-.68.94-1.07.14-.2.16-.54.1-.77Z"/>
      <path class="cls-22" d="M409.28,85.81c-.12-.21-.36-.41-.6-.46-.26-.06-.54-.05-.77.1-.22.14-.38.34-.46.6-.02.07-.05.13-.07.2-.11.25-.25.49-.41.71-.09.11-.19.22-.29.32-.18.18-.29.45-.29.71s.11.54.29.71c.19.17.44.3.71.29.27-.01.51-.1.71-.29.6-.59,1.03-1.32,1.29-2.11.08-.24.02-.56-.1-.77Z"/>
      <path class="cls-22" d="M411.79,87.55c-.06-.12-.15-.21-.26-.28-.1-.09-.21-.15-.34-.18-.09-.01-.18-.02-.27-.04-.18,0-.35.05-.5.14-.07.05-.13.1-.2.16-.12.12-.21.27-.26.44-.08.32-.15.64-.23.96-.04.13-.05.27-.02.4,0,.13.05.26.12.37.06.12.15.21.26.28.1.09.21.15.34.18l.27.04c.18,0,.35-.05.5-.14.07-.05.13-.1.2-.16.12-.12.21-.27.26-.44.08-.32.15-.64.23-.96.04-.13.05-.27.02-.4,0-.13-.05-.26-.12-.37Z"/>
      <path class="cls-22" d="M304.02,165.71l-.34-.53-1.57,1.21c2.22,2.07,5.07,3.3,8.09,3.52.54.04,1-.49,1-1,0-.57-.46-.96-1-1-2.43-.18-4.87-1.24-6.68-2.94-.36-.34-.92-.39-1.31-.08-.37.3-.53.86-.26,1.29l.34.53c.29.45.89.64,1.37.36.45-.26.65-.91.36-1.37h0Z"/>
      <g>
        <path class="cls-7" d="M86.97,119.19s38.27,15.24,60.89,15.59"/>
        <path class="cls-7" d="M150.1,147.26s-38.01-.03-61.98-11.57"/>
        <path class="cls-7" d="M162.72,158s-26.84,5.15-67.77-6.57"/>
        <path class="cls-7" d="M167.35,169.23s-27.61,7.8-66.39-1.6"/>
        <path class="cls-7" d="M109.02,183.2s36.94,8.39,58.33-1.2"/>
        <path class="cls-7" d="M119.11,196.32s32.23,7.61,52.65-2.33"/>
        <path class="cls-7" d="M176.84,203.69s-15,9.35-44.3,5.28"/>
        <path class="cls-7" d="M183.8,213.13s-3.77,10.67-35.11,10.44"/>
        <path class="cls-7" d="M198.88,230.78s-2.07,10.3-12.57,13.23"/>
        <path class="cls-7" d="M165.07,232.85s18.73,2.01,25.91-9.27"/>
        <path class="cls-7" d="M205.83,250.03s3.1-2.44,7.59-10.83"/>
      </g>
      <g>
        <circle class="cls-8" cx="431.88" cy="182.31" r="5.8"/>
        <circle class="cls-20" cx="431.88" cy="182.31" r="3.37"/>
      </g>
      <g>
        <path class="cls-13" d="M145.44,380.73s34.53-50.92,49.16-85.3"/>
        <path class="cls-14" d="M121,395.37s46.33-59.68,65.32-98.78"/>
        <path class="cls-11" d="M94.95,393.15s67.77-64.68,83.07-94.11"/>
        <path class="cls-10" d="M74.4,386.05s64.97-46.17,97.36-87.01"/>
        <path class="cls-12" d="M57.98,377.18s71.65-40.31,101.75-75.97"/>
        <path class="cls-9" d="M46,362.09s64.94-27.65,102.69-59"/>
        <path class="cls-15" d="M35.35,351.22s79.56-30.96,114.75-56.86"/>
        <path class="cls-16" d="M26.03,335.69s92.17-24.5,126.33-49.79"/>
        <path class="cls-17" d="M26.03,320.26s88.88-17.18,117.23-34.37"/>
      </g>
      <path class="cls-19" d="M413.51,163.22s-.05-.04-.08-.05c-.46-.29-1.02-.33-1.56-.35-2.95-.14-5.93-.39-8.88-.32-3.23.07-6.43.57-9.65.71-3.26.14-6.54.52-9.76,1.07-3.71.62-7.48,1.2-11.09,2.36-3.41,1.11-6.82,2.21-10.23,3.32-3.36,1.09-6.74,2.13-10.24,2.57-3.56.45-7.17.48-10.75.6-.47.02-.76.32-.88.69-.02.05-.05.1-.07.16-.15.53.1.97.32,1.42.19.4.38.8.58,1.21.4.83.79,1.66,1.19,2.49.75,1.56,1.45,3.14,2.48,4.51.34.45,1.06.39,1.41,0,.41-.45.34-1.08,0-1.54-.72-.96-1.24-2.08-1.76-3.19.12-.3.14-.65-.04-.94-.23-.36-.43-.74-.64-1.11,0,0,0,0,0,0,3.05.31,5.93-.56,8.86-1.36,1.48-.4,2.94-.73,4.47-.82,1.49-.09,2.96-.12,4.41-.54.85-.24.86-1.28.4-1.81,3.12-1,6.23-2.02,9.34-3.02,2.93-.95,6.16-2.2,9.26-1.72.47.07.95.2,1.41.09.46-.12.89-.59.79-1.09,2.36-.22,4.71-.56,7.06-.83,7.41-.79,14.89-1.12,22.32-.52,1.04.08,2.87-.83,1.3-1.97Z"/>
    </g>
  </g>
</svg>