<?xml version="1.0" encoding="UTF-8"?>
<svg id="Calque_2" data-name="Calque 2" xmlns="http://www.w3.org/2000/svg" viewBox="0 0 819.45 285.47">
  <defs>
    <style>
      .cls-1 {
        stroke: #be3455;
        stroke-linecap: round;
        stroke-miterlimit: 10;
        stroke-width: 7px;
      }

      .cls-1, .cls-2 {
        fill: #be3455;
      }

      .cls-2, .cls-3 {
        stroke-width: 0px;
      }

      .cls-3 {
        fill: #fff;
      }
    </style>
  </defs>
  <g id="Calque_1-2" data-name="Calque 1">
    <ellipse id="BIG" class="cls-1" cx="144.48" cy="143.22" rx="140.65" ry="138.75"/>
    <path class="cls-3" d="M161.27,207.73c-1.25-45.42-47.5-49.29-82.9-42.52-3.84.68-7.74,1.52-11.54,2.4-.42.1-.71.17-1.23.22-5.55.43-8.31-6.04-4.82-9.95,9.08-12.06,21.85-20.7,31.86-31.34,6.14-6.49,10.96-13.34,13.73-21.58,11-33.43,47.69-51.52,80.98-40.2,7.03,2.27,13.61,5.51,19.66,9.33,11.11,7.71.5,23.86-10.99,16.71-18.63-13.02-42.48-14.92-60.18.12-6.38,5.26-11.25,12.15-14.05,19.89-4.02,10.03-11.18,19.12-18.97,26.05-10.97,10.13-23.83,17.31-33.52,28.22,1.66-1.99,1.35-5.65-1.19-7.37-1.36-.91-2.71-1.13-4.12-.84,0,0,.15-.03.15-.03l.3-.05c23.42-4.1,48.88-6.44,71.41,3.19,12.36,5.23,22.99,15.51,26.99,28.41,2.11,6.31,2.79,12.96,2.36,19.44-.22,2.46-3.85,2.42-3.94-.11h0Z"/>
    <g>
      <path class="cls-3" d="M137.08,232.86c-13.59,0-24.64-11.05-24.64-24.64s11.05-24.64,24.64-24.64,24.64,11.05,24.64,24.64-11.05,24.64-24.64,24.64Z"/>
      <path class="cls-3" d="M137.08,187.08c11.66,0,21.14,9.48,21.14,21.14s-9.48,21.14-21.14,21.14-21.14-9.48-21.14-21.14,9.48-21.14,21.14-21.14M137.08,180.08c-15.54,0-28.14,12.6-28.14,28.14s12.6,28.14,28.14,28.14,28.14-12.6,28.14-28.14-12.6-28.14-28.14-28.14h0Z"/>
    </g>
    <ellipse id="BIG-2" data-name="BIG" class="cls-1" cx="144.15" cy="142.25" rx="140.65" ry="138.75"/>
    <path class="cls-3" d="M160.76,211.33c-.09-11.96-4.19-24.08-12.48-32.77-17.63-18.21-45.31-18.28-68.95-14.51-4.37.73-8.73,1.62-13.05,2.63-.65.16-1.45.25-2.19.16-4.67-.46-6.75-6.18-3.89-9.62,0,0,.2-.26.2-.26l.4-.53c8.89-11.6,21.11-20,30.88-30.21,6.26-6.5,11.23-13.34,14.14-21.62,10.7-33.7,47.58-52.19,81.03-40.87,7.09,2.27,13.71,5.53,19.81,9.37,4.67,2.95,6.07,9.12,3.13,13.79s-9.12,6.07-13.79,3.13c-9.64-6.5-20.46-10.73-31.27-10.78-16.03-.31-32.09,9.44-40.01,23.49-1.44,2.42-2.53,5.3-3.59,7.91-1.47,3.44-3.25,6.74-5.26,9.84-7.66,11.93-19,20.42-29.78,28.61-6.08,4.66-11.71,8.97-16.57,14.39,0,0-.37.41-.37.41l-.18.21c.48-.58.81-1.39.97-2.24.68-3.46-2.79-6.83-6.29-5.96,0,0,.08-.01.08-.01l.15-.03.31-.06c24.07-4.26,50.61-6.02,72.95,5.72,12,6.26,21.6,17.34,25.35,30.32,1.94,6.35,2.64,12.99,2.22,19.48-.02,1.12-.97,2.03-2.1,1.95-1.03-.07-1.83-.93-1.84-1.95h0Z"/>
    <circle class="cls-3" cx="141.41" cy="210.81" r="23.3"/>
    <circle class="cls-3" cx="137.41" cy="212.27" r="26.77"/>
    <path class="cls-2" d="M429.56,142.3v35.01c0,5.53-1.25,9.68-3.76,12.44-2.5,2.77-5.82,4.15-9.94,4.15s-7.22-1.38-9.69-4.15-3.71-6.91-3.71-12.44v-41.95c0-6.62-.22-11.77-.67-15.43-.45-3.67-1.67-6.68-3.67-9.02-1.99-2.34-5.14-3.52-9.45-3.52-8.61,0-14.29,2.96-17.02,8.88-2.73,5.91-4.1,14.41-4.1,25.46v35.59c0,5.46-1.24,9.6-3.71,12.4s-5.73,4.19-9.78,4.19-7.26-1.4-9.79-4.19c-2.54-2.8-3.81-6.93-3.81-12.4v-75.32c0-4.95,1.14-8.71,3.42-11.28,2.28-2.57,5.29-3.86,9.02-3.86s6.6,1.2,9.02,3.62c2.41,2.41,3.61,5.73,3.61,9.98v2.5c4.56-5.46,9.45-9.48,14.66-12.05,5.21-2.57,11-3.86,17.36-3.86s12.31,1.32,17.07,3.95c4.75,2.63,8.68,6.62,11.77,11.96,4.44-5.4,9.19-9.41,14.27-12.01,5.08-2.61,10.71-3.9,16.87-3.9,7.2,0,13.4,1.41,18.61,4.24,5.09,2.7,9.18,6.96,11.67,12.15,2.25,4.75,3.38,12.25,3.38,22.47v51.41c0,5.53-1.25,9.68-3.77,12.44-2.5,2.77-5.81,4.14-9.93,4.14s-7.26-1.4-9.79-4.19c-2.54-2.8-3.81-6.93-3.81-12.4v-44.26c0-5.66-.24-10.19-.72-13.6-.48-3.4-1.78-6.27-3.9-8.58-2.12-2.32-5.33-3.48-9.65-3.48-3.47,0-6.77,1.03-9.88,3.09-3.12,2.06-5.64,4.93-7.28,8.29-1.93,4.44-2.9,12.28-2.9,23.53ZM543.07,101.79v76.09c0,5.27-1.25,9.26-3.75,11.96-2.52,2.7-5.7,4.05-9.55,4.05s-6.99-1.38-9.4-4.15c-2.41-2.77-3.62-6.72-3.62-11.86v-75.32c0-5.21,1.21-9.13,3.62-11.77,2.41-2.63,5.54-3.95,9.4-3.95s7.04,1.32,9.55,3.95c2.51,2.63,3.76,6.3,3.76,11ZM530.06,74.59c-3.67,0-6.8-1.13-9.4-3.38-2.61-2.25-3.91-5.43-3.91-9.55,0-3.73,1.34-6.8,4-9.21,2.67-2.41,5.77-3.62,9.31-3.62s6.43,1.1,9.07,3.29c2.63,2.19,3.95,5.37,3.95,9.55s-1.28,7.22-3.85,9.5c-2.57,2.28-5.63,3.42-9.16,3.42ZM596.41,155.9v21.99c0,5.33-1.25,9.34-3.76,12s-5.69,4-9.55,4-6.91-1.35-9.36-4.05c-2.44-2.7-3.67-6.69-3.67-11.96v-73.29c0-11.83,4.28-17.75,12.83-17.75,4.37,0,7.53,1.38,9.45,4.15s2.99,6.85,3.18,12.25c3.15-5.4,6.39-9.48,9.69-12.25,3.31-2.77,7.74-4.15,13.27-4.15s10.9,1.38,16.1,4.15c5.2,2.77,7.81,6.43,7.81,11,0,3.21-1.11,5.87-3.32,7.96-2.22,2.09-4.61,3.13-7.18,3.13-.97,0-3.29-.59-6.99-1.78s-6.96-1.78-9.79-1.78c-3.86,0-7.01,1.01-9.45,3.04-2.44,2.03-4.34,5.03-5.69,9.02-1.35,3.98-2.28,8.72-2.8,14.22-.56,6.69-.82,13.4-.77,20.11ZM654.18,161.25V63.7c0-5.27,1.18-9.26,3.52-11.96,2.35-2.7,5.52-4.05,9.5-4.05s7.2,1.34,9.65,4c2.44,2.67,3.66,6.67,3.66,12.01v93.6c0,8.19,0,13.07,6.21,13.07,7.52,0,12.2-8.82,17.17-8.82,4.61,0,7.62,3.04,7.62,8.82,0,10.51-11.87,23.53-29.65,23.53-14.66,0-27.68-9.59-27.68-32.65ZM819.44,140.37c0,7.85-1.22,15.08-3.67,21.7-2.29,6.38-5.9,12.19-10.6,17.07-4.68,4.79-10.34,8.52-16.59,10.94-6.43,2.54-13.67,3.81-21.7,3.81s-15.14-1.28-21.51-3.86c-6.23-2.48-11.86-6.24-16.54-11.04-4.7-4.84-8.31-10.63-10.61-16.97-2.42-6.52-3.62-13.75-3.62-21.65s1.22-15.27,3.67-21.89c2.44-6.62,5.95-12.28,10.51-16.97,4.68-4.77,10.34-8.47,16.59-10.85,6.49-2.54,13.66-3.81,21.5-3.81s15.21,1.29,21.7,3.86c6.28,2.43,11.97,6.18,16.68,11,4.68,4.85,8.28,10.63,10.56,16.97,2.41,6.56,3.62,13.79,3.62,21.7h0ZM793.01,140.37c0-10.73-2.36-19.09-7.08-25.07-4.73-5.98-11.07-8.97-19.05-8.97-5.15,0-9.68,1.34-13.6,4-3.92,2.67-6.94,6.61-9.07,11.82-2.12,5.2-3.18,11.28-3.18,18.22s1.05,12.89,3.13,18.04c2.09,5.14,5.08,9.08,8.97,11.81,3.89,2.73,8.47,4.1,13.75,4.1,7.97,0,14.32-3,19.05-9.02,4.72-6,7.08-14.32,7.08-24.93Z"/>
  </g>
</svg>