<?xml version="1.0" encoding="UTF-8"?>
<svg id="Calque_2" data-name="Calque 2" xmlns="http://www.w3.org/2000/svg" viewBox="0 0 367.36 265.41">
  <defs>
    <style>
      .cls-1 {
        opacity: .85;
      }

      .cls-2 {
        fill: #1db3a8;
      }

      .cls-2, .cls-3, .cls-4, .cls-5 {
        stroke-width: 0px;
      }

      .cls-3 {
        fill: #1d1d1d;
      }

      .cls-4 {
        fill: #ff8ab5;
      }

      .cls-5 {
        fill: #ef3788;
      }
    </style>
  </defs>
  <g id="Calque_5" data-name="Calque 5">
    <g>
      <g class="cls-1">
        <g>
          <path class="cls-4" d="M349.44,119.96c-.57-.14-1.15-.29-1.72-.43.27.16.53.38.77.68.34.24.61-.03.95-.25Z"/>
          <path class="cls-4" d="M346.12,119.12c-.1-.03-.21-.05-.3-.08-.1.02-.2.05-.29.07.2,0,.4,0,.59,0Z"/>
          <path class="cls-4" d="M343.03,118.86c.52.19,1.04.25,1.55.26-.41-.2-.92-.3-1.55-.26Z"/>
          <path class="cls-4" d="M345.37,119.7c-.14-.25-.19-.49.15-.58,0,0,0,0,.01,0-.31,0-.63.01-.95,0,.31.15.57.35.79.58Z"/>
          <path class="cls-4" d="M345.37,119.7c.14.24.38.49.46.62-.12-.22-.28-.43-.46-.62Z"/>
          <path class="cls-4" d="M343.61,124.53c-.33.1.02-1.3-.63-1.11-1.46.1-2.78.56-4.07.32-.65.21-1.31-1.53-1.96-1.31-1.47.12-5.33,1.55-3.22,1.76,3.18.26,5.28.3,8.15.52,2.39-.09,4.73-.33,7.19-.33.67.09,1.26.34,1.85.58-.75-.4-1.52-.83-2.4-1.23-1.13-.64-2.98.87-4.92.8Z"/>
          <path class="cls-4" d="M361.87,123.97c-.34.08-1.02.23-1.02.23-1.05-1.36-2.55-1.34-4.04-1.32.14.28.29.57.44.86.81.13,1.01-.23.38-.72,1.4,1.28,2.88,1.82,4.48,2.1,0-.4.15-.83-.24-1.14Z"/>
          <path class="cls-4" d="M363.05,125.25c-.32-.04-.64-.08-.95-.13,0,.04,0,.08,0,.13.33.02.65.03.97.05l-.02-.04Z"/>
          <path class="cls-4" d="M336.38,119.02c-2.02-.28-3.98-.57-5.89-.89-1.92-.29-3.79-.58-5.65-.87-.32.24-.55.54-.92.33-.26-.28-.54-.47-.82-.6-.54-.08-1.08-.16-1.62-.24-.19.02-.39.04-.59.05h-.02c-.32.14-.25.37-.09.6.2.17.37.37.52.58-.09-.13-.35-.35-.52-.58-.24-.21-.51-.38-.84-.49-.51.04-1.03.04-1.56-.1.61-.11,1.13-.06,1.56.1.32-.03.63-.07.94-.1.09-.03.18-.07.28-.1-1.24-.19-2.47-.38-3.7-.57-.29.01-.56.03-.79.06-.92.12-1.82.24-2.33-.5-.22-.03-.44-.06-.66-.1.04.05.08.09.12.14-.1-.05-.18-.11-.24-.16-.93-.14-1.87-.26-2.81-.38-.63.23-1.28.54-1.92.7,0,0-.4-.51-.59-.75-.28.34-.66.56-1.09.66.49.46.92.96,1.34,1.28.59.76,1.5-1.36,2.16.04-.66-1.4-1.57.72-2.16-.04-.41-.32-.85-.82-1.34-1.28-.9.21-2.04-.09-2.94-.83,1.18-.56,2.13.06,2.94.83.43-.1.81-.31,1.09-.66.2.25.59.75.59.75.64-.17,1.29-.47,1.92-.7-1.84-.23-3.7-.49-5.61-.68-6.12-.74-12.04-1.03-17.99-1.23-5.94-.23-11.96-.23-18.16-.92-1.68-.19-3.35-.37-5-.55-1.65-.22-3.26-.56-4.87-.86-1.6-.32-3.18-.64-4.76-.95-1.56-.36-3.09-.83-4.62-1.26-1.52-.44-3.02-.81-4.51-1.16-1.47-.42-2.94-.8-4.4-1.16-.73-.17-1.46-.35-2.18-.52l-1.09-.25-1.07-.31c-1.42-.42-2.84-.83-4.26-1.25-1.43-.39-2.8-.93-4.17-1.48-1.36-.57-2.75-1.1-4.06-1.79-1.31-.71-2.6-1.47-3.87-2.29-1.27-.82-2.43-1.84-3.59-2.85-.92-.74-2.02-1.57-3.26-2.37-1.24-.77-2.58-1.6-3.92-2.42-2.64-1.62-5.2-3.27-6.66-4.51-1.37-.4-2.48-.35-3.42,0-.24.08-.48.18-.7.28-.21.15-.4.29-.59.42-.4.28-.79.57-1.15.88-.72.61-1.31,1.29-1.61,1.93-.33.62-.47,1.13-.48,1.25-.24,1.62-.07,2.93.38,3.97.22.53.5,1.02.83,1.49.34.45.74.87,1.17,1.31,1.73,1.77,4.11,3.44,7.03,7-2.07-2.3-.68-2.42,1.51-1.32,1.13.51,2.47,1.32,3.75,2.37,1.29,1.01,2.55,2.19,3.43,3.61,2.53,4.16,7.15,6.22,12.1,7.51,4.98,1.28,10.28,1.85,14.95,3.45,1.17.4,2.4.74,3.71.92,1.31.19,2.68.36,4.11.63,1.84.49,3.68,1,5.52,1.29,1.84.29,3.68.53,5.51.72,3.68.47,7.33.44,11.01.45,3.7.04,7.32-.13,10.94-.25,3.63-.11,7.28-.16,11.02-.01,3.95.04,7.44-1.21,10.8-1.81,2.44-.16,4.99.68,6.95.8,3.09.15,5.76-.1,8.36-.53-2.87.04-4.96.22-8.15.26-2.12-.03,1.58-1.77,3.03-2.06.63-.27,1.45,1.39,2.08,1.12,1.3.11,2.56-.47,4-.72.63-.26.42,1.17.74,1.04,1.93-.13,3.61-1.84,4.79-1.29.9.33,1.71.65,2.5.97.5.14,1.01.27,1.56.28.35-.07.72-.15,1.09-.23-.22-.47-.25-1.02-.27-1.57.5.13,1.16.57,1.66.72-.49-.15-1.16-.59-1.66-.72.02.55.05,1.09.27,1.57,2.61-.44,5.65-.83,8.44-.93,0-.04,0-.09-.01-.13-1.6-.15-3.12-.51-4.64-1.62.67.42.52.8-.31.77-.17-.27-.35-.54-.52-.8,1.47-.18,2.97-.39,4.13.86,0,0,.66-.21.98-.32.41.28.32.72.35,1.11.31.03.63.04.95.05-.53-.82-2.46-2.1-2.46-2.1Z"/>
          <path class="cls-4" d="M319.92,116.86c.22-.02.49-.03.79-.04-1.03-.17-2.07-.33-3.11-.5.49.74,1.4.64,2.32.54Z"/>
        </g>
      </g>
      <g class="cls-1">
        <g>
          <path class="cls-4" d="M347.49,131.51c-.8.13-1.6.26-2.41.38.42.02.85.1,1.31.27.55.06.76-.3,1.1-.66Z"/>
          <path class="cls-4" d="M342.86,132.33c-.14.03-.29.06-.43.09-.12.07-.23.14-.33.21.25-.11.5-.2.75-.3Z"/>
          <path class="cls-4" d="M338.85,133.78c.74-.13,1.42-.38,2.06-.65-.62.06-1.3.26-2.06.65Z"/>
          <path class="cls-4" d="M342.2,133.23c-.3-.15-.48-.33-.1-.59h.02c-.4.15-.79.31-1.2.48.46-.04.9.02,1.28.11Z"/>
          <path class="cls-4" d="M342.2,133.23c.29.14.73.24.88.32-.26-.13-.56-.24-.88-.32Z"/>
          <path class="cls-4" d="M342.46,138.4c-.34.26-.62-1.15-1.31-.62-.85.46-1.61.94-2.36,1.39-.74.48-1.47.9-2.29,1.18-.64.53-2.35-.49-2.99.1-.81.51-2.11,1.71-2.86,2.63-.75.91-.99,1.51.25.92,3.67-1.9,6.09-3.16,9.61-4.48.69-.36,1.38-.71,2.07-1.06l2.1-.98c1.4-.69,2.88-1.22,4.4-1.79.87-.25,1.72-.22,2.57-.26-1.12-.07-2.28-.13-3.55-.08-.85-.03-1.69.47-2.59,1.14-.9.68-1.86,1.47-3.05,1.92Z"/>
          <path class="cls-4" d="M365.29,130.7c-.41.17-1.24.51-1.24.51-1.89-1.04-3.86-.45-5.78.05.3.22.61.44.92.67,1.1-.15,1.21-.56.2-.81,1.17.37,2.28.55,3.37.63,1.1.1,2.18.08,3.27-.01-.14-.39-.12-.84-.74-1.03Z"/>
          <path class="cls-4" d="M367.32,131.58c-.43.05-.86.1-1.28.14,0,.04.03.08.05.12.43-.08.86-.16,1.28-.23l-.05-.03Z"/>
          <path class="cls-4" d="M330.88,137.97c-5.09,2.21-9.7,4.69-14.06,7.35-.18.45-.23.87-.76,1.01-.47.02-.88.11-1.27.25-.63.4-1.26.81-1.88,1.21-.19.18-.38.37-.57.55,0,0,0,.01-.01.02-.24.38-.01.48.32.51.32-.05.64-.05.93-.03-.19-.01-.6.05-.93.03-.39.06-.79.17-1.21.37-.5.47-1.04.93-1.66,1.31.54-.63,1.11-1.05,1.66-1.31.31-.31.6-.6.9-.9.07-.11.14-.21.22-.32-1.41.95-2.82,1.89-4.2,2.87-.29.27-.56.52-.77.74-.84.91-1.67,1.82-2.7,1.75-.24.18-.49.36-.73.54.07,0,.14-.01.22,0-.13.05-.25.09-.35.11-1.02.76-2.05,1.53-3.08,2.3-.46.74-.9,1.55-1.42,2.25,0,0-.75,0-1.12,0-.03.5-.26,1-.63,1.47.81-.11,1.59-.15,2.23-.3,1.12,0,.54-2.34,2.19-1.94-1.65-.4-1.07,1.94-2.19,1.94-.64.15-1.42.19-2.23.3-.76.97-2.12,1.79-3.53,2.06.8-1.47,2.19-1.87,3.53-2.06.37-.47.59-.97.63-1.47.37,0,1.12,0,1.12,0,.52-.71.96-1.51,1.42-2.25-1.99,1.51-4.01,3.04-6.07,4.61-6.63,4.98-12.85,9.85-19.5,14.13-6.62,4.32-13.66,8.07-21.51,11-8.55,3.07-17.14,4.82-25.6,5.53-8.43.65-16.43,1.35-24.52,1.23-8.07-.17-16.22-1.17-24.32-4.19-3.11-1.11-7.61-2.03-12.08-2.99-4.47-.95-8.9-1.94-11.84-2.78-4.26-.08-5.81,1.56-6.38,3.38-.66,1.78-.01,3.74.12,3.97,1.71,3.37,3.94,4.66,6.9,5.81,2.99,1.14,6.71,2.15,11.94,4.78-3.6-1.62-2.01-2.17,1.21-1.7,3.24.46,8.17,1.77,11.56,4.01,4.89,3.4,11.45,4.27,18.28,4.18,6.86-.08,13.95-1.1,20.63-1.1,1.67-.02,3.39-.2,5.18-.43,1.78-.29,3.65-.61,5.63-.89,10.38-1,20.25-3.91,29.54-8.32,1.16-.56,2.32-1.11,3.48-1.67,1.15-.59,2.28-1.22,3.42-1.84,2.3-1.21,4.52-2.55,6.75-3.92,4.45-2.75,8.82-5.75,13.21-8.88,4.59-3.43,7.57-7.6,10.65-11.12,2.45-2.36,5.62-4.14,7.69-5.86,3.24-2.72,5.69-5.37,8.02-7.92-2.87,2.51-4.8,4.59-8,7.53-2.17,1.93.36-2.72,1.59-4.24.43-.77,2.43-.34,2.86-1.09,1.37-1.11,2.26-2.59,3.52-4.06.46-.73,1.24.48,1.47.12.93-.89,1.53-1.99,2.11-2.93.58-.95,1.13-1.77,1.93-2.04,1.16-.5,2.21-.92,3.26-1.27.63-.28,1.24-.58,1.84-.99.34-.32.68-.65,1.03-.98-.54-.21-.92-.62-1.29-1.03.64-.26,1.63-.44,2.26-.69-.63.25-1.62.44-2.26.69.37.41.75.82,1.29,1.03,2.51-2.35,5.71-4.74,8.94-6.59-.03-.03-.06-.07-.09-.1-1.96.9-3.91,1.6-6.32,1.77,1.01-.14,1.07.27.12.84-.36-.09-.72-.18-1.08-.27,1.53-1.25,3.19-2.39,5.27-2.15,0,0,.65-.6.97-.9.64-.04.78.39,1.04.71.38-.18.76-.37,1.15-.56-1.07-.37-4.1-.17-4.1-.17Z"/>
          <path class="cls-4" d="M311.38,149.24c.21-.21.49-.46.79-.72-1.19.78-2.37,1.57-3.53,2.4,1.03.1,1.86-.81,2.75-1.68Z"/>
        </g>
      </g>
      <g class="cls-1">
        <g>
          <path class="cls-4" d="M28.92,172.43c-1.09-.33-2.15-.73-3.23-1.11.51.28,1,.6,1.47,1.02.66.39,1.13.2,1.75.08Z"/>
          <path class="cls-4" d="M22.78,170.17c-.19-.08-.38-.16-.55-.23-.19-.02-.36-.05-.53-.07.36.1.72.2,1.08.3Z"/>
          <path class="cls-4" d="M17.31,168.08c.86.56,1.79.94,2.7,1.26-.72-.45-1.61-.87-2.7-1.26Z"/>
          <path class="cls-4" d="M21.39,170.39c-.25-.34-.33-.62.28-.53,0,0,.01,0,.02,0-.57-.16-1.12-.34-1.7-.53.55.33,1.01.69,1.39,1.06Z"/>
          <path class="cls-4" d="M21.39,170.39c.25.32.7.71.84.89-.23-.3-.51-.6-.84-.89Z"/>
          <path class="cls-4" d="M17.94,174.43c-.67-.12.07-1.35-1.21-1.62-2.86-.95-5.51-1.77-7.91-3.67-.63-.34-1.14-1.13-1.54-2.01-.43-.84-.77-1.72-1.35-2.13-.6-.57-1.45-1.36-2.29-2.28-.82-.93-1.64-1.96-2.24-2.83-.62-.87-1.06-1.54-1.26-1.64-.19-.11-.25.37.27,1.68.78,1.97,1.8,3.62,2.88,5.03,1.1,1.39,2.26,2.53,3.44,3.54,2.39,1.98,4.87,3.42,7.72,4.82,4.83,1.9,9.5,2.8,14.37,3.67,1.34.32,2.55.75,3.78,1.16-1.58-.64-3.19-1.29-4.96-2.05-2.28-1.12-5.77-.29-9.71-1.67Z"/>
          <path class="cls-4" d="M53.65,178.37c-.62.07-1.86.22-1.86.22-2.52-1.42-5.36-1.46-8.22-1.58.36.31.74.62,1.11.93,1.62.2,1.87-.17.5-.72,3.1,1.42,6.18,2.04,9.38,2.32-.15-.41-.04-.86-.91-1.17Z"/>
          <path class="cls-4" d="M56.43,179.68c-.63-.05-1.26-.09-1.88-.14,0,.04.03.09.05.13.64.02,1.27.03,1.89.05l-.06-.04Z"/>
          <path class="cls-4" d="M7.15,161.14c-2.22-3.28-2.85-7.27-2.54-11,.33-3.77,1.42-7.36,2.69-10.81-.07-.63-.25-1.11.18-1.78.44-.45.79-.94,1.1-1.44.41-1,.84-1.99,1.27-2.97.11-.36.22-.73.33-1.1,0,0,0-.02,0-.03.08-.62-.19-.54-.53-.28-.3.33-.61.62-.92.85.19-.15.58-.59.92-.85.36-.4.72-.87,1.05-1.45.3-.94.66-1.92,1.15-2.87-.31,1.16-.71,2.1-1.15,2.87-.18.6-.35,1.18-.52,1.76-.03.18-.05.35-.08.54,1.02-2.25,2.04-4.49,3.06-6.73.19-.54.37-1.05.49-1.48.51-1.73,1.01-3.44,2.07-4.22.17-.4.35-.81.53-1.22-.07.06-.14.13-.21.19.11-.17.22-.31.31-.42.74-1.72,1.44-3.47,2.12-5.24.14-1.25.2-2.55.37-3.81,0,0,.7-.68,1.05-1.02-.21-.6-.24-1.36-.14-2.22-.67.88-1.37,1.63-1.9,2.36-1.04.97.56,3.11-1.21,4.09,1.77-.97.17-3.11,1.21-4.09.53-.73,1.22-1.49,1.9-2.36.21-1.79.93-3.96,1.94-5.7.21,2.41-.81,4.25-1.94,5.7-.09.86-.07,1.63.14,2.22-.35.33-1.05,1.02-1.05,1.02-.16,1.26-.23,2.57-.37,3.81,1.31-3.46,2.48-7.05,3.35-10.83.69-3.1,1.24-5.95,1.83-8.85.31-1.44.68-2.86,1.02-4.28l.51-2.13.59-2.1c1.49-5.62,3.39-11.06,5.6-16.38,4.43-10.62,10.45-20.74,18.83-29.61,4.54-4.79,9.51-8.97,14.78-12.51,2.64-1.77,5.32-3.41,8.08-4.89l2.08-1.09c.39-.21.46-.22.67-.31l.53-.22c.7-.29,1.36-.53,1.98-.73.71-.24,1.36-.45,1.97-.68.3-.11.6-.22.87-.35.29-.09.49-.38.83-.3.32.06.6.43.54.82-.07.38-.18.74-.28,1.09-.19.67-.39,1.35-.58,2.01-.21.77-.42,1.54-.64,2.3l-.15.56-.07.27-.19.78-.77,3.22c-1.02,4.31-2,8.64-2.93,13.06-.94,4.42-1.84,8.91-2.58,13.69-.37,2.39-.68,4.87-.82,7.59-.05.66-.05,1.39-.05,2.11-.02.7.03,1.5.08,2.28l.04.59.09.65.19,1.31c.07.44.23.98.35,1.46.13.49.28,1.04.41,1.36,1.05,3.29,3.27,7.08,6.38,10.28,3.11,3.2,6.99,5.79,10.9,7.61,7.87,3.7,15.74,4.87,21.04,5.45,3.63-.17,5.88-.93,7.22-1.8,1.32-.88,1.8-1.91,1.71-2.85-.27-1.87-2.01-3.55-2.3-3.74-3.79-2.82-6.99-3.79-11.16-4.96-2.07-.6-4.36-1.28-6.85-2.42-1.24-.58-2.53-1.26-3.81-2.14-1.28-.86-2.56-1.91-3.69-3.18,1.62,1.64,2.16,2.35,1.66,2.48-.48.13-1.92-.39-3.63-1.55-1.7-1.16-3.56-3.07-4.69-5.37-.28-.58-.5-1.18-.7-1.77l-.23-.91-.1-.45c-.02-.14,0-.24,0-.36-.01-.4.06-.98.12-1.47.12-.59.21-1.07.41-1.63,1.95-5.44,3.42-12.63,4.74-20.47.67-3.92,1.34-8.01,2.1-12.13l.59-3.09.22-1.07.32-1.46.65-2.9c.86-3.84,1.87-7.72,2.55-11.35l.06-1.3.03-.65.02-.33-.03-.27-.13-1.08c-.04-.37-.08-.73-.17-1-.27-1.27-.65-2.24-1.04-3.13-.23-.47-.4-.83-.8-1.34-.43-.52-1.09-1.14-1.78-1.58-.69-.46-1.36-.73-1.67-.82l-.57-.16-.73-.17c-.23-.06-.54-.1-.86-.14-.32-.04-.62-.08-.95-.11-.39,0-.78.02-1.17.02-.41.03-.75-.04-1.27.12-.48.11-.97.23-1.46.34l-.74.17c-.25.06-.56.29-.84.43-1.14.63-2.31,1.31-3.47,1.9-2.98,1.51-6.01,2.9-9.04,4.53l-2.28,1.21-1.52.83c-.83.46-1.66.91-2.47,1.4-3.27,1.92-6.44,4.02-9.46,6.34-6.03,4.62-11.54,9.94-16.33,15.88-4.8,5.92-8.99,12.37-12.54,19.24-3.55,6.87-6.51,14.13-9.04,21.72-2.53,8.12-2.85,15.66-3.19,22.64-.07.62-.17,1.3-.27,1.88-.09.55-.18,1.1-.3,1.65-.24,1.1-.54,2.19-.86,3.24-.66,2.12-1.43,4.11-2.01,5.88-1.81,5.57-3.41,10.58-4.84,15.59,1.99-5.4,3.26-9.33,5-15.14.57-1.92.8-1.13.82.51.02,1.64-.27,4.13-.58,5.5-.12,1.23-2.29,2.37-2.45,3.59-.98,2.4-1.33,4.87-2.07,7.65-.18,1.25-1.45.56-1.54,1.19-1.23,3.75-.64,7.29-1.85,9.56-.85,1.77-1.59,3.42-2.26,5.09-.37,1.07-.68,2.17-.84,3.4-.02.77-.01,1.58.02,2.39.5-.59,1.08-.72,1.64-.85-.25,1.06-.68,2.61-.77,3.75.09-1.15.52-2.69.77-3.75-.56.13-1.15.26-1.64.85.11,2.89.56,6.12,1.86,9.1.64,1.48,1.46,2.88,2.41,4.13.96,1.24,2.05,2.32,3.17,3.27.01-.04.03-.1.04-.14-1.22-1.18-2.28-2.55-3-4.11-.72-1.56-1.1-3.3-1.02-5.05-.02.76-.06,1.12-.24,1.09-.17-.03-.42-.46-.63-1.32.13-.48.34-.96.51-1.41.37,1.43.9,2.79,1.44,4.09.53,1.31,1.05,2.58,1.43,4.04,0,0,.26.2.58.46.32.25.7.54.97.71.46.81.1,1.1-.03,1.51.5.44.98.9,1.52,1.29-.31-.71-1.04-2.02-1.58-3.15-.26-.58-.49-1.11-.65-1.49-.14-.39-.23-.64-.23-.64Z"/>
          <path class="cls-4" d="M10.76,130.23c-.12.42-.3.92-.49,1.46.86-1.88,1.73-3.76,2.6-5.64-1.07.74-1.59,2.46-2.11,4.18Z"/>
        </g>
      </g>
      <g class="cls-1">
        <g>
          <path class="cls-5" d="M185.42,117.34c-.68,1.69-1.3,3.42-2.05,5.08.5-.79.91-1.6,1.5-2.38.58-1.06.51-1.77.56-2.71Z"/>
          <path class="cls-5" d="M181.16,126.97c-.14.3-.29.59-.42.87-.09.28-.16.57-.25.8.25-.54.45-1.12.68-1.67Z"/>
          <path class="cls-5" d="M176.83,135.45c.53-.66.93-1.38,1.32-2.1.39-.71.75-1.42,1.09-2.12-.39.57-.78,1.2-1.17,1.91-.39.7-.76,1.5-1.24,2.31Z"/>
          <path class="cls-5" d="M180.95,129.04c-.48.41-.82.56-.49-.36,0-.01,0-.02.02-.04-.41.86-.82,1.71-1.25,2.59.58-.85,1.16-1.59,1.72-2.2Z"/>
          <path class="cls-5" d="M180.95,129.04c.48-.39,1-1.15,1.25-1.37-.4.38-.77.87-1.25,1.37Z"/>
          <path class="cls-5" d="M184.21,133.62c-.37.97-1.5.05-2.2,1.95-.24.54-.49,1.07-.72,1.59-.27.5-.53,1-.8,1.49-.53.99-1.04,1.95-1.55,2.9-.98,1.95-2.24,3.67-3.62,5.41-.52.88-1.54,1.74-2.66,2.48-1.13.74-2.24,1.46-2.81,2.29-.75.91-1.66,2.32-2.78,3.58-1.08,1.31-2.17,2.69-3.01,3.81-.82,1.15-1.48,1.91-1.52,2.19-.07.24.51.02,1.84-1.2.98-.94,1.92-1.84,2.83-2.7.45-.44.89-.86,1.33-1.28.22-.21.43-.42.64-.63.2-.22.4-.44.59-.66,1.56-1.76,3.03-3.41,4.43-5.07,1.3-1.75,2.58-3.46,3.89-5.23,1.25-1.81,2.41-3.77,3.73-5.8,3.68-7.01,6.32-14.09,8.43-21.7.66-2.11,1.3-4.06,2.01-6.02-1.03,2.52-1.91,5.14-3.28,7.91-.45.91-.79,1.91-1.08,3.01-.14.55-.27,1.12-.4,1.71-.16.58-.32,1.18-.49,1.8-.69,2.46-1.27,5.35-2.81,8.19Z"/>
          <path class="cls-5" d="M194.07,77.68c.09.97.28,2.94.28,2.94-.62,2.12-1.12,4.28-1.33,6.51-.24,2.22-.26,4.5-.49,6.76.34-.62.7-1.24,1.05-1.88.27-2.59-.13-2.94-.7-.7.74-2.56,1.29-5.09,1.71-7.62.41-2.53.51-5.07.63-7.63-.41.3-.86.2-1.16,1.62Z"/>
          <path class="cls-5" d="M195.32,73.05c-.03,1.01-.06,2.02-.09,3.01.04-.02.09-.07.13-.1,0-1.01,0-2.03,0-3.02l-.04.11Z"/>
          <path class="cls-5" d="M165,152.06c-9.28,8.96-19.69,15.52-30.32,20.74-.69.69-1.1,1.26-2.25,1.73-.94.23-1.82.59-2.68.98-1.5.89-3,1.78-4.46,2.7-.49.36-.98.72-1.48,1.09,0,0-.03.02-.04.03-.72.68-.36.7.26.55.65-.24,1.27-.42,1.81-.55-.35.08-1.2.4-1.81.55-.78.3-1.62.69-2.56,1.21-1.27.95-2.6,1.94-4.06,2.84,1.48-1.21,2.83-2.15,4.06-2.84.8-.61,1.57-1.2,2.34-1.79.21-.19.42-.37.64-.57-3.37,2.12-6.68,4.28-9.95,6.52-.73.55-1.41,1.09-1.96,1.54-2.22,1.83-4.39,3.69-6.23,4.19-.57.41-1.14.83-1.72,1.25.13-.05.27-.1.4-.15-.28.16-.52.28-.72.38-2.42,1.76-4.81,3.57-7.21,5.39-1.35,1.43-2.68,2.97-4.11,4.39,0,0-1.35.5-2.01.74-.4.8-1.14,1.73-2.1,2.7,1.52-.71,2.95-1.29,4.19-1.94,2-.73,2.57-3.96,5.27-4.4-2.7.44-3.27,3.67-5.27,4.4-1.24.65-2.67,1.23-4.19,1.94-1.99,2.05-4.95,4.22-7.61,5.69,2.33-2.92,5.1-4.47,7.61-5.69.97-.97,1.71-1.9,2.1-2.7.66-.24,2.01-.74,2.01-.74,1.43-1.42,2.77-2.95,4.11-4.39-4.66,3.58-9.3,7.3-13.96,11.2-1.86,1.58-3.7,3.15-5.54,4.72-1.79,1.52-3.62,2.97-5.51,4.2-1.72,1.09-3.27,1.91-5.06,2.26-.88.13-1.81.16-2.63-.23-.82-.36-1.49-1-1.95-1.77-.45-.77-.79-1.6-1-2.45-.12-.42-.22-.85-.29-1.29-.04-.22-.08-.42-.12-.66l-.09-.74-.09-.75-.07-.83c-.05-.55-.09-1.11-.1-1.68-.06-1.12-.05-2.26-.06-3.4.06-4.57.46-9.2.98-13.84.52-4.64,1.18-9.3,1.87-13.99.68-4.77,1.28-9.41,2.29-14.01l.36-1.73.43-1.71c.29-1.14.59-2.28.88-3.43.35-1.13.71-2.26,1.06-3.4l.53-1.71.63-1.68c.42-1.12.84-2.25,1.26-3.37.41-1.13.96-2.22,1.43-3.34.49-1.11.98-2.22,1.48-3.34.54-1.1,1.11-2.19,1.67-3.29,4.89-9.51,10.84-18.24,17.14-26.5,1.64-2.02,3.28-4.03,4.91-6.03.82-.99,1.61-2.01,2.46-2.98l2.57-2.89c1.71-1.91,3.42-3.82,5.12-5.73,1.78-1.84,3.55-3.67,5.32-5.5,1.78-1.81,3.48-3.67,5.28-5.42,1.79-1.77,3.57-3.53,5.34-5.28,3.49-3.52,7.05-7.02,10.59-10.44,3.53-3.44,7.06-6.78,10.62-9.96,3.56-3.19,7.18-6.15,10.92-8.6,3.74-2.47,7.58-4.3,11.67-5.35l1.54-.39c.52-.12,1.06-.19,1.58-.29.53-.09,1.05-.19,1.59-.27l1.64-.17c1.08-.14,2.22-.17,3.34-.21,1.13-.07,2.23-.04,3.34-.02,4.39.16,8.59.99,12.16,2.66,1.77.86,3.4,1.88,4.84,3.14,1.46,1.25,2.74,2.7,4.02,4.44.35.47.71.96,1.08,1.46.07.09.03.06.04.08v.02s-.01.04-.01.04l-.02.07c-.03.09-.07.14-.1.16-.08.04-.22.05-.32.04-.1,0-.18-.04-.14-.04.06.01.17.04.24.06.07.03.11.06.1.1,0,.02-.02.04-.05.07,0,0,0,0,0,0l-.1.03-.19.07-.19.07-.47.18c-.88.35-1.73.67-2.57,1.11-3.28,1.86-5.91,4.47-7.37,7.08-.36.67-.71,1.25-.93,1.89-.23.63-.41,1.22-.56,1.77-.17.55-.23,1.07-.26,1.55-.04.48-.06.93-.06,1.33-.03.81.16,1.44.32,1.96.17.51.37.9.58,1.18.42.57.9.72,1.38.68.96-.11,1.95-1.01,2.73-1.75.86-.75,1.58-1.38,1.72-1.58,1.67-1.65,3.42-2.46,5.16-3.07l1.32-.41c.44-.13.91-.22,1.35-.35.45-.11.93-.19,1.38-.3.63-.13,1.26-.25,1.9-.38,1.48-.23,3.09-.44,4.83-.58,1.72-.17,3.63-.19,5.87-.13,2.43.08,4.95.16,7.59.24,2.74.1,5.77.25,8.89.45.8-1.39,2.48-1.72,4.27-2.03.44-.08.89-.16,1.35-.25.11.03,0-.11-.07-.2l-.21-.29-.42-.55c-.27-.33-.54-.67-.81-1.01-1.07-1.31-2.09-2.43-3.05-3.56,2.19,2.43,2.6,3.43,1.57,2.85-1.02-.56-3.38-2.34-6.39-4.19-1.49-.94-3.19-1.91-5.15-2.96-.52-.26-1.05-.52-1.59-.79l-.8-.41-.92-.42c-.61-.28-1.23-.57-1.86-.86l-.23-.11-.32-.18-.69-.4-1.5-.89c-1.04-.61-2.04-1.17-3.01-1.7l-.79-.31c-.25-.11-.59-.18-.67-.38l-.8-1.06c-.4-.55-.79-1.09-1.18-1.64-.4-.53-.8-1.07-1.19-1.59-1.62-2.12-3.41-4.12-5.18-5.89-2.53-2.59-5.82-4.82-9.52-6.39-3.7-1.59-7.75-2.52-11.84-2.9-2.05-.2-4.11-.25-6.17-.21-2.03.1-4.07.17-6.2.48-4.22.54-8.67,1.64-12.89,3.4-4.23,1.76-8.09,4.14-11.59,6.67-1.79,1.26-3.39,2.6-5.04,3.93-1.56,1.36-3.17,2.7-4.64,4.08-6,5.48-11.49,10.99-17.01,16.03-2.77,2.48-5.45,5.35-8.27,8.27-1.4,1.47-2.84,2.98-4.31,4.52-1.44,1.59-2.91,3.22-4.43,4.89-2.03,2.12-4.08,4.19-6.04,6.35-1.92,2.2-3.83,4.4-5.74,6.58-1.93,2.16-3.7,4.48-5.49,6.76-1.77,2.31-3.62,4.53-5.25,6.95-6.83,9.39-12.88,19.48-17.73,30.43-2.31,5.53-4.54,11.17-6.07,17.11-1.62,5.89-2.75,12.02-3.49,17.94-.36,2.86-.72,5.74-1.09,8.63-.37,2.92-.74,5.87-1.08,8.87-.65,6.02-1.26,12.14-1.27,18.83.02.9.03,1.77.1,2.69l.09,1.35.15,1.38c.07.8.29,2.13.51,3.24.04.26.14.62.23.97l.27,1.04c.19.68.33,1.39.61,2.02.25.64.5,1.28.75,1.92.31.59.64,1.17.96,1.74.29.6.74,1.07,1.11,1.59.2.25.38.51.59.75l.68.65c1.79,1.72,4.03,3,6.45,3.38,2.38.44,4.82.25,7.13-.58.57-.21,1.16-.32,1.71-.62l1.65-.82c1.14-.5,2.03-1.21,3.01-1.82,1.1-.68,1.55-1.12,2.2-1.65l.93-.76.85-.78c1.16-1.02,2.2-2.07,3.23-3.1.73-.67,1.46-1.35,2.2-2.02l2.21-1.94c1.48-1.28,3.02-2.49,4.51-3.69,3-2.37,5.9-4.56,8.35-6.53,7.66-6.23,14.19-11.69,20.5-16.87-7.29,5.46-12.42,9.72-20.19,16.26-5.21,4.34,2.47-4.43,5.85-7.47,1.33-1.44,4.71-1.98,6.07-3.38,3.36-2.48,6.11-5.25,9.59-8.11,1.41-1.36,2.03-.03,2.74-.69,2.44-1.83,4.41-3.74,6.23-5.39,1.81-1.64,3.5-3.06,5.21-3.72,2.82-1.24,5.36-2.36,7.84-3.45,1.51-.82,3.01-1.66,4.54-2.65.89-.71,1.86-1.35,2.75-2.15-1,.17-1.58-.13-2.14-.42,1.46-.81,3.55-1.94,4.98-2.81-1.44.87-3.52,2-4.98,2.81.55.3,1.14.59,2.14.42,6.61-5.26,13.65-12.03,19.12-19.09-.05,0-.12,0-.18,0-1.75,1.92-3.42,3.9-5.47,5.49-1,.83-2.02,1.64-3.07,2.42-.52.4-1.08.76-1.65,1.1-.57.34-1.16.68-1.75,1.01,2.01-1.19,2.05-.71.02,1.01-.68.23-1.36.46-2.03.69.84-.79,1.68-1.57,2.52-2.35.84-.78,1.72-1.49,2.52-2.29,1.63-1.55,3.42-2.88,5.33-4.06,0,0,1.11-1.66,1.66-2.48,1.14-.92,1.43-.57,1.93-.54.68-.75,1.35-1.52,1.94-2.38-.9.66-2.79,1.97-4.34,3.18-.78.6-1.5,1.17-2.02,1.58-.26.21-.47.38-.64.48-.16.11-.24.17-.24.17Z"/>
          <path class="cls-5" d="M121.35,181.12c.56-.43,1.25-.93,2-1.46-2.81,1.78-5.59,3.59-8.35,5.47,1.84-.45,4.08-2.24,6.35-4.01Z"/>
        </g>
      </g>
      <g class="cls-1">
        <g>
          <path class="cls-2" d="M55.37,257.13c.1.42.19.84.34,1.26.02-.24.08-.5.26-.78.08-.31-.27-.35-.6-.47Z"/>
          <path class="cls-2" d="M56.13,259.54c.03.07.06.15.09.22.07.05.14.09.21.12-.11-.11-.21-.22-.3-.34Z"/>
          <path class="cls-2" d="M57.66,261.32c-.2-.36-.42-.67-.71-.93.09.33.28.69.71.93Z"/>
          <path class="cls-2" d="M56.98,259.62c-.13.22-.29.4-.54.27h0c.16.17.34.33.52.5-.07-.25-.05-.51.03-.77Z"/>
          <path class="cls-2" d="M56.98,259.62c.12-.22.2-.48.28-.6-.12.19-.21.39-.28.6Z"/>
          <path class="cls-2" d="M61.61,257.48c.2.02-1.03.76-.61.83.72.33,1.51.24,1.9.56.2-.05.09.3.05.65-.05.35-.07.72.13.67.4.02,1.19-.22,1.71-.57.52-.34.81-.74.42-.84-1.17-.3-1.93-.39-2.8-1.06-.98-.32-2.08-.98-2.91-2.1-.15-.33-.1-.7-.07-1.04-.12.46-.28.98-.32,1.53-.11.39.37.65.94.83.55.2,1.23.29,1.56.54Z"/>
          <path class="cls-2" d="M55.8,248.27c.13.22.4.65.4.65-1.11.78-.8,1.81-.38,2.75.24-.13.48-.27.72-.4-.07-.52-.48-.61-.8-.14.91-1.07,1.13-2.02,1.13-3.06-.4.01-.84-.06-1.08.21Z"/>
          <path class="cls-2" d="M56.84,247.44c.02.21.03.42.04.62.04,0,.08,0,.13,0-.04-.21-.09-.42-.13-.63l-.04.02Z"/>
          <path class="cls-2" d="M61.97,263.32c2.4,1.24,4.91,1.71,7.34,1.94.2-.28.33-.6.57-.43.19.25.38.41.57.52.36.01.71.03,1.07.04.12-.04.24-.09.37-.14h0c.19-.19.11-.4-.02-.61-.14-.14-.28-.31-.39-.5.07.12.26.3.39.5.18.17.37.3.59.37.31-.11.64-.21.99-.16-.36.21-.7.25-.99.16-.2.07-.39.16-.58.24-.05.05-.11.09-.16.14.82,0,1.63,0,2.45-.03.18-.06.35-.12.49-.19.56-.27,1.08-.57,1.57.06.14-.01.29-.03.44-.04-.04-.04-.07-.07-.11-.11.07.03.13.07.19.1.62-.06,1.23-.14,1.85-.22.32-.36.63-.79.97-1.1,0,0,.39.39.59.58.06-.39.23-.68.46-.88-.44-.31-.85-.7-1.19-.91-.56-.59-.5,1.62-1.29.43.79,1.2.73-1.01,1.29-.43.34.21.75.59,1.19.91.48-.46,1.24-.48,2.16-.1-.5.86-1.44.59-2.16.1-.23.2-.39.49-.46.88-.19-.19-.59-.58-.59-.58-.34.3-.65.73-.97,1.1,1.21-.17,2.38-.35,3.77-.81.27-.08.56-.14.81-.26l.75-.35c.49-.25,1.03-.46,1.47-.77.89-.61,1.82-1.21,2.56-1.94.38-.36.8-.7,1.15-1.08l1.03-1.16c.72-.76,1.25-1.61,1.87-2.43,2.32-3.34,4.08-6.93,5.87-10.74,1.93-4.14,3.78-8.12,5.61-12.05,1.85-3.93,2.61-7.93,3.51-11.88.9-3.96,1.94-7.88,4.3-11.88,1.71-3.1,1.69-9.27,1.79-12.47-2.05-4.52-8.4-2.67-8.75-2.53-5.45,2.09-2.69,4.29-6.33,9.01,2.14-3.26,3.1,2.97-.94,5.72-3.04,1.95-3.73,4.67-3.99,7.61-.26,2.94-.11,6.11-1.41,8.73-.64,1.31-.74,2.81-1.25,4.42-1.95,3.98-3,7.9-4.16,11.73-.3.94-.57,1.92-.9,2.83l-.49,1.4c-.18.44-.37.88-.55,1.33-.36.92-.81,1.69-1.25,2.53-.23.39-.49.74-.74,1.11l-.38.55-.42.45c-.27.32-.45.78-.62,1.1-.16.35-.27.74-.37,1.17-.21.68-.38,1.57-.69,2.11-.29.39-.72.34-1.08.36h-.32c-.17.02-.33.03-.49.04-.32.03-.61.06-.88.13-1.65.44-2.97,1.19-4.27,1.97,1.51-.45,2.57-1.03,4.23-1.67,1.14-.38-.34,2.01-1.09,2.56-.29.39-1.12-1.08-1.39-.71-.72.13-1.29.86-2.05,1.34-.31.36-.4-1.09-.55-.92-.98.42-1.78,2.25-2.49,1.85-.51-.24-.95-.48-1.35-.75-.26-.1-.51-.2-.79-.19-.19.09-.39.19-.58.26.05.46,0,1.01-.04,1.55-.27-.13-.59-.53-.83-.67.25.13.56.54.83.67.04-.54.09-1.08.04-1.55-1.41.58-3.15.81-4.74.42-.02.04-.04.08-.06.12.82.4,1.47.89,2.14,2.06-.31-.45-.09-.8.37-.72.04.27.08.54.13.8-.93.12-2.05.11-2.24-1.23,0,0-.49.1-.73.12-.12-.33.15-.69.33-1.03-.16-.08-.33-.14-.49-.23-.09.41.01.96.16,1.46.15.48.35.85.35.85Z"/>
          <path class="cls-2" d="M72.49,265.04c-.14.06-.31.1-.49.15.68.02,1.36.01,2.05,0-.45-.65-.99-.39-1.55-.15Z"/>
        </g>
      </g>
      <g class="cls-1">
        <g>
          <path class="cls-2" d="M52.33,248.42l-.86.55c.2-.02.43,0,.72.11.28,0,.18-.33.14-.65Z"/>
          <path class="cls-2" d="M50.66,249.45c-.05.03-.11.06-.16.09-.02.07-.04.13-.05.2.07-.1.14-.2.21-.29Z"/>
          <path class="cls-2" d="M49.4,250.75c.3-.11.53-.32.72-.55-.27.05-.52.21-.72.55Z"/>
          <path class="cls-2" d="M50.78,250.25c-.21-.11-.38-.27-.33-.5h0c-.1.15-.21.31-.33.45.21-.04.43-.01.65.05Z"/>
          <path class="cls-2" d="M50.78,250.25c.2.11.45.17.57.23-.19-.1-.38-.18-.57-.23Z"/>
          <path class="cls-2" d="M53.26,254.71c-.08.24-.84-.98-.98-.5-.52.84-.85,1.81-1.6,2.25-.18.48-1.51-.58-1.69-.12-.55.8-1.93,3.62-.67,2.9,1.88-1.19,2.88-2.25,4.33-3.49.97-1.33,1.74-2.72,2.62-4.05.29-.31.68-.46,1.05-.64-.54.15-1.1.29-1.69.48-.85.14-.51,2.18-1.37,3.16Z"/>
          <path class="cls-2" d="M58.64,244.17c-.02.24-.05.72-.05.72-1.3-.2-1.63.65-2,1.52.25.1.5.19.76.29.31-.39.08-.72-.45-.67,1.32,0,2.11-.56,2.7-1.34-.32-.24-.62-.57-.95-.52Z"/>
          <path class="cls-2" d="M59.91,244.21c-.1.17-.2.33-.31.48l.1.07c.08-.18.17-.37.25-.55h-.04Z"/>
          <path class="cls-2" d="M46.82,253.82c-2.1,1.19-4.25,2-6.39,2.42-.09.32-.13.65-.4.54-.23-.21-.43-.32-.61-.39-.31.05-.63.07-.94.09-.1.05-.21.11-.31.16h0c-.15.2-.08.41.06.6.14.13.29.29.42.47-.08-.11-.28-.28-.42-.47-.18-.16-.36-.27-.56-.34-.28.11-.58.18-.9.12.34-.19.63-.21.9-.12.18-.06.34-.17.51-.26l.13-.15c-.36.03-.71.04-1.07.02-.35-.01-.7,0-1.05-.07-.16.03-.31.06-.44.11-.51.21-1.06.29-1.27-.42-.12-.03-.24-.04-.35-.09.02.05.03.09.05.14-.05-.05-.08-.11-.11-.16-.48-.17-.97-.31-1.41-.55-.39.16-.84.38-1.24.4,0,0-.02-.54-.02-.8-.27.26-.58.41-.84.39.05.52.1,1.05.23,1.44.04.41.39.18.7,0,.32-.19.59-.31.6.4,0-.72-.28-.59-.6-.4-.31.18-.66.41-.7,0-.12-.39-.18-.92-.23-1.44-.55-.05-1.03-.59-1.01-1.48.85-.09.94.57,1.01,1.48.27.02.57-.13.84-.39,0,.26.02.8.02.8.4-.02.86-.25,1.24-.4-.9-.39-1.68-.98-2.44-1.59-1.22-1.11-2.15-2.31-2.8-3.57-.62-1.28-.98-2.63-1.04-4.08-.14-2.9.76-6.09,2.37-9.19,1.81-3.36,4.25-6.3,6.96-8.88,2.71-2.57,4.77-5.39,7.16-8.04,2.38-2.64,5.09-5.07,8.97-6.56,2.87-1.23,6.11-5.48,8.01-7.46.51-2.12-.63-3.97-1.93-5.34-1.27-1.39-2.79-2.22-2.97-2.29-2.67-1.12-3.87-.79-5.09-.04-1.22.75-2.47,1.91-5.31,2.61,3.61-1.17.7,4.09-4.09,4.01-3.6-.15-5.75,1.85-7.51,4.32-1.77,2.48-3.15,5.42-5.47,7.42-1.17,1-1.89,2.46-2.99,3.92-3.38,3.44-5.71,7.67-7.31,12.65-.79,2.5-1.4,5.22-1.67,8.27-.24,3.05-.18,6.56,1,10.33.68,1.97,1.95,3.6,3.35,4.8,1.42,1.18,2.92,1.97,4.28,2.62,1.67,1.1,3.52,2.96,5.32,3.62,2.84,1.02,5.47.72,7.54,0-2.36.32-4.34.55-7.27-.21-.97-.29-.44-.6.42-.85.43-.13.94-.25,1.42-.36.48-.13.91-.24,1.21-.28.52-.2,1.06,1.46,1.63,1.2.56.07,1.09-.09,1.61-.3.53-.19,1.03-.48,1.55-.73.43-.35.51,1.09.74.91.73-.26,1.31-.89,1.76-1.44.46-.56.83-1.01,1.3-.92.67.03,1.32.1,1.93.11.37-.04.73-.1,1.08-.28.18-.2.36-.4.54-.6-.34-.34-.6-.82-.85-1.3.33-.05.89.07,1.23.02-.34.05-.9-.07-1.23-.02.25.48.51.96.85,1.3,1.3-1.42,2.65-2.94,3.82-4.32-.03-.03-.06-.07-.08-.1-.79.61-1.74.97-3.03.61.53.1.67.48.24.77l-.66-.49c.64-.73,1.19-1.47,2.41-.95,0,0,.17-.46.25-.69.34.04.55.44.79.75.15-.12.3-.26.45-.4-.72-.39-2.27-.6-2.27-.6Z"/>
          <path class="cls-2" d="M37.63,256.86c.12-.05.27-.11.43-.17-.6,0-1.21,0-1.8-.07.32.73.87.46,1.37.24Z"/>
        </g>
      </g>
      <g class="cls-1">
        <g>
          <path class="cls-3" d="M190.27,222.55l-.45-.91c.02.18.02.38-.05.61.01.24.25.24.5.29Z"/>
          <path class="cls-3" d="M189.37,220.83c-.03-.05-.06-.1-.09-.15-.05-.03-.11-.05-.16-.08.09.07.17.15.25.23Z"/>
          <path class="cls-3" d="M188.17,219.54c.14.28.33.5.54.7-.08-.25-.24-.49-.54-.7Z"/>
          <path class="cls-3" d="M188.77,220.8c.06-.17.15-.29.34-.21h0c-.13-.11-.27-.23-.4-.35.06.19.08.38.06.56Z"/>
          <path class="cls-3" d="M188.77,220.8c-.06.16-.07.36-.11.45.05-.14.09-.3.11-.45Z"/>
          <path class="cls-3" d="M185.74,222.38c-.17-.06.63-.59.29-.71-.62-.43-1.38-.61-1.78-1.12-.33-.1.11-1.14-.26-1.23-.69-.39-2.91-.72-2.09-.02.62.51,1.11.93,1.63,1.32.49.41.94.82,1.47,1.31.49.35.98.7,1.47,1.05.47.37.91.78,1.37,1.22.2.27.24.6.31.91-.03-.43-.04-.89-.17-1.36-.08-.69-1.5-.73-2.23-1.35Z"/>
          <path class="cls-3" d="M191.7,229.82c-.11-.17-.34-.5-.34-.5.35-.4.4-.82.31-1.22-.08-.4-.28-.78-.48-1.14l-.41.45c.13.42.4.44.54,0-.21.52-.3.98-.31,1.42-.06.44-.05.87.01,1.31.26-.06.56-.05.68-.31Z"/>
          <path class="cls-3" d="M191.11,230.64c-.03-.17-.06-.35-.1-.52l-.08.02c.05.17.1.35.16.51l.02-.02Z"/>
          <path class="cls-3" d="M185.17,217.39c-1.56-1.57-3.09-2.98-4.64-4.3-.24.05-.46.16-.55-.06-.02-.23-.08-.41-.17-.57-.22-.2-.46-.38-.68-.57-.1-.04-.2-.08-.3-.12h0c-.2-.01-.25.14-.25.31.03.15.05.31.04.46,0-.1-.04-.29-.04-.46-.04-.18-.11-.35-.23-.5-.25-.11-.5-.25-.71-.46.33.1.55.26.71.46.16.06.32.12.48.19.06,0,.11,0,.17.01-.53-.42-1.04-.88-1.58-1.28-.14-.07-.28-.13-.4-.17-.48-.17-.95-.33-.95-.88l-.29-.23s0,.07.01.11c-.03-.05-.05-.1-.07-.15-.41-.3-.82-.61-1.24-.92-.38-.02-.78-.01-1.15-.07,0,0-.03-.39-.05-.58-.24.14-.5.17-.74.12.09.39.14.78.24,1.07.05.58,1.15-.43,1.02.56.13-.98-.97.02-1.02-.56-.1-.29-.15-.68-.24-1.07-.5-.09-.95-.56-1.16-1.22.75-.04,1.01.57,1.16,1.22.24.05.49.01.74-.12.02.19.05.58.05.58.36.06.77.05,1.15.07-.8-.61-1.65-1.18-2.5-1.78-5.52-3.83-11.18-6.32-17.43-9.3-3.38-1.65-6.63-3.27-9.82-4.93l-.72-.36-.36-.17-.18-.08s-.04-.03-.07-.05c-.18-.12-.35-.23-.51-.32-.33-.19-.64-.33-.95-.46.04-.42.13-.86.19-1.26l.06-.3c.02-.12.03-.11.08-.48.08-.58.17-1.16.27-1.74.4-2.32,1-4.66,2.06-7.04,1.08-2.62,1.06-7.65,1.18-10.26-1.29-3.61-5.55-2.17-5.79-2.03-3.68,1.83-1.89,3.67-4.32,7.85,1.43-2.86,2.06,2.38-.58,4.98-1.74,1.62-2.26,3.67-2.42,5.88-.04.55-.05,1.11-.06,1.68-.04,1.03-.08,2.06-.12,3.1-.08,2.13-.17,4.2-.36,6.28,1.23.37,2.41.76,3.54,1.22,1.07.43,2.26.81,3.5,1.2.55.17,1.1.35,1.68.53.33.11.66.22,1,.35,3.38,1.8,6.8,2.98,10.29,4.17,3.48,1.19,7.03,2.39,10.48,4.25,1.86.91,3.88.96,5.65,1.39,1.21.47,2.14,1.58,3.02,2.11,1.38.83,2.71,1.31,4.05,1.71-1.33-.69-2.37-1.08-3.87-1.82-.97-.54,1.29-.64,2.08-.47.39-.02.22,1.16.6,1.15.56.39,1.35.36,2.1.58.38.01-.21.77-.02.78.94.39,2.3-.12,2.65.5.29.42.56.79.79,1.18.17.22.34.42.58.58.19.06.38.11.57.17.08-.32.28-.62.48-.93.17.22.32.62.48.84-.16-.22-.31-.62-.48-.84-.2.31-.4.61-.48.93,1.36.44,2.81,1.14,4.09,1.94l.05-.07c-.65-.55-1.13-1.22-1.38-2.24.13.42-.09.58-.44.32l.09-.58c.74.33,1.51.68,1.49,1.7,0,0,.38.09.57.14.07.27-.16.46-.32.67.13.11.26.21.4.32.12-.57-.21-1.83-.21-1.83Z"/>
          <path class="cls-3" d="M178.34,211.56c.11.04.25.11.39.18-.44-.36-.86-.74-1.31-1.09,0,.55.45.73.93.91Z"/>
        </g>
      </g>
      <g class="cls-1">
        <g>
          <path class="cls-3" d="M151.35,214.82l-.66-.79c.07.17.11.37.1.62.07.24.31.18.56.18Z"/>
          <path class="cls-3" d="M150.08,213.28s-.08-.1-.12-.14c-.06-.02-.12-.04-.17-.06.1.06.19.13.29.2Z"/>
          <path class="cls-3" d="M148.63,212.18c.19.26.43.45.68.61-.13-.23-.35-.44-.68-.61Z"/>
          <path class="cls-3" d="M149.48,213.35c.03-.18.1-.32.3-.27h0c-.16-.09-.32-.19-.48-.29.1.18.16.36.17.55Z"/>
          <path class="cls-3" d="M149.48,213.35c-.03.17,0,.39-.03.48.03-.16.04-.32.03-.48Z"/>
          <path class="cls-3" d="M146.75,215.41c-.2-.04.51-.69.12-.78-.76-.37-1.55-.53-2.07-1.04-.39-.07-.08-1.2-.48-1.27-.8-.33-3.12-.64-2.2.08.71.52,1.32.92,1.93,1.31.6.39,1.15.81,1.79,1.3,1.22.61,2.38,1.25,3.57,2.02.29.25.48.56.65.88-.17-.47-.4-.9-.65-1.39-.29-.69-1.74-.5-2.65-1.11Z"/>
          <path class="cls-3" d="M155.62,221.08c-.19-.08-.58-.24-.58-.24.09-1.04-.62-1.57-1.33-2.06l-.16.59c.32.35.57.23.49-.24.11,1.13.57,1.91,1.2,2.61.18-.2.43-.36.38-.65Z"/>
          <path class="cls-3" d="M155.62,222.13c-.13-.13-.26-.27-.39-.39l-.06.06c.15.12.29.24.44.36v-.03Z"/>
          <path class="cls-3" d="M145.25,210.26c-.88-.78-1.79-1.47-2.67-2.17-.86-.72-1.76-1.34-2.62-2-.24.06-.46.18-.58-.04-.05-.24-.13-.42-.24-.56l-.78-.54c-.11-.04-.21-.07-.32-.11h-.01c-.21,0-.24.15-.22.33.05.15.08.31.1.47,0-.1-.08-.29-.1-.47-.06-.18-.16-.35-.29-.5-.28-.1-.55-.23-.79-.43.36.07.61.24.79.43.18.06.35.11.52.17.06,0,.12,0,.18,0-.6-.41-1.18-.85-1.8-1.22-.16-.06-.31-.11-.44-.15-.52-.14-1.04-.27-1.11-.83l-.33-.21s.02.07.03.11c-.04-.05-.07-.1-.09-.14-.48-.27-.96-.54-1.44-.82-.4.01-.82.06-1.21.04,0,0-.1-.39-.15-.58-.23.16-.49.23-.75.21.16.38.28.77.43,1.04.14.56,1.13-.54,1.15.46-.02-1-1,.1-1.15-.46-.15-.27-.27-.67-.43-1.04-.54-.03-1.09-.46-1.43-1.08.78-.14,1.16.46,1.43,1.08.26.02.52-.05.75-.21.05.19.15.58.15.58.39.02.81-.02,1.21-.04-.93-.56-1.93-1.01-2.93-1.52-3.25-1.59-6.59-2.66-10.04-3.38-1.73-.35-3.47-.66-5.27-.86-.89-.12-1.8-.2-2.72-.29-.46-.05-.92-.07-1.39-.11-.3-.03-.6-.06-.9-.09-2.5-.26-4.34-.4-4.77-.7h-.02s-.04-.04-.04-.04h-.01s.05-.05.05-.05l.09-.08.35-.32.59-.56c.36-.35.65-.65.9-.92.45-.51.9-1.01,1.35-1.52.22-.23.44-.46.67-.65l.17-.14.09-.06s.02-.01.05-.04l.11-.12c.31-.32.62-.65.94-.97,1.28-1.28,2.68-2.5,4.29-3.61,2.43-1.77,5.31-6.3,6.92-8.57,1-3.93-3.45-4.9-3.74-4.9-4.18-.32-3.72,2.29-8.19,4.74,2.86-1.81.37,3.23-3.36,4.16-1.39.31-2.52.95-3.49,1.81-.49.43-.94.91-1.36,1.43-.78.98-1.58,2.06-2.35,3.12-1.46,2.08-2.95,4.22-4.43,6.33-1.47,2.07-2.98,4.06-4.95,6.23-.95,1.05-1.77,2.09-2.57,3.15-.74.98-1.51,2-2.33,3.08.07,0,.16-.02.24-.03,2.43-.03,6.66-.44,11.12-1,2.16-.21,4.79-.88,6.88-1.1l1.65-.24c.55-.08,1.04-.09,1.56-.13,1.03-.06,2.07-.19,3.07-.21.25-.01.5-.02.75-.02h.61s.69-.04.69-.04h1.38c.92-.01,1.85.01,2.79.08,1.87.11,3.76.42,5.66.91,2,.48,4.01.12,5.87.3.65.13,1.25.45,1.81.79.56.34,1.09.66,1.56.9.75.36,1.5.59,2.21.81.71.23,1.43.4,2.14.54-1.45-.59-2.56-.9-4.18-1.48-1.06-.44,1.22-.78,2.07-.68.41-.06.38,1.15.76,1.11.63.35,1.43.25,2.23.43.39,0-.13.8.07.79,1,.36,2.39-.27,2.8.36.35.42.65.8.94,1.18.2.21.42.39.68.55.2.05.4.11.6.16.05-.33.22-.65.4-.98.2.22.39.64.58.85-.19-.22-.39-.64-.58-.85-.17.32-.34.65-.4.98.73.21,1.5.46,2.28.76.75.32,1.51.68,2.23,1.03l.04-.08c-.76-.52-1.35-1.18-1.73-2.24.19.42-.02.59-.42.35l.02-.59c.83.27,1.62.64,1.75,1.66,0,0,.41.07.61.1.11.27-.1.49-.23.71.15.1.3.2.46.3.04-.6-.48-1.86-.48-1.86Z"/>
          <path class="cls-3" d="M137.51,204.64c.12.04.27.1.42.17-.5-.35-.98-.72-1.5-1.03.06.55.57.7,1.08.86Z"/>
        </g>
      </g>
      <g class="cls-1">
        <g>
          <path class="cls-3" d="M163.49,205.74l.19.23c-.02-.05-.03-.11-.04-.18-.02-.07-.09-.05-.16-.05Z"/>
          <path class="cls-3" d="M163.86,206.18l.03.04h.05s-.06-.02-.08-.04Z"/>
          <path class="cls-3" d="M164.27,206.51c-.04-.09-.12-.14-.19-.19.03.07.1.13.19.19Z"/>
          <path class="cls-3" d="M164.04,206.15c0,.05-.03.1-.09.09h0s.09.06.14.08c-.03-.05-.04-.11-.04-.17Z"/>
          <path class="cls-3" d="M164.04,206.15c0-.05,0-.12,0-.15,0,.05,0,.1,0,.15Z"/>
          <path class="cls-3" d="M164.91,205.46c.07,0-.16.22-.03.24.26.1.53.14.71.29.15.01-.03.41.11.43.25.11,1.16.18.84-.06-.5-.34-.87-.52-1.31-.8-.44-.16-.88-.27-1.29-.46-.1-.06-.18-.14-.26-.22.1.12.19.23.3.35.12.19.58.08.93.22Z"/>
          <path class="cls-3" d="M162.04,204.04s.13.09.13.09c.12.22.3.39.51.52l-.03-.13c-.11-.09-.14-.07-.08.04-.15-.27-.35-.44-.56-.63,0,.03-.01.04.03.1Z"/>
          <path class="cls-3" d="M161.89,203.83s.08.07.12.11h0s-.13-.11-.13-.11h0Z"/>
          <path class="cls-3" d="M165.21,207.14c.47.52.89,1.02,1.26,1.53.1-.01.2-.05.19.04-.04.09-.05.16-.05.23l.14.25.08.06h0c.07.01.12-.04.16-.11.02-.06.05-.12.08-.18-.02.04-.04.12-.08.18-.02.07-.03.14-.02.2.07.05.14.12.17.21-.1-.05-.15-.12-.17-.21l-.14-.09h-.06s.3.55.3.55c.04.03.07.06.11.09.14.09.28.18.14.39l.05.1s.02-.03.03-.04c0,.02,0,.04-.02.06l.22.43c.14.03.3.06.42.11,0,0-.1.15-.15.22.13-.03.23-.01.3.03.09-.15.2-.31.24-.43.15-.22-.57.06-.24-.29-.33.36.39.07.24.29-.04.11-.15.27-.24.43.15.09.16.31.03.56-.27-.07-.17-.31-.03-.56-.07-.04-.17-.06-.3-.03.05-.07.15-.22.15-.22-.12-.05-.28-.08-.42-.11.15.27.27.57.37.87.33.98.85,1.81,1.14,2.75.17.46.36.92.51,1.39.1.49.21.98.32,1.5.13.55.14,1.11.17,1.66.03.54.06,1.08,0,1.61-.05.53.01,1.04,0,1.55,0,.51,0,1.02,0,1.52-.04.51-.09,1.01-.16,1.53-.1.51-.24,1.01-.37,1.53-.22.78-.39,2.36-.62,3.15-.09.55-.09.7-.03.72.06.02.18-.09.2-.11.53-.51.65-1.04,1.44-2.26-.27.42-.25.24-.12-.15.12-.39.41-.98.75-1.37.26-.28.48-.61.67-.98.17-.37.29-.78.4-1.21.25-.85.21-1.77.51-2.62.11-.43.1-.89.17-1.41.18-.68.2-1.36.19-2.03,0-.34-.01-.68-.04-1.01-.04-.33-.12-.66-.18-.99-.23-1.34-.71-2.61-.99-4.09-.22-.75-.88-1.19-1.36-1.66-.28-.37-.25-.97-.49-1.27-.34-.49-.81-.8-1.28-1.05.41.37.77.61,1.18,1.07.26.32-.7.11-.97-.02-.16-.03.2-.48.03-.51-.15-.2-.47-.25-.74-.37-.16-.02.24-.3.16-.31-.32-.21-.96-.06-1-.31-.06-.16-.12-.31-.17-.46-.05-.08-.1-.16-.19-.22l-.22-.06c-.06.12-.18.24-.29.35-.04-.08-.06-.23-.11-.31.05.08.07.23.11.31.11-.12.22-.23.29-.35-.53-.15-1.06-.38-1.51-.61l-.02.03c.22.18.39.39.4.77-.02-.15.08-.21.19-.13l-.08.21c-.26-.11-.49-.22-.45-.58,0,0-.13-.02-.2-.03-.01-.09.07-.17.13-.25-.04-.03-.09-.06-.14-.1-.05.21.01.64.01.64Z"/>
          <path class="cls-3" d="M166.97,209.34s-.07-.05-.11-.09l.25.48c.14-.21,0-.3-.14-.39Z"/>
        </g>
      </g>
      <g class="cls-1">
        <g>
          <path class="cls-3" d="M141.7,224.77l.05-.23s-.06.07-.1.11c-.04.05.01.08.05.13Z"/>
          <path class="cls-3" d="M141.8,224.32v-.04s0-.04,0-.04c0,.03,0,.06,0,.08Z"/>
          <path class="cls-3" d="M141.81,223.9c-.03.07-.03.14-.03.21.03-.06.04-.13.03-.21Z"/>
          <path class="cls-3" d="M141.7,224.22s.08-.03.1.02h0s0-.09-.01-.13c-.02.04-.05.08-.09.11Z"/>
          <path class="cls-3" d="M141.7,224.22s-.08.05-.1.06c.04-.02.07-.04.1-.06Z"/>
          <path class="cls-3" d="M140.88,223.99s.22,0,.18-.09c-.04-.2-.12-.37-.09-.55-.04-.09.23-.18.18-.27-.05-.2-.33-.72-.34-.43,0,.43.04.72.01,1.11.04.32.11.64.14.98,0,.09-.04.17-.07.25l.17-.33c.09-.16-.18-.4-.19-.67Z"/>
          <path class="cls-3" d="M141.27,226.48s-.06-.14-.06-.14c.2-.15.17-.36.13-.56l-.13.06c0,.11.06.14.13.05-.18.2-.24.4-.25.62.07,0,.14.02.18-.04Z"/>
          <path class="cls-3" d="M141.09,226.65s0-.09,0-.13h-.02s.01.13.01.13h0Z"/>
          <path class="cls-3" d="M141.71,222.99c.04-.55.1-1.07.17-1.57-.04-.04-.09-.07-.06-.12.05-.04.08-.07.1-.11l.03-.22s0-.05-.01-.08h0s-.06-.04-.1-.01c-.03.03-.06.05-.09.07.02-.02.06-.04.09-.07.03-.03.06-.07.08-.11,0-.07-.01-.14,0-.21.02.08.01.15,0,.21,0,.04.01.08.02.13l.02.04c.02-.17.06-.33.07-.5,0-.04-.01-.07-.02-.11-.03-.12-.06-.25.05-.32v-.09s-.01.02-.01.02l.02-.03.03-.38c-.04-.08-.1-.17-.13-.26,0,0,.08-.06.12-.09-.06-.04-.1-.08-.12-.14-.07.07-.15.13-.2.19-.12.08.24.19.01.29.23-.1-.13-.21-.01-.29.05-.06.13-.12.2-.19-.04-.12,0-.28.12-.41.1.16,0,.29-.12.41.02.06.06.11.12.14-.04.03-.12.09-.12.09.03.09.09.17.13.26.02-.25.04-.51.07-.77.15-1.68-.05-3.23-.29-4.98-.06-.48-.18-.93-.26-1.4-.04-.23-.08-.46-.12-.7-.06-.22-.12-.45-.18-.68-.2-.92-.66-1.71-1.11-2.49-.49-.77-.98-1.53-1.51-2.44-.39-.72-1.68-1.49-2.41-1.81-.57-.06-.88.23-.95.53-.08.31-.05.61-.05.64.08.51.21.69.44.87.21.2.52.39.76.9-.18-.32,0-.36.26-.2.26.15.55.56.57.98-.02.68.31,1.06.65,1.53.39.42.76.92.94,1.46.08.28.21.55.33.87.34,1.73,1.12,3.27,1.16,5.23.04.51.32.95.42,1.39.04.32-.08.67-.08.93,0,.41.08.77.18,1.11-.04-.38-.1-.66-.14-1.09-.01-.28.31.2.37.39.05.08-.21.2-.16.28,0,.18.12.34.16.53.05.08-.19.06-.17.1.03.26.32.48.24.64-.05.12-.09.23-.14.34-.02.07-.04.14-.03.21l.05.15c.08-.03.17-.04.26-.04-.02.07-.08.16-.1.23.02-.07.08-.16.1-.23-.09,0-.18,0-.26.04.11.35.2.76.27,1.15h.02c0-.22.04-.43.2-.64-.06.09-.13.07-.13-.04l.13-.07c.05.2.1.4-.09.56,0,0,.05.09.07.13-.04.06-.11.05-.18.05,0,.04,0,.08,0,.13.13-.07.3-.34.3-.34Z"/>
          <path class="cls-3" d="M141.91,220.75s0,.07,0,.11c.02-.14.05-.28.06-.42-.11.07-.1.19-.07.32Z"/>
        </g>
      </g>
    </g>
  </g>
</svg>