<?xml version="1.0" encoding="UTF-8"?>
<svg height="500pt" id="Calque_2" data-name="Calque 2"
  xmlns="http://www.w3.org/2000/svg" viewBox="0 0 152.47 174.97">
  <defs>
    <style>
      .cls-1 {
        fill: #e75a7c;
      }
    </style>
  </defs>
  <g id="Calque_1-2" data-name="Calque 1">
    <path class="cls-1" d="m136.79,29.41c-18.59-12.99-42.37-14.92-60.07.04-5.71,4.73-10.36,10.74-13.19,17.56-1.59,4.18-3.54,8.28-5.9,12.03-3.77,6.11-8.6,11.48-13.81,16.23-7.08,6.57-14.95,11.89-22.27,17.77,18.46-1.99,37.43-1.33,54.54,6.34,12.2,5.45,22.74,15.52,27.16,28.21,2.24,6.16,3.17,12.74,2.74,19.24v.12c-.07,15.49-12.63,28.02-28.13,28.02s-28.14-12.6-28.14-28.14,12.6-28.14,28.14-28.14c6.91,0,13.02,2.05,17.76,5.69-5.06-8.11-12.86-14.46-22.4-18-17.29-6.58-36.3-5.58-54.48-2.46-2.7.47-5.44,1.03-8.15,1.63-1.12.24-2.24.5-3.35.76-.55.12-1.36.21-2.01.13-4.73-.45-6.76-6.2-3.93-9.62l.1-.13.8-1.05c.36-.47.73-.93,1.12-1.39,8.98-10.98,20.86-19.22,30.28-29.29,6.11-6.48,10.88-13.34,13.6-21.56C58.29,10.05,94.94-7.93,128.16,3.39c7.02,2.27,13.58,5.5,19.62,9.31,11.1,7.71.49,23.85-10.99,16.71Z"/>
  </g>
</svg>