<?xml version="1.0" encoding="UTF-8" standalone="no"?>
<svg
   width="119"
   height="40"
   viewBox="0 0 119 40"
   class="css-17p906i"
   version="1.1"
   id="svg8"
   sodipodi:docname="Logo-With-Wordmark.svg"
   inkscape:version="1.1.2 (0a00cf5339, 2022-02-04)"
   xmlns:inkscape="http://www.inkscape.org/namespaces/inkscape"
   xmlns:sodipodi="http://sodipodi.sourceforge.net/DTD/sodipodi-0.dtd"
   xmlns="http://www.w3.org/2000/svg"
   xmlns:svg="http://www.w3.org/2000/svg">
  <defs
     id="defs12" />
  <sodipodi:namedview
     id="namedview10"
     pagecolor="#ffffff"
     bordercolor="#666666"
     borderopacity="1.0"
     inkscape:pageshadow="2"
     inkscape:pageopacity="0.0"
     inkscape:pagecheckerboard="0"
     showgrid="false"
     inkscape:zoom="11.563025"
     inkscape:cx="59.543241"
     inkscape:cy="20.020712"
     inkscape:window-width="1920"
     inkscape:window-height="1128"
     inkscape:window-x="0"
     inkscape:window-y="0"
     inkscape:window-maximized="1"
     inkscape:current-layer="svg8" />
  <path
     class="css-4425yq"
     d="M59.366 20.37v5.317c0 .84-.19 1.47-.571 1.89-.38.42-.884.63-1.509.63-.605 0-1.096-.21-1.472-.63-.376-.42-.564-1.05-.564-1.89v-6.372c0-1.005-.034-1.787-.102-2.343-.069-.557-.254-1.014-.557-1.37-.303-.356-.781-.535-1.436-.535-1.308 0-2.17.45-2.585 1.348-.415.898-.623 2.188-.623 3.867v5.405c0 .83-.188 1.458-.564 1.883-.376.425-.871.637-1.486.637-.606 0-1.102-.212-1.487-.637-.386-.425-.579-1.052-.579-1.883v-11.44c0-.752.173-1.323.52-1.714.347-.39.803-.586 1.37-.586.547 0 1.003.183 1.37.55.366.366.549.871.549 1.516v.38c.693-.83 1.435-1.44 2.226-1.83.791-.391 1.67-.586 2.637-.586 1.006 0 1.87.2 2.593.6.722.4 1.318 1.006 1.787 1.817.674-.82 1.396-1.429 2.168-1.824.771-.396 1.626-.593 2.563-.593 1.094 0 2.036.214 2.827.644a4.101 4.101 0 0 1 1.773 1.846c.342.722.513 1.86.513 3.413v7.808c0 .84-.19 1.47-.572 1.89-.38.42-.883.629-1.508.629-.606 0-1.102-.212-1.487-.637-.386-.425-.579-1.052-.579-1.883v-6.723c0-.86-.037-1.548-.11-2.066-.073-.517-.27-.952-.593-1.303-.322-.352-.81-.528-1.465-.528-.527 0-1.028.157-1.501.47a3.183 3.183 0 0 0-1.106 1.259c-.293.674-.44 1.865-.44 3.574ZM76.607 14.218v11.557c0 .801-.19 1.407-.57 1.817-.382.41-.865.615-1.451.615-.586 0-1.062-.21-1.428-.63-.366-.42-.55-1.02-.55-1.802v-11.44c0-.791.184-1.387.55-1.787.366-.4.842-.6 1.428-.6s1.07.2 1.45.6c.381.4.571.957.571 1.67Zm-1.977-4.131c-.557 0-1.033-.171-1.428-.513-.396-.342-.594-.825-.594-1.45 0-.566.203-1.033.608-1.399.406-.366.877-.55 1.414-.55.518 0 .976.167 1.377.499.4.332.6.815.6 1.45 0 .615-.195 1.096-.585 1.443-.391.347-.855.52-1.392.52ZM84.708 22.436v3.34c0 .81-.19 1.418-.571 1.823-.381.405-.864.608-1.45.608-.577 0-1.05-.205-1.421-.615-.371-.41-.557-1.016-.557-1.817V14.643c0-1.797.65-2.696 1.948-2.696.664 0 1.143.21 1.436.63.293.42.454 1.04.483 1.86.479-.82.97-1.44 1.472-1.86.503-.42 1.175-.63 2.015-.63.84 0 1.655.21 2.446.63.79.42 1.186.977 1.186 1.67 0 .488-.168.891-.505 1.209-.337.317-.7.476-1.091.476-.147 0-.5-.09-1.062-.271-.562-.181-1.057-.271-1.487-.271-.586 0-1.065.153-1.436.461-.37.308-.659.764-.864 1.37-.205.605-.347 1.325-.425 2.16a33.557 33.557 0 0 0-.117 3.055ZM93.482 23.248V8.432c0-.801.179-1.407.535-1.817.357-.41.838-.615 1.443-.615.605 0 1.094.203 1.465.608.37.405.556 1.013.556 1.824v14.216c0 1.244 0 1.985.943 1.985 1.142 0 1.853-1.34 2.608-1.34.7 0 1.158.462 1.158 1.34 0 1.596-1.803 3.574-4.504 3.574-2.226 0-4.204-1.457-4.204-4.959ZM118.583 20.077c0 1.192-.185 2.29-.557 3.296a7.278 7.278 0 0 1-1.61 2.593 7.114 7.114 0 0 1-2.52 1.662c-.977.386-2.076.579-3.296.579-1.211 0-2.3-.195-3.267-.586a7.254 7.254 0 0 1-2.512-1.677 7.252 7.252 0 0 1-1.611-2.578c-.367-.991-.55-2.088-.55-3.289 0-1.21.186-2.32.557-3.325.37-1.006.903-1.865 1.597-2.578a7.039 7.039 0 0 1 2.52-1.648c.985-.386 2.074-.579 3.266-.579 1.21 0 2.31.196 3.296.586a7.17 7.17 0 0 1 2.534 1.67 7.218 7.218 0 0 1 1.604 2.578c.366.996.55 2.095.55 3.296Zm-4.014 0c0-1.63-.359-2.9-1.076-3.808-.718-.909-1.682-1.363-2.893-1.363-.782 0-1.47.203-2.066.608-.595.405-1.054 1.004-1.377 1.795-.322.79-.483 1.713-.483 2.768 0 1.045.159 1.958.476 2.74.317.78.771 1.379 1.362 1.794.591.415 1.287.622 2.088.622 1.21 0 2.175-.456 2.893-1.37.717-.912 1.076-2.175 1.076-3.786Z"
     id="path2" />
  <path
     id="path4"
     class="css-5ob5ai"
     d="M 20 0 C 8.954 0 0 8.954 0 20 C 0 31.046 8.954 40 20 40 C 31.046 40 40 31.046 40 20 C 40 8.954 31.046 0 20 0 z M 23.382812 8.5097656 C 24.265041 8.5309114 25.158781 8.6850469 26.035156 8.9824219 A 12.39 12.39 0 0 1 28.785156 10.287109 C 30.329156 11.381109 28.842516 13.642484 27.228516 12.646484 C 24.618516 10.821484 21.277969 10.554484 18.792969 12.646484 C 17.992969 13.306484 17.332453 14.146234 16.939453 15.115234 A 8.938 8.938 0 0 1 16.111328 16.800781 C 15.578328 17.656781 14.905781 18.414219 14.175781 19.074219 C 13.179781 20.000219 12.084922 20.744266 11.044922 21.572266 C 13.641922 21.292266 16.295312 21.388078 18.695312 22.455078 C 20.407312 23.213078 21.880719 24.632063 22.511719 26.414062 C 22.821719 27.284063 22.962578 28.196375 22.892578 29.109375 L 22.892578 29.123047 A 3.944 3.944 0 0 1 18.947266 33.052734 A 3.923 3.923 0 0 1 15.017578 29.123047 A 3.947 3.947 0 0 1 18.960938 25.179688 C 19.929938 25.179688 20.786937 25.473516 21.460938 25.978516 A 6.257 6.257 0 0 0 18.316406 23.453125 C 15.888406 22.526125 13.221016 22.666562 10.666016 23.101562 C 10.288016 23.171563 9.908625 23.242172 9.515625 23.326172 C 9.360625 23.354172 9.2067344 23.396453 9.0527344 23.439453 A 0.92 0.92 0 0 1 8.7714844 23.453125 C 8.1114844 23.396125 7.8176094 22.583469 8.2246094 22.105469 L 8.2382812 22.091797 L 8.3515625 21.9375 C 8.4075625 21.8675 8.4498594 21.811234 8.5058594 21.740234 C 9.7688594 20.196234 11.438812 19.046906 12.757812 17.628906 C 13.613812 16.716906 14.288969 15.760703 14.667969 14.595703 C 15.933844 10.798891 19.559822 8.418134 23.382812 8.5097656 z " />
</svg>
