<?xml version="1.0" encoding="UTF-8"?>
<svg width="700pt" height="500pt" version="1.1" viewBox="0 0 700 500"
  xmlns="http://www.w3.org/2000/svg"
  xmlns:xlink="http://www.w3.org/1999/xlink">

  <g>
    <path d="m602.3 166.67c-0.55859-1.9258-2.3398-3.2539-4.4062-3.0352l-182.47 15.691 51.953-61.441c1.2266-1.4492 1.332-3.5352 0.26172-5.0898-1.082-1.5625-3.0508-2.207-4.8555-1.5859l-158.56 55.512c-0.15234 0.054688-0.26172 0.17188-0.41016 0.24609-0.28125 0.13281-0.54297 0.28125-0.78516 0.47656-0.21875 0.16797-0.38672 0.35938-0.56641 0.57031-0.11719 0.13281-0.26953 0.21875-0.36328 0.37109-0.066406 0.10547-0.078125 0.22266-0.12891 0.33594-0.0625 0.10547-0.15625 0.17969-0.20703 0.29297l-20.906 48.027-81.004-68.965c-0.39062-0.33594-0.83594-0.55469-1.3008-0.72266-0.13281-0.050781-0.26953-0.078124-0.40234-0.11328-0.36328-0.09375-0.73438-0.13281-1.1094-0.125-0.11719 0-0.23047-0.011719-0.34766 0-0.46094 0.050781-0.91406 0.15234-1.3438 0.35156l-61.129 28.785c-0.40234 0.17969-0.79688 0.42578-1.1367 0.74609-0.125 0.11719-0.24219 0.23438-0.34766 0.35938l-21.578 24.445c-1.2539 1.418-1.3984 3.4961-0.36328 5.0781 1.0352 1.5781 3.0078 2.2695 4.8008 1.6953l31.465-10.137 25.285 27.547 23.121 118.36c0.015625 0.089844 0.066406 0.15625 0.089844 0.24609 0.039062 0.14453 0.09375 0.28125 0.14453 0.41406 0.078125 0.20312 0.13281 0.40234 0.24219 0.58984 0.074219 0.11719 0.16406 0.21875 0.24609 0.33594 0 0.003907 0.003906 0.011719 0.011719 0.015625 0.085937 0.11719 0.15625 0.23047 0.25391 0.33984 0.11328 0.125 0.21094 0.23438 0.33594 0.34766 0.125 0.11719 0.26172 0.20312 0.39844 0.30078 0.11328 0.078124 0.20312 0.17187 0.32031 0.24219 0.023438 0.011719 0.042969 0.035156 0.066407 0.050781 0.10547 0.0625 0.23047 0.078125 0.33984 0.125 0.16406 0.074219 0.32422 0.12891 0.49219 0.18359 0.11719 0.035156 0.21875 0.09375 0.33594 0.11719 0.10547 0.023437 0.20312 0.015624 0.30859 0.035156 0.039063 0.003906 0.074219 0.027344 0.11328 0.035156l165.52 17.562 158.76 82.555c0.60938 0.32422 1.2812 0.47656 1.9375 0.47656 1.1016 0 2.1992-0.4375 3.0078-1.2656l54.84-56.117c0.97266-1.0039 1.3906-2.4258 1.1016-3.7969-0.28516-1.3672-1.2383-2.5039-2.5273-3.0312l-39.82-16.18 21.184-28.465c0.88672-1.1797 1.082-2.7344 0.52734-4.0938-0.55469-1.3594-1.7812-2.3359-3.2383-2.5664l-164.29-25.883 44.57-54.945 159.4-80.398c1.7969-0.91016 2.7031-2.9727 2.1602-4.9023zm-198.74 13.676-49.504 4.2578c-0.44922 0.039063-0.85156 0.19531-1.2617 0.36328-0.066407 0.035156-0.15234 0.011718-0.22266 0.042968l-9.9961 4.8789-27.559-18.055 135.98-47.609zm-40.293 176.35-133.81-14.203 151.86-27.047zm-154.49-19.051 74.543-107.62 95.234 77.387zm98.699-160.72 26.324 17.246-42.957 20.957zm-105.68 156.05-21.254-108.76 18.82-65.52 77.461 65.93zm-74.23-137.08 8.4062-9.5273 4.8281 5.2578zm23.641-5.3477-8.3398-9.0898 47.668-22.438-16.273 56.648-22.617-24.652c-0.13672-0.16016-0.28125-0.31641-0.4375-0.46875zm373.32 248.41-153.22-79.672 19.219-43.926 182.29 74.176zm9.418-74.309-110.4-44.918 128.74 20.281zm-146.25-60.625-97.5-79.234 63.816-31.137 77.965 55.789zm50.73-60.301-72.309-51.734 39.832-3.4258c0.023437 0 0.042969 0 0.066406-0.003906l170.91-14.695z"/>
  </g>
</svg>
